<svg width="13" height="15" viewBox="0 0 13 15" fill="none" xmlns="http://www.w3.org/2000/svg">
<path fill-rule="evenodd" clip-rule="evenodd" d="M7.32019 0.84133C7.82103 0.540256 8.47197 0.525581 9.02784 0.927581C10.8018 2.21051 12.8333 4.4974 12.8333 7.7417C12.8333 10.2792 11.7431 11.9111 10.355 12.8909C9.50218 13.4929 8.54882 13.8416 7.68872 14.0181C7.37179 14.1257 7.06669 14.1676 6.82222 14.1676C6.75375 14.1676 6.68064 14.165 6.60384 14.1592C6.49469 14.1649 6.3895 14.1676 6.28889 14.1676C5.31497 14.1676 3.87576 13.8448 2.66939 12.8716C1.44167 11.8812 0.5 10.2524 0.5 7.7417C0.5 5.69057 1.58357 4.31107 2.60338 3.53311C3.02795 3.20923 3.53673 3.20384 3.93932 3.42365C4.32868 3.63623 4.60154 4.04601 4.65085 4.52732L4.70806 5.08588C4.73006 5.30056 4.83982 5.47874 4.95451 5.56549C5.00834 5.60619 5.05201 5.61898 5.08109 5.62116C5.10562 5.62301 5.14375 5.6197 5.20042 5.58287C5.63579 5.29993 5.96639 4.79098 6.18884 4.19203C6.40922 3.59862 6.5 2.97869 6.5 2.55651V2.34076C6.5 1.69224 6.82961 1.13623 7.32019 0.84133ZM7.42094 13.052C7.13715 13.1073 6.86615 13.141 6.61812 13.1568C6.29552 13.1241 5.88902 13.014 5.54943 12.7812C5.15962 12.5139 4.83333 12.0719 4.83333 11.2973C4.83333 10.3624 5.41171 9.65238 6.02652 9.19758C6.02823 9.20436 6.02941 9.2128 6.02941 9.22318V9.23049C6.0294 9.38227 6.02939 9.61198 6.05797 9.85096C6.0864 10.0886 6.14761 10.3808 6.29828 10.6378C6.4033 10.8169 6.56471 10.9684 6.78389 11.033C6.99926 11.0964 7.20456 11.0565 7.36451 10.9809C7.66852 10.8373 7.8859 10.5374 7.97714 10.2211C8.25184 10.4449 8.5 10.7948 8.5 11.2973C8.5 12.0996 8.20165 12.5439 7.87492 12.8C7.73165 12.9123 7.57491 12.9943 7.42094 13.052ZM9.34504 12.3493C9.49228 12.2652 9.63715 12.1736 9.77833 12.074C10.9088 11.276 11.8333 9.94489 11.8333 7.7417C11.8333 4.9502 10.0853 2.92642 8.44183 1.73789C8.22536 1.58134 8.00889 1.5941 7.8354 1.69839C7.65164 1.80886 7.5 2.03613 7.5 2.34076V2.55651C7.5 3.09557 7.38871 3.83354 7.12627 4.54018C6.8659 5.24127 6.43294 5.9745 5.74534 6.42136C5.25592 6.73942 4.72808 6.64803 4.35129 6.36306C3.99563 6.09406 3.76096 5.65331 3.71327 5.18778L3.65605 4.62923C3.63884 4.4612 3.54778 4.34921 3.46011 4.30135C3.38566 4.2607 3.3043 4.25616 3.2099 4.32818C2.36505 4.97267 1.5 6.08405 1.5 7.7417C1.5 9.97177 2.3213 11.3059 3.29727 12.0933C3.5623 12.3071 3.842 12.4831 4.12467 12.6264C3.94256 12.2601 3.83333 11.8197 3.83333 11.2973C3.83333 9.89495 4.71344 8.9154 5.46537 8.36903C5.80727 8.1206 6.21821 8.12804 6.53196 8.31792C6.83477 8.50118 7.02941 8.8402 7.02941 9.22318C7.02941 9.37972 7.02989 9.55659 7.0509 9.7322C7.05434 9.76097 7.05822 9.78856 7.0625 9.81497C7.16931 9.56927 7.36561 9.37867 7.59798 9.27795C7.87682 9.15709 8.23136 9.15951 8.52748 9.38222C8.99379 9.73292 9.5 10.3625 9.5 11.2973C9.5 11.6931 9.44401 12.0427 9.34504 12.3493Z" fill="#4B4E4E" stroke="#4B4E4E" stroke-width="0.3"/>
</svg>
