<svg width="16" height="16" viewBox="0 0 16 16" fill="none" xmlns="http://www.w3.org/2000/svg">
<g clip-path="url(#clip0_6816_8787)">
<path fill-rule="evenodd" clip-rule="evenodd" d="M3.50269 3.99967C3.50269 2.25077 4.92046 0.833008 6.66936 0.833008C8.41826 0.833008 9.83603 2.25077 9.83603 3.99967C9.83603 5.74858 8.41826 7.16634 6.66936 7.16634C4.92046 7.16634 3.50269 5.74858 3.50269 3.99967ZM6.66936 1.83301C5.47274 1.83301 4.50269 2.80306 4.50269 3.99967C4.50269 5.19629 5.47274 6.16634 6.66936 6.16634C7.86598 6.16634 8.83603 5.19629 8.83603 3.99967C8.83603 2.80306 7.86598 1.83301 6.66936 1.83301Z" fill="#4B4E4E"/>
<path fill-rule="evenodd" clip-rule="evenodd" d="M2.65299 9.10923C3.70598 8.51693 5.12699 8.16634 6.66936 8.16634C8.21173 8.16634 9.63274 8.51693 10.6857 9.10923C11.723 9.69272 12.5027 10.5771 12.5027 11.6663L12.5027 11.7343C12.5035 12.5089 12.5044 13.481 11.6518 14.1754C11.2321 14.5171 10.645 14.7601 9.85189 14.9206C9.05652 15.0816 8.01988 15.1663 6.66936 15.1663C5.31884 15.1663 4.2822 15.0816 3.48683 14.9206C2.69368 14.7601 2.10661 14.5171 1.68697 14.1754C0.834284 13.481 0.83523 12.5089 0.835983 11.7343L0.836027 11.6663C0.836027 10.5771 1.61568 9.69272 2.65299 9.10923ZM3.14325 9.98081C2.25028 10.4831 1.83603 11.0988 1.83603 11.6663C1.83603 12.5382 1.8629 13.029 2.31842 13.4C2.56544 13.6011 2.97838 13.7975 3.68522 13.9405C4.38985 14.0832 5.35321 14.1663 6.66936 14.1663C7.98551 14.1663 8.94887 14.0832 9.6535 13.9405C10.3603 13.7975 10.7733 13.6011 11.0203 13.4C11.4758 13.029 11.5027 12.5382 11.5027 11.6663C11.5027 11.0988 11.0884 10.4831 10.1955 9.98081C9.31816 9.48733 8.07251 9.16634 6.66936 9.16634C5.26621 9.16634 4.02056 9.48733 3.14325 9.98081Z" fill="#4B4E4E"/>
<path fill-rule="evenodd" clip-rule="evenodd" d="M11.1295 4.9643C11.61 4.75169 12.1679 4.79199 12.6694 5.11893C13.1708 4.79199 13.7288 4.75169 14.2092 4.9643C14.7792 5.21656 15.1694 5.7992 15.1694 6.46616C15.1694 7.09841 14.8932 7.57434 14.5623 7.93507C14.3041 8.21659 13.9846 8.45435 13.7324 8.6421C13.6782 8.68243 13.6271 8.72046 13.5804 8.75611L13.579 8.75713C13.4799 8.83279 13.3517 8.93065 13.2165 9.00711C13.0805 9.08404 12.8923 9.16634 12.6694 9.16634C12.4465 9.16634 12.2582 9.08404 12.1222 9.00711C11.987 8.93064 11.8588 8.83279 11.7597 8.75714L11.7584 8.75611C11.7117 8.72048 11.6606 8.68249 11.6065 8.64219C11.3542 8.45444 11.0346 8.21659 10.7764 7.93507C10.4455 7.57434 10.1694 7.09841 10.1694 6.46616C10.1694 5.7992 10.5595 5.21656 11.1295 4.9643ZM11.1694 6.46616C11.1694 6.19151 11.3292 5.96946 11.5342 5.87876C11.7117 5.80021 11.9943 5.79217 12.3148 6.11455C12.4086 6.20895 12.5362 6.26203 12.6694 6.26203C12.8025 6.26203 12.9301 6.20895 13.0239 6.11455C13.3445 5.79217 13.627 5.80021 13.8045 5.87876C14.0095 5.96946 14.1694 6.19151 14.1694 6.46616C14.1694 6.77551 14.0436 7.02126 13.8254 7.25909C13.6374 7.46406 13.4131 7.63166 13.1652 7.81697C13.1028 7.86362 13.0389 7.9114 12.9737 7.96118C12.8653 8.04386 12.7903 8.09932 12.7241 8.13674C12.6974 8.15185 12.6796 8.15958 12.6694 8.16342C12.6591 8.15958 12.6413 8.15185 12.6146 8.13674C12.5485 8.09932 12.4734 8.04386 12.3651 7.96118C12.2998 7.91141 12.2359 7.86365 12.1735 7.817C11.9256 7.6317 11.7013 7.46406 11.5133 7.25909C11.2952 7.02126 11.1694 6.77551 11.1694 6.46616Z" fill="#4B4E4E"/>
<path fill-rule="evenodd" clip-rule="evenodd" d="M3.50269 3.99967C3.50269 2.25077 4.92046 0.833008 6.66936 0.833008C8.41826 0.833008 9.83603 2.25077 9.83603 3.99967C9.83603 5.74858 8.41826 7.16634 6.66936 7.16634C4.92046 7.16634 3.50269 5.74858 3.50269 3.99967ZM6.66936 1.83301C5.47274 1.83301 4.50269 2.80306 4.50269 3.99967C4.50269 5.19629 5.47274 6.16634 6.66936 6.16634C7.86598 6.16634 8.83603 5.19629 8.83603 3.99967C8.83603 2.80306 7.86598 1.83301 6.66936 1.83301Z" stroke="#4B4E4E" stroke-width="0.3"/>
<path fill-rule="evenodd" clip-rule="evenodd" d="M2.65299 9.10923C3.70598 8.51693 5.12699 8.16634 6.66936 8.16634C8.21173 8.16634 9.63274 8.51693 10.6857 9.10923C11.723 9.69272 12.5027 10.5771 12.5027 11.6663L12.5027 11.7343C12.5035 12.5089 12.5044 13.481 11.6518 14.1754C11.2321 14.5171 10.645 14.7601 9.85189 14.9206C9.05652 15.0816 8.01988 15.1663 6.66936 15.1663C5.31884 15.1663 4.2822 15.0816 3.48683 14.9206C2.69368 14.7601 2.10661 14.5171 1.68697 14.1754C0.834284 13.481 0.83523 12.5089 0.835983 11.7343L0.836027 11.6663C0.836027 10.5771 1.61568 9.69272 2.65299 9.10923ZM3.14325 9.98081C2.25028 10.4831 1.83603 11.0988 1.83603 11.6663C1.83603 12.5382 1.8629 13.029 2.31842 13.4C2.56544 13.6011 2.97838 13.7975 3.68522 13.9405C4.38985 14.0832 5.35321 14.1663 6.66936 14.1663C7.98551 14.1663 8.94887 14.0832 9.6535 13.9405C10.3603 13.7975 10.7733 13.6011 11.0203 13.4C11.4758 13.029 11.5027 12.5382 11.5027 11.6663C11.5027 11.0988 11.0884 10.4831 10.1955 9.98081C9.31816 9.48733 8.07251 9.16634 6.66936 9.16634C5.26621 9.16634 4.02056 9.48733 3.14325 9.98081Z" stroke="#4B4E4E" stroke-width="0.3"/>
<path fill-rule="evenodd" clip-rule="evenodd" d="M11.1295 4.9643C11.61 4.75169 12.1679 4.79199 12.6694 5.11893C13.1708 4.79199 13.7288 4.75169 14.2092 4.9643C14.7792 5.21656 15.1694 5.7992 15.1694 6.46616C15.1694 7.09841 14.8932 7.57434 14.5623 7.93507C14.3041 8.21659 13.9846 8.45435 13.7324 8.6421C13.6782 8.68243 13.6271 8.72046 13.5804 8.75611L13.579 8.75713C13.4799 8.83279 13.3517 8.93065 13.2165 9.00711C13.0805 9.08404 12.8923 9.16634 12.6694 9.16634C12.4465 9.16634 12.2582 9.08404 12.1222 9.00711C11.987 8.93064 11.8588 8.83279 11.7597 8.75714L11.7584 8.75611C11.7117 8.72048 11.6606 8.68249 11.6065 8.64219C11.3542 8.45444 11.0346 8.21659 10.7764 7.93507C10.4455 7.57434 10.1694 7.09841 10.1694 6.46616C10.1694 5.7992 10.5595 5.21656 11.1295 4.9643ZM11.1694 6.46616C11.1694 6.19151 11.3292 5.96946 11.5342 5.87876C11.7117 5.80021 11.9943 5.79217 12.3148 6.11455C12.4086 6.20895 12.5362 6.26203 12.6694 6.26203C12.8025 6.26203 12.9301 6.20895 13.0239 6.11455C13.3445 5.79217 13.627 5.80021 13.8045 5.87876C14.0095 5.96946 14.1694 6.19151 14.1694 6.46616C14.1694 6.77551 14.0436 7.02126 13.8254 7.25909C13.6374 7.46406 13.4131 7.63166 13.1652 7.81697C13.1028 7.86362 13.0389 7.9114 12.9737 7.96118C12.8653 8.04386 12.7903 8.09932 12.7241 8.13674C12.6974 8.15185 12.6796 8.15958 12.6694 8.16342C12.6591 8.15958 12.6413 8.15185 12.6146 8.13674C12.5485 8.09932 12.4734 8.04386 12.3651 7.96118C12.2998 7.91141 12.2359 7.86365 12.1735 7.817C11.9256 7.6317 11.7013 7.46406 11.5133 7.25909C11.2952 7.02126 11.1694 6.77551 11.1694 6.46616Z" stroke="#4B4E4E" stroke-width="0.3"/>
</g>
<defs>
<clipPath id="clip0_6816_8787">
<rect width="16" height="16" fill="white"/>
</clipPath>
</defs>
</svg>
