<svg width="40" height="40" viewBox="0 0 40 40" fill="none" xmlns="http://www.w3.org/2000/svg">
<g clip-path="url(#clip0_6781_28543)">
<path d="M26.8181 16.2715C27.2199 16.171 27.6271 16.4153 27.7276 16.8172C27.8281 17.219 27.5837 17.6262 27.1819 17.7267L23.1819 18.7267C22.7801 18.8271 22.3729 18.5828 22.2724 18.181C22.1719 17.7791 22.4163 17.3719 22.8181 17.2715L26.8181 16.2715Z" fill="#4B4E4E"/>
<path d="M26.8181 20.2715C27.2199 20.171 27.6271 20.4153 27.7276 20.8172C27.8281 21.219 27.5837 21.6262 27.1819 21.7267L23.1819 22.7267C22.7801 22.8271 22.3729 22.5828 22.2724 22.181C22.1719 21.7791 22.4163 21.3719 22.8181 21.2715L26.8181 20.2715Z" fill="#4B4E4E"/>
<path d="M12.2724 16.8172C12.3729 16.4153 12.7801 16.171 13.1819 16.2715L17.1819 17.2715C17.5837 17.3719 17.8281 17.7791 17.7276 18.181C17.6271 18.5828 17.2199 18.8271 16.8181 18.7267L12.8181 17.7267C12.4163 17.6262 12.1719 17.219 12.2724 16.8172Z" fill="#4B4E4E"/>
<path d="M12.2724 20.8172C12.3729 20.4153 12.7801 20.171 13.1819 20.2715L17.1819 21.2715C17.5837 21.3719 17.8281 21.7791 17.7276 22.181C17.6271 22.5828 17.2199 22.8271 16.8181 22.7267L12.8181 21.7267C12.4163 21.6262 12.1719 21.219 12.2724 20.8172Z" fill="#4B4E4E"/>
<path fill-rule="evenodd" clip-rule="evenodd" d="M30.75 12.9323C30.75 11.4689 29.5847 10.214 28.0559 10.2673C26.9175 10.3069 25.4296 10.4253 24.2849 10.768C23.2899 11.0659 22.1706 11.6477 21.2982 12.1527C20.4801 12.6261 19.4617 12.6498 18.6328 12.2115C17.6374 11.6851 16.3277 11.0612 15.1914 10.7613C14.2305 10.5078 13.0152 10.386 12.0284 10.3254C10.4702 10.2296 9.25 11.4977 9.25 12.9969V24.1426C9.25 25.6789 10.4938 26.8782 11.968 26.9704C12.9268 27.0304 14.0057 27.1457 14.8086 27.3576C15.8012 27.6195 17.0286 28.2019 18.0196 28.7301C19.2529 29.3876 20.7471 29.3876 21.9804 28.7301C22.9714 28.2019 24.1988 27.6195 25.1914 27.3576C25.9943 27.1457 27.0732 27.0304 28.032 26.9704C29.5062 26.8782 30.75 25.6789 30.75 24.1426V12.9323ZM28.1081 11.7664C28.7229 11.7449 29.25 12.2507 29.25 12.9323V24.1426C29.25 24.8284 28.6817 25.4268 27.9383 25.4733C26.9582 25.5346 25.7591 25.6564 24.8086 25.9072C23.6383 26.2161 22.2827 26.8692 21.2748 27.4065C21.1065 27.4961 20.9305 27.5668 20.75 27.6184V13.9411C21.2023 13.8506 21.6421 13.6867 22.0495 13.4509C22.9 12.9587 23.8949 12.4505 24.7151 12.205C25.6643 11.9208 26.9892 11.8053 28.1081 11.7664ZM19.25 13.974C18.795 13.9033 18.349 13.7582 17.9317 13.5375C16.9549 13.021 15.7708 12.4656 14.8086 12.2117C13.9964 11.9974 12.9024 11.8819 11.9364 11.8225C11.3024 11.7836 10.75 12.2997 10.75 12.9969V24.1426C10.75 24.8284 11.3183 25.4268 12.0617 25.4733C13.0418 25.5346 14.2409 25.6564 15.1914 25.9072C16.3617 26.2161 17.7173 26.8692 18.7252 27.4065C18.8935 27.4961 19.0695 27.5668 19.25 27.6184V13.974Z" fill="#4B4E4E"/>
<path d="M21.2982 12.1527C22.1706 11.6477 23.2899 11.0659 24.2849 10.768C25.4296 10.4253 26.9175 10.3069 28.0559 10.2673C29.5847 10.214 30.75 11.4689 30.75 12.9323V24.1426C30.75 25.6789 29.5062 26.8782 28.032 26.9704C27.0732 27.0304 25.9943 27.1457 25.1914 27.3576C24.1988 27.6195 22.9714 28.2019 21.9804 28.7301C20.7471 29.3876 19.2529 29.3876 18.0196 28.7301C17.0286 28.2019 15.8012 27.6195 14.8086 27.3576C14.0057 27.1457 12.9268 27.0304 11.968 26.9704C10.4938 26.8782 9.25 25.6789 9.25 24.1426V12.9969C9.25 11.4977 10.4702 10.2296 12.0284 10.3254C13.0152 10.386 14.2305 10.5078 15.1914 10.7613C16.3277 11.0612 17.6374 11.6851 18.6328 12.2115C19.4617 12.6498 20.4801 12.6261 21.2982 12.1527ZM21.2982 12.1527L21.6738 12.8018M29.25 12.9323C29.25 12.2507 28.7229 11.7449 28.1081 11.7664C26.9892 11.8053 25.6643 11.9208 24.7151 12.205C23.8949 12.4505 22.9 12.9587 22.0495 13.4509C21.6421 13.6867 21.2023 13.8506 20.75 13.9411V27.6184C20.9305 27.5668 21.1065 27.4961 21.2748 27.4065C22.2827 26.8692 23.6383 26.2161 24.8086 25.9072C25.7591 25.6564 26.9582 25.5346 27.9383 25.4733C28.6817 25.4268 29.25 24.8284 29.25 24.1426V12.9323ZM17.9317 13.5375C18.349 13.7582 18.795 13.9033 19.25 13.974V27.6184C19.0695 27.5668 18.8935 27.4961 18.7252 27.4065C17.7173 26.8692 16.3617 26.2161 15.1914 25.9072C14.2409 25.6564 13.0418 25.5346 12.0617 25.4733C11.3183 25.4268 10.75 24.8284 10.75 24.1426V12.9969C10.75 12.2997 11.3024 11.7836 11.9364 11.8225C12.9024 11.8819 13.9964 11.9974 14.8086 12.2117C15.7708 12.4656 16.9549 13.021 17.9317 13.5375ZM13.1819 16.2715C12.7801 16.171 12.3729 16.4153 12.2724 16.8172C12.1719 17.219 12.4163 17.6262 12.8181 17.7267L16.8181 18.7267C17.2199 18.8271 17.6271 18.5828 17.7276 18.181C17.8281 17.7791 17.5837 17.3719 17.1819 17.2715L13.1819 16.2715ZM27.7276 16.8172C27.6271 16.4153 27.2199 16.171 26.8181 16.2715L22.8181 17.2715C22.4163 17.3719 22.1719 17.7791 22.2724 18.181C22.3729 18.5828 22.7801 18.8271 23.1819 18.7267L27.1819 17.7267C27.5837 17.6262 27.8281 17.219 27.7276 16.8172ZM13.1819 20.2715C12.7801 20.171 12.3729 20.4153 12.2724 20.8172C12.1719 21.219 12.4163 21.6262 12.8181 21.7267L16.8181 22.7267C17.2199 22.8271 17.6271 22.5828 17.7276 22.181C17.8281 21.7791 17.5837 21.3719 17.1819 21.2715L13.1819 20.2715ZM27.7276 20.8172C27.6271 20.4153 27.2199 20.171 26.8181 20.2715L22.8181 21.2715C22.4163 21.3719 22.1719 21.7791 22.2724 22.181C22.3729 22.5828 22.7801 22.8271 23.1819 22.7267L27.1819 21.7267C27.5837 21.6262 27.8281 21.219 27.7276 20.8172Z" stroke="#4B4E4E" stroke-width="0.3" stroke-linecap="round"/>
</g>
<defs>
<clipPath id="clip0_6781_28543">
<rect width="40" height="40" rx="20" fill="white"/>
</clipPath>
</defs>
</svg>
