<svg width="18" height="18" viewBox="0 0 18 18" fill="none" xmlns="http://www.w3.org/2000/svg">
<path d="M15 8.25C15 4.93629 12.3137 2.25 9 2.25C5.68629 2.25 3 4.93629 3 8.25" stroke="#4B4E4E" stroke-width="1.4" stroke-linecap="round" stroke-linejoin="round"/>
<path d="M1.5 11.5796V10.172C1.5 9.48367 1.96844 8.88374 2.6362 8.71679L3.94086 8.39062C4.22488 8.31959 4.5 8.53439 4.5 8.82719V12.9244C4.5 13.2172 4.22488 13.432 3.94086 13.361L2.6362 13.0348C1.96844 12.8679 1.5 12.268 1.5 11.5796Z" stroke="#4B4E4E" stroke-width="1.4"/>
<path d="M16.5 11.5796V10.172C16.5 9.48367 16.0315 8.88374 15.3638 8.71679L14.0591 8.39062C13.7751 8.31959 13.5 8.53439 13.5 8.82719V12.9244C13.5 13.2172 13.7751 13.432 14.0591 13.361L15.3638 13.0348C16.0315 12.8679 16.5 12.268 16.5 11.5796Z" stroke="#4B4E4E" stroke-width="1.4"/>
<path d="M15 13.125V13.5C15 14.3284 14.3284 15 13.5 15H10.875" stroke="#4B4E4E" stroke-width="1.4"/>
<path d="M10.125 16.125H7.875C7.25368 16.125 6.75 15.6213 6.75 15C6.75 14.3787 7.25368 13.875 7.875 13.875H10.125C10.7463 13.875 11.25 14.3787 11.25 15C11.25 15.6213 10.7463 16.125 10.125 16.125Z" stroke="#4B4E4E" stroke-width="1.4"/>
</svg>
