<svg width="40" height="40" viewBox="0 0 40 40" fill="none" xmlns="http://www.w3.org/2000/svg">
<g clip-path="url(#clip0_6867_15925)">
<path fill-rule="evenodd" clip-rule="evenodd" d="M20 16.25C17.9289 16.25 16.25 17.9289 16.25 20C16.25 22.0711 17.9289 23.75 20 23.75C22.0711 23.75 23.75 22.0711 23.75 20C23.75 17.9289 22.0711 16.25 20 16.25ZM17.75 20C17.75 18.7574 18.7574 17.75 20 17.75C21.2426 17.75 22.25 18.7574 22.25 20C22.25 21.2426 21.2426 22.25 20 22.25C18.7574 22.25 17.75 21.2426 17.75 20Z" fill="#4B4E4E"/>
<path fill-rule="evenodd" clip-rule="evenodd" d="M20 9.25C19.2954 9.25 18.6519 9.44359 17.9486 9.77037C17.2681 10.0866 16.4804 10.553 15.4946 11.1369L14.7415 11.5828C13.7553 12.1668 12.9677 12.6332 12.3608 13.0794C11.7331 13.5408 11.2518 14.0131 10.9033 14.6321C10.5555 15.2501 10.3984 15.9109 10.3231 16.6951C10.25 17.4554 10.25 18.3865 10.25 19.556V20.444C10.25 21.6135 10.25 22.5446 10.3231 23.3049C10.3984 24.0891 10.5555 24.7499 10.9033 25.3679C11.2518 25.9869 11.7331 26.4592 12.3608 26.9206C12.9677 27.3668 13.7553 27.8332 14.7415 28.4172L15.4946 28.8632C16.4804 29.447 17.2681 29.9135 17.9486 30.2296C18.6519 30.5564 19.2954 30.75 20 30.75C20.7046 30.75 21.3481 30.5564 22.0514 30.2296C22.7319 29.9134 23.5196 29.447 24.5054 28.8632L25.2585 28.4172C26.2446 27.8332 27.0323 27.3668 27.6392 26.9206C28.2669 26.4592 28.7482 25.9869 29.0967 25.3679C29.4445 24.7499 29.6016 24.0891 29.6769 23.3049C29.75 22.5446 29.75 21.6135 29.75 20.4441V19.556C29.75 18.3866 29.75 17.4554 29.6769 16.6951C29.6016 15.9109 29.4445 15.2501 29.0967 14.6321C28.7482 14.0131 28.2669 13.5408 27.6392 13.0794C27.0323 12.6332 26.2447 12.1668 25.2585 11.5828L24.5054 11.1368C23.5196 10.553 22.7319 10.0866 22.0514 9.77037C21.3481 9.44359 20.7046 9.25 20 9.25ZM16.2252 12.4474C17.2524 11.8392 17.9761 11.4116 18.5807 11.1307C19.1702 10.8568 19.5907 10.75 20 10.75C20.4093 10.75 20.8298 10.8568 21.4193 11.1307C22.0239 11.4116 22.7476 11.8392 23.7748 12.4474L24.4609 12.8538C25.4879 13.462 26.2109 13.8911 26.7508 14.288C27.2767 14.6747 27.581 14.9975 27.7895 15.3679C27.9986 15.7393 28.1199 16.1739 28.1838 16.8386C28.2492 17.5188 28.25 18.378 28.25 19.5937V20.4063C28.25 21.622 28.2492 22.4812 28.1838 23.1614C28.1199 23.8261 27.9986 24.2607 27.7895 24.6321C27.581 25.0025 27.2767 25.3253 26.7508 25.712C26.2109 26.1089 25.4879 26.538 24.4609 27.1462L23.7748 27.5526C22.7476 28.1608 22.0239 28.5884 21.4193 28.8693C20.8298 29.1432 20.4093 29.25 20 29.25C19.5907 29.25 19.1702 29.1432 18.5807 28.8693C17.9761 28.5884 17.2524 28.1608 16.2252 27.5526L15.5391 27.1462C14.5121 26.538 13.7891 26.1089 13.2492 25.712C12.7233 25.3253 12.419 25.0025 12.2105 24.6321C12.0014 24.2607 11.8801 23.8261 11.8162 23.1614C11.7508 22.4812 11.75 21.622 11.75 20.4063V19.5937C11.75 18.378 11.7508 17.5188 11.8162 16.8386C11.8801 16.1739 12.0014 15.7393 12.2105 15.3679C12.419 14.9975 12.7233 14.6747 13.2492 14.288C13.7891 13.8911 14.5121 13.462 15.5391 12.8538L16.2252 12.4474Z" fill="#4B4E4E"/>
<path d="M16.2252 27.5526C17.2524 28.1608 17.9761 28.5884 18.5807 28.8693C19.1702 29.1432 19.5907 29.25 20 29.25C20.4093 29.25 20.8298 29.1432 21.4193 28.8693C22.0239 28.5884 22.7476 28.1608 23.7748 27.5526L24.4609 27.1462C25.4879 26.538 26.2109 26.1089 26.7508 25.712C27.2767 25.3253 27.581 25.0025 27.7895 24.6321C27.9986 24.2607 28.1199 23.8261 28.1838 23.1614C28.2492 22.4812 28.25 21.622 28.25 20.4063V19.5937C28.25 18.378 28.2492 17.5188 28.1838 16.8386C28.1199 16.1739 27.9986 15.7393 27.7895 15.3679C27.581 14.9975 27.2767 14.6747 26.7508 14.288C26.2109 13.8911 25.4879 13.462 24.4609 12.8538L23.7748 12.4474C22.7476 11.8392 22.0239 11.4116 21.4193 11.1307C20.8298 10.8568 20.4093 10.75 20 10.75C19.5907 10.75 19.1702 10.8568 18.5807 11.1307C17.9761 11.4116 17.2524 11.8392 16.2252 12.4474L15.5391 12.8538C14.5121 13.462 13.7891 13.8911 13.2492 14.288C12.7233 14.6747 12.419 14.9975 12.2105 15.3679C12.0014 15.7393 11.8801 16.1739 11.8162 16.8386C11.7508 17.5188 11.75 18.378 11.75 19.5937V20.4063C11.75 21.622 11.7508 22.4812 11.8162 23.1614C11.8801 23.8261 12.0014 24.2607 12.2105 24.6321C12.419 25.0025 12.7233 25.3253 13.2492 25.712C13.7891 26.1089 14.5121 26.538 15.5391 27.1462L16.2252 27.5526ZM16.2252 27.5526L15.8431 28.1979M17.9486 9.77037C18.6519 9.44359 19.2954 9.25 20 9.25C20.7046 9.25 21.3481 9.44359 22.0514 9.77037C22.7319 10.0866 23.5196 10.553 24.5054 11.1368L25.2585 11.5828C26.2447 12.1668 27.0323 12.6332 27.6392 13.0794C28.2669 13.5408 28.7482 14.0131 29.0967 14.6321C29.4445 15.2501 29.6016 15.9109 29.6769 16.6951C29.75 17.4554 29.75 18.3866 29.75 19.556V20.4441C29.75 21.6135 29.75 22.5446 29.6769 23.3049C29.6016 24.0891 29.4445 24.7499 29.0967 25.3679C28.7482 25.9869 28.2669 26.4592 27.6392 26.9206C27.0323 27.3668 26.2446 27.8332 25.2585 28.4172L24.5054 28.8632C23.5196 29.447 22.7319 29.9134 22.0514 30.2296C21.3481 30.5564 20.7046 30.75 20 30.75C19.2954 30.75 18.6519 30.5564 17.9486 30.2296C17.2681 29.9135 16.4804 29.447 15.4946 28.8632L14.7415 28.4172C13.7553 27.8332 12.9677 27.3668 12.3608 26.9206C11.7331 26.4592 11.2518 25.9869 10.9033 25.3679C10.5555 24.7499 10.3984 24.0891 10.3231 23.3049C10.25 22.5446 10.25 21.6135 10.25 20.444V19.556C10.25 18.3865 10.25 17.4554 10.3231 16.6951C10.3984 15.9109 10.5555 15.2501 10.9033 14.6321C11.2518 14.0131 11.7331 13.5408 12.3608 13.0794C12.9677 12.6332 13.7553 12.1668 14.7415 11.5828L15.4946 11.1369C16.4804 10.553 17.2681 10.0866 17.9486 9.77037ZM20 17.75C18.7574 17.75 17.75 18.7574 17.75 20C17.75 21.2426 18.7574 22.25 20 22.25C21.2426 22.25 22.25 21.2426 22.25 20C22.25 18.7574 21.2426 17.75 20 17.75ZM16.25 20C16.25 17.9289 17.9289 16.25 20 16.25C22.0711 16.25 23.75 17.9289 23.75 20C23.75 22.0711 22.0711 23.75 20 23.75C17.9289 23.75 16.25 22.0711 16.25 20Z" stroke="#4B4E4E" stroke-width="0.3"/>
</g>
<defs>
<clipPath id="clip0_6867_15925">
<rect width="40" height="40" rx="20" fill="white"/>
</clipPath>
</defs>
</svg>
