<svg width="40" height="40" viewBox="0 0 40 40" fill="none" xmlns="http://www.w3.org/2000/svg">
<g clip-path="url(#clip0_6867_6936)">
<path fill-rule="evenodd" clip-rule="evenodd" d="M17.9436 11.25H22.0564C23.8942 11.25 25.3498 11.25 26.489 11.4031C27.6614 11.5608 28.6104 11.8929 29.3588 12.6412C30.1071 13.3896 30.4392 14.3386 30.5969 15.511C30.6873 16.1838 30.7244 16.9671 30.7395 17.8743C30.7464 17.9152 30.75 17.9572 30.75 18C30.75 18.0353 30.7476 18.0699 30.7429 18.1039C30.75 18.6696 30.75 19.2818 30.75 19.9436V20.0564C30.75 21.8942 30.75 23.3498 30.5969 24.489C30.4392 25.6614 30.1071 26.6104 29.3588 27.3588C28.6104 28.1071 27.6614 28.4392 26.489 28.5969C25.3498 28.75 23.8942 28.75 22.0564 28.75H17.9436C16.1058 28.75 14.6502 28.75 13.511 28.5969C12.3386 28.4392 11.3896 28.1071 10.6412 27.3588C9.89288 26.6104 9.56076 25.6614 9.40314 24.489C9.24997 23.3498 9.24998 21.8942 9.25 20.0564V19.9436C9.24999 19.2818 9.24999 18.6696 9.25714 18.1039C9.25243 18.0699 9.25 18.0352 9.25 18C9.25 17.9572 9.25359 17.9152 9.26049 17.8743C9.27564 16.9671 9.31267 16.1838 9.40314 15.511C9.56076 14.3386 9.89288 13.3896 10.6412 12.6412C11.3896 11.8929 12.3386 11.5608 13.511 11.4031C14.6502 11.25 16.1058 11.25 17.9436 11.25ZM10.752 18.75C10.7501 19.1384 10.75 19.5541 10.75 20C10.75 21.9068 10.7516 23.2615 10.8898 24.2892C11.025 25.2952 11.2787 25.8749 11.7019 26.2981C12.1251 26.7213 12.7048 26.975 13.7108 27.1102C14.7385 27.2484 16.0932 27.25 18 27.25H22C23.9068 27.25 25.2615 27.2484 26.2892 27.1102C27.2952 26.975 27.8749 26.7213 28.2981 26.2981C28.7213 25.8749 28.975 25.2952 29.1102 24.2892C29.2484 23.2615 29.25 21.9068 29.25 20C29.25 19.5541 29.2499 19.1384 29.248 18.75H10.752ZM29.2239 17.25H10.7761C10.7956 16.6633 10.8299 16.1563 10.8898 15.7108C11.025 14.7048 11.2787 14.1251 11.7019 13.7019C12.1251 13.2787 12.7048 13.025 13.7108 12.8898C14.7385 12.7516 16.0932 12.75 18 12.75H22C23.9068 12.75 25.2615 12.7516 26.2892 12.8898C27.2952 13.025 27.8749 13.2787 28.2981 13.7019C28.7213 14.1251 28.975 14.7048 29.1102 15.7108C29.1701 16.1563 29.2044 16.6633 29.2239 17.25ZM13.25 24C13.25 23.5858 13.5858 23.25 14 23.25H18C18.4142 23.25 18.75 23.5858 18.75 24C18.75 24.4142 18.4142 24.75 18 24.75H14C13.5858 24.75 13.25 24.4142 13.25 24ZM19.75 24C19.75 23.5858 20.0858 23.25 20.5 23.25H22C22.4142 23.25 22.75 23.5858 22.75 24C22.75 24.4142 22.4142 24.75 22 24.75H20.5C20.0858 24.75 19.75 24.4142 19.75 24Z" fill="#4B4E4E" stroke="#4B4E4E" stroke-width="0.3" stroke-linecap="round"/>
</g>
<defs>
<clipPath id="clip0_6867_6936">
<rect width="40" height="40" rx="20" fill="white"/>
</clipPath>
</defs>
</svg>
