<svg width="281" height="280" viewBox="0 0 281 280" fill="none" xmlns="http://www.w3.org/2000/svg">
<path d="M231.46 185.572H246.289V179.306H231.46V185.572Z" fill="#EBEBEB"/>
<path d="M239.733 193.473L247.212 193.317L250.896 193.254C252.122 193.228 253.34 193.234 254.562 193.224L254.312 193.473L254.282 187.207L254.561 187.486L247.147 187.451C244.676 187.448 242.204 187.388 239.733 187.359L239.886 187.206C239.875 188.232 239.837 189.263 239.812 190.307L239.733 193.473ZM239.733 193.473L239.653 190.373C239.628 189.328 239.59 188.27 239.58 187.207L239.578 187.056L239.733 187.054C242.204 187.025 244.676 186.965 247.147 186.962L254.561 186.927L254.843 186.926L254.841 187.207L254.811 193.473L254.81 193.725L254.561 193.723C253.312 193.712 252.059 193.718 250.812 193.692L247.082 193.629L239.733 193.473Z" fill="#EBEBEB"/>
<path d="M130.514 131.926L137.993 131.77L141.678 131.707C142.903 131.681 144.121 131.687 145.343 131.677L145.094 131.926L145.063 125.66L145.343 125.939L137.928 125.904C135.457 125.901 132.985 125.841 130.514 125.812L130.667 125.659C130.656 126.685 130.619 127.716 130.593 128.76L130.514 131.926ZM130.514 131.926L130.434 128.826C130.409 127.781 130.372 126.723 130.361 125.66L130.359 125.509L130.514 125.507C132.985 125.479 135.457 125.418 137.928 125.415L145.343 125.38L145.624 125.379L145.623 125.66L145.593 131.926L145.591 132.178L145.343 132.176C144.093 132.166 142.84 132.172 141.594 132.145L137.863 132.083L130.514 131.926Z" fill="#EBEBEB"/>
<path d="M138.788 139.828H153.617V133.562H138.788V139.828Z" fill="#EBEBEB"/>
<path d="M122.115 139.827L129.595 139.671L133.279 139.608C134.504 139.582 135.723 139.587 136.945 139.577L136.695 139.827L136.665 133.56L136.944 133.84L129.53 133.805C127.059 133.802 124.587 133.741 122.115 133.713L122.268 133.56C122.258 134.585 122.22 135.617 122.195 136.66L122.115 139.827ZM122.115 139.827L122.036 136.727C122.011 135.681 121.973 134.624 121.963 133.56L121.961 133.409L122.115 133.408C124.587 133.379 127.059 133.318 129.53 133.316L136.944 133.28L137.225 133.279L137.224 133.56L137.194 139.827L137.193 140.078L136.944 140.077C135.694 140.066 134.442 140.072 133.195 140.046L129.465 139.983L122.115 139.827Z" fill="#EBEBEB"/>
<path d="M153.35 60.457H168.18V54.1906H153.35V60.457Z" fill="#EBEBEB"/>
<path d="M26.4671 193.473L33.9464 193.317L37.6307 193.254C38.8559 193.228 40.0745 193.234 41.2964 193.224L41.0467 193.473L41.0164 187.207L41.2959 187.486L33.8815 187.451C31.4102 187.448 28.9383 187.388 26.4671 187.359L26.6199 187.206C26.6093 188.232 26.5718 189.263 26.5466 190.307L26.4671 193.473ZM26.4671 193.473L26.3875 190.373C26.3623 189.328 26.3248 188.27 26.3142 187.207L26.3125 187.056L26.4671 187.054C28.9383 187.025 31.4102 186.965 33.8815 186.962L41.2959 186.927L41.577 186.926L41.5759 187.207L41.5456 193.473L41.5445 193.725L41.2959 193.723C40.0459 193.712 38.7932 193.718 37.5467 193.692L33.8165 193.629L26.4671 193.473Z" fill="#EBEBEB"/>
<path d="M34.7405 34.8327L42.2199 34.6764L45.9041 34.6137C47.1294 34.5874 48.3479 34.593 49.5699 34.5829L49.3201 34.8327L49.2899 28.5663L49.5693 28.8457L42.1549 28.8104C39.6836 28.8076 37.2118 28.7477 34.7405 28.7186L34.8934 28.5657C34.8827 29.5911 34.8452 30.6226 34.82 31.6659L34.7405 34.8327ZM34.7405 34.8327L34.661 31.7325C34.6358 30.687 34.5983 29.6297 34.5876 28.5663L34.5859 28.4151L34.7405 28.4134C37.2118 28.3848 39.6836 28.3244 42.1549 28.3216L49.5693 28.2863L49.8504 28.2852L49.8493 28.5663L49.8191 34.8327L49.8179 35.0841L49.5693 35.0824C48.3194 35.0724 47.0667 35.078 45.8201 35.0516L42.0899 34.9889L34.7405 34.8327Z" fill="#EBEBEB"/>
<path d="M26.4675 42.7344H41.2969V36.468H26.4675V42.7344Z" fill="#EBEBEB"/>
<path d="M239.733 34.8327L247.212 34.6764L250.896 34.6137C252.122 34.5874 253.34 34.593 254.562 34.5829L254.312 34.8327L254.282 28.5663L254.561 28.8457L247.147 28.8104C244.676 28.8076 242.204 28.7477 239.733 28.7186L239.886 28.5657C239.875 29.5911 239.837 30.6226 239.812 31.6659L239.733 34.8327ZM239.733 34.8327L239.653 31.7325C239.628 30.687 239.59 29.6297 239.58 28.5663L239.578 28.4151L239.733 28.4134C242.204 28.3848 244.676 28.3244 247.147 28.3216L254.561 28.2863L254.843 28.2852L254.841 28.5663L254.811 34.8327L254.81 35.0841L254.561 35.0824C253.312 35.0724 252.059 35.078 250.812 35.0516L247.082 34.9889L239.733 34.8327Z" fill="#EBEBEB"/>
<path d="M95.3138 213.793H55.0234V258.409H95.3138V213.793Z" fill="#EBEBEB"/>
<path d="M34.2194 258.412H55.0234L55.0234 213.794H34.2194L34.2194 258.412Z" fill="#DBDBDB"/>
<path d="M35.6484 255.338C37.189 252.165 38.7172 248.983 40.2287 245.79L44.7423 236.193L49.1982 226.554C50.676 223.336 52.1376 220.106 53.5864 216.867C52.0452 220.04 50.5176 223.222 49.0056 226.415L44.4925 236.012L40.0372 245.651C38.5588 248.87 37.0972 252.1 35.6484 255.338Z" fill="#EBEBEB"/>
<path d="M35.6484 216.867C37.0972 220.106 38.5588 223.336 40.0372 226.554L44.4925 236.193L49.0056 245.79C50.517 248.983 52.0447 252.165 53.5864 255.338C52.1376 252.098 50.676 248.868 49.1982 245.651L44.7423 236.012L40.2287 226.415C38.7172 223.222 37.189 220.04 35.6484 216.867Z" fill="#EBEBEB"/>
<path d="M95.3138 146.408H55.0234V187.951H95.3138V146.408Z" fill="#EBEBEB"/>
<path d="M34.2194 187.953H55.0234L55.0234 146.408H34.2194V187.953Z" fill="#DBDBDB"/>
<path d="M71.75 156.05H72.6023H73.2435L73.6092 155.308L74.1222 156.05L74.8182 154.522L75.4774 156.05H77.3634H78.2236L78.535 155.031L78.8278 156.05H79.3878V146.408H71.75V156.05Z" fill="#DBDBDB"/>
<path d="M35.6484 185.303C37.189 182.349 38.7172 179.386 40.2287 176.412L44.7423 167.477L49.1982 158.502C50.676 155.506 52.1376 152.499 53.5864 149.482C52.0452 152.436 50.5176 155.399 49.0056 158.372L44.4925 167.308L40.0372 176.283C38.5588 179.28 37.0972 182.287 35.6484 185.303Z" fill="#EBEBEB"/>
<path d="M35.6484 149.482C37.0972 152.498 38.5588 155.506 40.0372 158.502L44.4925 167.476L49.0056 176.412C50.517 179.386 52.0447 182.349 53.5864 185.302C52.1376 182.286 50.676 179.279 49.1982 176.282L44.7423 167.308L40.2287 158.372C38.7172 155.399 37.189 152.436 35.6484 149.482Z" fill="#EBEBEB"/>
<path d="M57.6757 185.371H62.1484V180.898H57.6757V185.371Z" fill="white"/>
<path d="M92.6263 187.953H52.3359V213.793H92.6263V187.953Z" fill="#DBDBDB"/>
<path d="M31.5319 213.793H52.3359V187.952H31.5319L31.5319 213.793Z" fill="#C7C7C7"/>
<path d="M69.0625 197.595H69.9148H70.556L70.9223 196.853L71.4347 197.595L72.1307 196.067L72.7899 197.595H74.6759H75.5361L75.8475 196.575L76.1403 197.595H76.7003V187.953H69.0625V197.595Z" fill="white"/>
<path d="M32.9609 212.255C34.5015 210.378 36.0297 208.495 37.5412 206.605L42.0548 200.926L46.5107 195.222C47.9885 193.318 49.4501 191.407 50.8989 189.49C49.3577 191.367 47.8301 193.251 46.3181 195.141L41.805 200.82L37.3497 206.523C35.8713 208.427 34.4102 210.338 32.9609 212.255Z" fill="#DBDBDB"/>
<path d="M32.9609 189.49C34.4097 191.407 35.8713 193.318 37.3497 195.222L41.805 200.926L46.3181 206.605C47.8295 208.495 49.3572 210.378 50.8989 212.255C49.4501 210.338 47.9885 208.427 46.5107 206.523L42.0548 200.819L37.5412 195.14C36.0297 193.251 34.5015 191.368 32.9609 189.49Z" fill="#DBDBDB"/>
<path d="M249.509 219.379H209.219V258.409H249.509V219.379Z" fill="#DBDBDB"/>
<path d="M188.415 258.41H209.219V219.379H188.415V258.41Z" fill="#C7C7C7"/>
<path d="M225.945 229.021H226.798H227.438L227.805 228.278L228.317 229.021L229.013 227.492L229.672 229.021H231.558H232.419L232.73 228.001L233.023 229.021H233.583V219.379H225.945V229.021Z" fill="white"/>
<path d="M189.844 256.088C191.384 253.252 192.913 250.408 194.424 247.553L198.938 238.975L203.394 230.36C204.871 227.484 206.333 224.597 207.782 221.701C206.241 224.537 204.713 227.381 203.201 230.236L198.688 238.814L194.232 247.429C192.754 250.305 191.292 253.193 189.844 256.088Z" fill="#DBDBDB"/>
<path d="M189.844 221.701C191.292 224.596 192.754 227.483 194.232 230.359L198.688 238.975L203.201 247.553C204.712 250.408 206.241 253.252 207.782 256.087C206.333 253.192 204.871 250.305 203.394 247.429L198.938 238.814L194.424 230.236C192.913 227.381 191.384 224.538 189.844 221.701Z" fill="#DBDBDB"/>
<path d="M179.445 26.293V121.549H244.999V26.293H179.445ZM242.58 119.13H181.865V28.7122H242.58V119.13Z" fill="#EBEBEB"/>
<path d="M242.582 28.7129H181.867V119.13H242.582V28.7129Z" fill="white"/>
<path d="M181.862 77.9277L242.578 77.9277V75.5097L181.862 75.5097V77.9277Z" fill="#EBEBEB"/>
<path d="M174.992 128.49H249.453V121.549L174.992 121.549V128.49Z" fill="#DBDBDB"/>
<path d="M176.969 131.266L247.483 132.743V128.488H176.969V131.266Z" fill="#EBEBEB"/>
<path d="M181.867 28.709H242.583V90.8315H181.867V28.709ZM240.343 30.949H184.107V88.5915H240.343V30.949Z" fill="#DBDBDB"/>
<path d="M223.201 28.709H221.992V88.5915H223.201V28.709Z" fill="#DBDBDB"/>
<path d="M202.451 28.709H201.242V88.5915H202.451V28.709Z" fill="#DBDBDB"/>
<path d="M36.0312 26.293V121.549H101.585V26.293H36.0312ZM99.1656 119.13H38.4504V28.7122H99.1656V119.13Z" fill="#EBEBEB"/>
<path d="M99.1683 28.7129H38.4531V119.13H99.1683V28.7129Z" fill="white"/>
<path d="M38.4483 77.9277L99.1641 77.9277V75.5097L38.4483 75.5097V77.9277Z" fill="#EBEBEB"/>
<path d="M31.5781 128.49H106.039V121.549L31.5781 121.549V128.49Z" fill="#DBDBDB"/>
<path d="M33.5547 131.266L104.069 132.743V128.488H33.5547V131.266Z" fill="#EBEBEB"/>
<path d="M38.4531 28.709H99.1689V90.8315H38.4531V28.709ZM96.9294 30.949H40.6931V88.5915H96.9294V30.949Z" fill="#DBDBDB"/>
<path d="M79.795 28.709H78.5859V88.5915H79.795V28.709Z" fill="#DBDBDB"/>
<path d="M59.0372 28.709H57.8281V88.5915H59.0372V28.709Z" fill="#DBDBDB"/>
<path d="M190.196 212.271H134.375V258.392H190.196V212.271Z" fill="#347B72"/>
<path opacity="0.1" d="M190.196 212.271H134.375V258.392H190.196V212.271Z" fill="black"/>
<path d="M212.313 212.271H190.195V258.394H212.313V212.271Z" fill="#347B72"/>
<path opacity="0.2" d="M212.313 212.271H190.195V258.394H212.313V212.271Z" fill="black"/>
<path d="M210.789 255.218C209.151 251.938 207.526 248.649 205.92 245.347L201.121 235.427L196.384 225.463C194.813 222.137 193.259 218.798 191.719 215.449C193.357 218.729 194.982 222.018 196.589 225.319L201.387 235.24L206.123 245.204C207.694 248.53 209.248 251.869 210.789 255.218Z" fill="#347B72"/>
<path d="M210.789 215.449C209.248 218.797 207.694 222.136 206.123 225.463L201.387 235.427L196.589 245.347C194.981 248.648 193.357 251.938 191.719 255.217C193.259 251.868 194.813 248.53 196.384 245.203L201.121 235.24L205.92 225.319C207.526 222.019 209.151 218.729 210.789 215.449Z" fill="#347B72"/>
<path d="M166.231 222.238H165.349H164.687L164.308 221.47L163.779 222.238L163.059 220.658L162.378 222.238H160.428H159.539L159.217 221.183L158.914 222.238H158.336V212.271H166.231V222.238Z" fill="white"/>
<path d="M193.561 166.15H151.914V212.269H193.561V166.15Z" fill="#347B72"/>
<path d="M215.067 166.15H193.562V212.27H215.067V166.15Z" fill="#347B72"/>
<path opacity="0.1" d="M215.067 166.15H193.562V212.27H215.067V166.15Z" fill="black"/>
<g opacity="0.1">
<path d="M190.507 209.094C187.449 205.814 184.415 202.525 181.415 199.224L172.455 189.304L163.61 179.341C160.676 176.015 157.774 172.677 154.898 169.328C157.958 172.607 160.991 175.896 163.991 179.198L172.95 189.117L181.794 199.08C184.73 202.408 187.631 205.747 190.507 209.094Z" fill="black"/>
<path d="M190.506 169.328C187.63 172.676 184.729 176.015 181.794 179.341L172.95 189.304L163.991 199.224C160.99 202.525 157.958 205.814 154.898 209.094C157.774 205.745 160.675 202.407 163.61 199.08L172.455 189.117L181.415 179.198C184.414 175.896 187.448 172.607 190.506 169.328Z" fill="black"/>
</g>
<path d="M212.041 204.467H208.273V209.787H212.041V204.467Z" fill="white"/>
<path d="M23.7266 258.41L52.9233 258.274L82.12 258.225L140.513 258.131L198.907 258.224L228.104 258.273L257.3 258.41L228.104 258.547L198.907 258.597L140.513 258.69L82.12 258.596L52.9233 258.546L23.7266 258.41Z" fill="#263238"/>
<path d="M161.93 98.7988C162.247 98.9909 162.563 99.1897 162.878 99.3947" stroke="#263238" stroke-width="0.75" stroke-miterlimit="10"/>
<path d="M164.744 100.689C174.873 108.183 182.762 121.808 173.933 135.122C168.733 142.964 159.918 139.735 156.878 136.924C153.521 133.82 156.61 130.641 159.963 132.766C165.777 136.449 166.594 144.973 160.153 151.275C155.955 155.381 150.497 155.638 147.492 155.397" stroke="#263238" stroke-width="0.75" stroke-miterlimit="10" stroke-dasharray="4.05 4.05"/>
<path d="M146.367 155.273C145.67 155.174 145.266 155.074 145.266 155.074" stroke="#263238" stroke-width="0.75" stroke-miterlimit="10"/>
<path d="M140.691 154.645C140.427 156.904 145.002 158.139 145.347 155.189C145.691 152.239 140.954 152.387 140.691 154.645Z" fill="#263238"/>
<path d="M146.698 158.35C146.272 159.198 144.768 159.313 143.211 158.231C141.654 157.15 140.578 155.276 140.578 155.276C140.578 155.276 142.725 155.017 144.523 155.62C146.321 156.222 147.127 157.497 146.698 158.35Z" fill="#EBEBEB"/>
<path d="M140.578 155.275C141.462 155.672 142.328 156.104 143.196 156.533C144.059 156.972 144.922 157.409 145.768 157.882C144.884 157.485 144.018 157.053 143.15 156.624C142.288 156.185 141.424 155.748 140.578 155.275Z" fill="#263238"/>
<path d="M144.645 158.334C144.442 158.103 144.272 157.851 144.1 157.6C143.937 157.343 143.772 157.088 143.641 156.811C143.844 157.041 144.013 157.293 144.186 157.544C144.347 157.801 144.513 158.057 144.645 158.334Z" fill="#263238"/>
<path d="M142.75 156.369C143.06 156.282 143.375 156.233 143.69 156.181C144.006 156.142 144.322 156.099 144.644 156.096C144.334 156.184 144.019 156.232 143.704 156.283C143.388 156.323 143.072 156.365 142.75 156.369Z" fill="#263238"/>
<path d="M142.274 156.737C142.168 156.62 142.098 156.486 142.025 156.353C141.962 156.215 141.897 156.078 141.867 155.924C141.973 156.04 142.043 156.175 142.116 156.307C142.179 156.446 142.244 156.582 142.274 156.737Z" fill="#263238"/>
<path d="M147.422 152.489C147.203 151.565 145.766 151.106 144.001 151.8C142.237 152.494 140.758 154.068 140.758 154.068C140.758 154.068 142.787 154.816 144.676 154.644C146.564 154.472 147.642 153.417 147.422 152.489Z" fill="#EBEBEB"/>
<path d="M140.758 154.068C141.709 153.886 142.652 153.665 143.595 153.448C144.536 153.219 145.477 152.993 146.409 152.729C145.457 152.91 144.515 153.131 143.571 153.348C142.631 153.577 141.69 153.804 140.758 154.068Z" fill="#263238"/>
<path d="M145.422 152.029C145.172 152.207 144.948 152.413 144.723 152.617C144.505 152.83 144.286 153.041 144.094 153.28C144.345 153.102 144.568 152.896 144.793 152.692C145.01 152.479 145.23 152.268 145.422 152.029Z" fill="#263238"/>
<path d="M143.125 153.506C143.406 153.662 143.702 153.782 143.996 153.905C144.295 154.016 144.593 154.131 144.905 154.208C144.624 154.051 144.328 153.932 144.034 153.809C143.735 153.698 143.437 153.584 143.125 153.506Z" fill="#263238"/>
<path d="M142.747 153.037C142.618 153.126 142.518 153.24 142.416 153.353C142.324 153.473 142.228 153.591 142.164 153.735C142.294 153.646 142.393 153.532 142.495 153.419C142.587 153.299 142.682 153.18 142.747 153.037Z" fill="#263238"/>
<path d="M140.689 154.644C141.139 154.697 141.461 155.104 141.409 155.554C141.356 156.004 140.949 156.326 140.499 156.274C140.049 156.221 139.727 155.814 139.779 155.364C139.832 154.914 140.239 154.592 140.689 154.644Z" fill="#455A64"/>
<path d="M140.876 153.015C141.326 153.068 141.649 153.475 141.596 153.925C141.543 154.376 141.136 154.697 140.686 154.645C140.236 154.592 139.914 154.185 139.966 153.735C140.019 153.285 140.427 152.963 140.876 153.015Z" fill="#455A64"/>
<path d="M90.1006 207.373C90.1006 207.373 78.1794 231.282 78.1749 231.3C77.1882 236.238 76.412 240.585 76.2199 242.871C76.2171 242.883 76.2143 242.896 76.2177 242.908C76.1443 243.771 76.1555 244.333 76.2771 244.507C76.286 244.521 76.2894 244.535 76.3 244.544C77.5712 245.833 116.806 254.866 118.28 254.72C119.759 254.582 119.456 250.361 118.213 248.796C116.958 247.228 103.489 237.052 103.489 237.052L115.163 213.107L90.1006 207.373Z" fill="#D3766A"/>
<path d="M117.686 254.721C116.213 254.864 77.5694 245.83 76.3021 244.544C76.2898 244.532 76.2837 244.519 76.2775 244.506C76.1532 244.332 76.147 243.767 76.2153 242.91C76.2153 242.891 76.2153 242.885 76.2215 242.873C76.4141 240.586 77.1909 236.237 78.1725 231.298C78.1725 231.292 79.7041 228.232 81.0274 225.572L105.777 232.361L103.491 237.051C103.491 237.051 116.369 247.229 117.618 248.794C118.867 250.36 119.165 254.578 117.686 254.721Z" fill="#EBEBEB"/>
<path d="M118.218 254.093C116.726 254.206 77.3985 244.18 76.1453 242.846C75.6597 242.348 76.787 236.532 78.3505 229.545C78.3679 229.472 78.3847 229.399 78.4015 229.326L103.846 235.511L103.726 235.94C103.726 235.94 117.063 246.51 118.288 248.122C119.502 249.725 119.709 253.986 118.218 254.093Z" fill="#263238"/>
<path d="M118.158 252.454C111.571 250.601 84.8238 243.749 78.171 242.418C78.1167 242.407 78.1072 242.444 78.1604 242.459C84.6502 244.438 111.451 251.073 118.131 252.562C118.272 252.594 118.297 252.493 118.158 252.454Z" fill="white"/>
<path d="M105.836 236.558C103.351 235.406 100.059 234.993 97.5911 236.344C97.4954 236.396 97.5715 236.531 97.6628 236.526C100.444 236.371 102.98 236.463 105.742 236.885C105.936 236.915 106.014 236.641 105.836 236.558Z" fill="white"/>
<path d="M107.43 238.173C104.945 237.021 101.652 236.609 99.1849 237.959C99.0891 238.011 99.1653 238.146 99.2566 238.141C102.038 237.986 104.574 238.078 107.335 238.5C107.53 238.53 107.608 238.256 107.43 238.173Z" fill="white"/>
<path d="M109.024 239.789C106.539 238.637 103.246 238.224 100.779 239.574C100.683 239.626 100.759 239.761 100.85 239.756C103.631 239.601 106.168 239.693 108.929 240.115C109.124 240.145 109.201 239.871 109.024 239.789Z" fill="white"/>
<path d="M119.178 252.836C119.813 253.287 119.058 255.612 118.501 255.672C117.945 255.732 75.1125 244.61 74.4254 244.261C73.7377 243.912 74.6729 241.365 75.5533 241.447C76.4336 241.528 119.178 252.836 119.178 252.836Z" fill="#347B72"/>
<path d="M83.7705 235.386C81.283 233.233 77.9336 237.096 80.4251 239.252C82.9131 241.405 86.2625 237.542 83.7705 235.386Z" fill="white"/>
<path d="M81.1094 223.662L109.802 230.898C109.802 230.898 136.549 182.63 135.95 170.363C135.124 153.421 115.254 101.402 115.254 101.402H91.4671C91.4671 101.402 107.256 157.655 107.46 167.119C107.567 172.069 81.1094 223.662 81.1094 223.662Z" fill="#455A64"/>
<path d="M111.033 225.077C109.504 224.466 95.8445 220.522 85.6564 218.369C85.5881 218.354 85.5691 218.45 85.6324 218.473C88.8423 219.607 109.089 224.929 110.99 225.191C111.053 225.2 111.102 225.105 111.033 225.077Z" fill="#263238"/>
<path d="M109.449 155.037C107.558 147.096 105.562 139.178 103.403 131.306C101.236 123.398 98.9945 115.502 96.4947 107.692C96.1895 106.738 95.8742 105.787 95.5617 104.836C95.5135 104.689 95.289 104.756 95.3321 104.905C97.5581 112.68 99.8233 120.444 101.938 128.25C104.052 136.055 106.081 143.885 107.987 151.744C108.459 153.69 108.924 155.637 109.381 157.587C109.854 159.599 110.362 161.617 110.597 163.674C110.823 165.651 110.71 167.61 110.204 169.535C109.707 171.426 108.906 173.216 108.091 174.987C104.659 182.436 101.218 189.88 97.8017 197.337C94.3784 204.809 93.8207 206.509 90.5391 214.045C90.1319 214.979 89.7243 215.913 89.3328 216.854C89.3071 216.916 89.3944 216.969 89.4263 216.906C93.1783 209.524 93.7574 207.745 97.2406 200.235C100.745 192.677 104.241 185.116 107.72 177.547C109.289 174.133 111.132 170.649 111.367 166.829C111.61 162.859 110.36 158.86 109.449 155.037Z" fill="#263238"/>
<path d="M110.75 216.829C110.75 216.829 111.671 243.146 111.671 243.164C111.82 248.198 112.041 252.608 112.368 254.879C112.368 254.892 112.368 254.904 112.374 254.916C112.497 255.773 112.634 256.319 112.792 256.46C112.804 256.473 112.81 256.485 112.822 256.491C114.35 257.462 154.612 257.438 156.015 256.965C157.425 256.497 156.18 252.453 154.617 251.208C153.042 249.962 137.629 243.076 137.629 243.076L136.458 216.779L110.75 216.829Z" fill="#D3766A"/>
<path d="M111.477 237.761C111.477 237.761 111.665 243.145 111.665 243.164C111.815 248.197 112.036 252.607 112.363 254.879C112.363 254.891 112.363 254.903 112.369 254.916C112.541 255.761 112.69 256.318 112.786 256.46C112.799 256.472 112.805 256.484 112.817 256.49C114.345 257.461 154.607 257.437 156.01 256.964C157.42 256.497 156.175 252.452 154.612 251.207C153.036 249.961 137.624 243.076 137.624 243.076L137.507 237.59L111.477 237.761Z" fill="#EBEBEB"/>
<path d="M156.03 256.914C154.606 257.37 114.025 256.74 112.496 255.734C111.909 255.361 111.655 249.443 111.555 242.283C111.555 242.208 111.555 242.134 111.555 242.059L137.74 242.172L137.723 242.616C137.723 242.616 153.149 249.805 154.714 251.089C156.266 252.368 157.456 256.465 156.03 256.914Z" fill="#263238"/>
<path d="M155.602 255.334C148.764 255.06 121.158 254.6 114.378 254.849C114.322 254.851 114.322 254.888 114.377 254.892C121.149 255.311 148.758 255.548 155.601 255.446C155.745 255.444 155.746 255.34 155.602 255.334Z" fill="white"/>
<path d="M139.927 242.731C137.243 242.186 133.944 242.549 131.857 244.435C131.776 244.507 131.881 244.621 131.969 244.595C134.638 243.8 137.126 243.301 139.911 243.07C140.107 243.054 140.119 242.769 139.927 242.731Z" fill="white"/>
<path d="M141.849 243.932C139.165 243.387 135.866 243.75 133.779 245.636C133.698 245.709 133.804 245.823 133.89 245.797C136.559 245.001 139.048 244.502 141.832 244.272C142.029 244.255 142.041 243.97 141.849 243.932Z" fill="white"/>
<path d="M143.778 245.133C141.094 244.589 137.795 244.951 135.709 246.837C135.628 246.91 135.733 247.023 135.821 246.998C138.49 246.202 140.978 245.703 143.763 245.473C143.958 245.457 143.97 245.172 143.778 245.133Z" fill="white"/>
<path d="M156.675 255.468C157.398 255.759 157.203 258.196 156.675 258.384C156.148 258.571 111.904 257.689 111.154 257.509C110.405 257.329 110.723 254.635 111.599 254.51C112.474 254.385 156.675 255.468 156.675 255.468Z" fill="#347B72"/>
<path d="M118.188 246.709C115.268 245.192 112.906 249.726 115.831 251.245C118.75 252.762 121.112 248.228 118.188 246.709Z" fill="white"/>
<path d="M114.965 101.379C114.965 101.379 114.965 101.385 114.959 101.404C114.855 101.892 108.923 125.337 108.183 125.778C107.346 126.273 129.732 156.396 132.389 171.184C134.088 180.642 137.959 235.774 137.959 235.774H109.445C109.445 235.774 106.651 188.957 105.714 173.526C105.351 167.542 82.8915 139.864 80.7607 121.415C80.0887 115.6 84.2657 101.379 84.2657 101.379H114.965Z" fill="#455A64"/>
<path d="M108.728 213.453C108.389 205.695 108.08 197.924 107.515 190.179C107.194 185.791 106.569 181.542 106.132 177.163C106.109 176.934 105.924 176.88 105.93 177.116C106.133 184.907 106.774 192.611 107.192 200.393C107.609 208.152 108.003 209.992 108.443 217.749C108.692 222.14 108.908 226.532 109.25 230.916C109.255 230.984 109.356 230.982 109.356 230.913C109.374 223.122 109.068 221.235 108.728 213.453Z" fill="#263238"/>
<path d="M132.426 171.512C132.154 169.47 131.809 167.429 131.234 165.448C130.672 163.51 129.851 161.663 128.921 159.876C126.98 156.145 124.766 152.538 122.634 148.913C120.474 145.241 118.279 141.59 116.027 137.974C114.761 135.941 113.49 133.912 112.21 131.887C110.916 129.839 109.543 127.838 108.201 125.821C108.148 125.741 108.025 125.817 108.074 125.9C110.257 129.559 112.418 133.231 114.602 136.891C116.785 140.55 118.937 144.227 121.091 147.904C123.209 151.52 125.331 155.139 127.354 158.809C128.324 160.568 129.245 162.359 129.925 164.253C130.622 166.194 131.04 168.218 131.366 170.251C132.125 174.992 132.747 179.763 133.703 184.471C133.715 184.53 133.812 184.514 133.808 184.454C133.509 180.133 132.997 175.806 132.426 171.512Z" fill="#263238"/>
<path d="M135.468 230.836C133.835 230.624 121.4 230.195 110.996 230.639C110.926 230.642 110.931 230.74 110.998 230.745C114.389 231.046 133.547 231.175 135.454 230.957C135.517 230.95 135.542 230.846 135.468 230.836Z" fill="#263238"/>
<path d="M111.918 124.126C109.002 125.129 106.188 126.554 103.497 128.047C103.392 128.106 103.461 128.27 103.576 128.22C106.412 127.002 109.305 125.836 112.071 124.464C112.288 124.356 112.141 124.048 111.918 124.126Z" fill="#263238"/>
<path d="M112.771 104.697C112.763 104.599 112.591 104.577 112.592 104.683C112.615 108.051 112.4 111.014 112.116 114.161C111.984 115.622 110.809 123.696 108.275 123.108C107.851 123.009 107.634 122.592 107.567 121.952C107.487 121.183 107.777 120.24 107.904 119.476C108.185 117.786 108.411 116.089 108.556 114.382C108.827 111.194 108.841 108.007 108.453 104.829C108.44 104.725 108.29 104.733 108.29 104.838C108.294 109.251 108.178 113.655 107.518 118.025C107.201 120.125 106.143 123.287 108.34 123.61C110.577 123.939 112.024 118.643 112.297 117.194C113.06 113.153 113.09 108.788 112.771 104.697Z" fill="#263238"/>
<path d="M108.347 123.326C108.118 123.868 107.934 124.432 107.777 124.999C107.656 125.44 107.49 125.916 107.541 126.375C107.55 126.464 107.668 126.473 107.716 126.413C108.013 126.036 108.139 125.521 108.304 125.074C108.497 124.556 108.701 124.042 108.879 123.519C108.997 123.172 108.488 122.991 108.347 123.326Z" fill="#263238"/>
<path d="M109.533 181.005C109.269 177.022 109.283 172.814 107.589 169.116C106.749 167.282 105.588 165.624 104.485 163.943C103.326 162.176 102.185 160.396 101.059 158.608C96.5562 151.455 92.2565 144.161 88.3169 136.681C86.4196 133.08 84.6724 129.362 83.7193 125.387C82.7214 121.227 82.6822 116.871 83.2013 112.641C83.3312 111.584 83.4757 110.53 83.6538 109.479C83.6666 109.403 83.5513 109.372 83.5345 109.45C82.6794 113.495 82.2308 117.654 82.5976 121.785C82.951 125.766 84.2177 129.536 85.8854 133.147C87.6225 136.906 89.6878 140.524 91.7251 144.127C93.8251 147.842 95.9866 151.521 98.2154 155.16C100.433 158.781 102.765 162.325 105.078 165.884C106.197 167.607 107.238 169.381 107.806 171.37C108.384 173.394 108.541 175.503 108.676 177.594C109.247 186.41 111.485 215.713 112.271 224.484C112.371 225.597 112.471 226.71 112.574 227.823C112.583 227.921 112.732 227.92 112.728 227.82C112.389 219.025 110.115 189.793 109.533 181.005Z" fill="#263238"/>
<path d="M95.8324 109.086C95.8218 109.024 95.7299 109.046 95.7282 109.103C95.6465 111.553 95.7154 114.079 94.7734 116.391C93.9088 118.513 92.1745 120.001 90.2318 121.118C89.109 121.763 87.9274 122.303 86.7442 122.826C86.659 122.864 86.6926 122.999 86.7873 122.969C89.0474 122.253 91.3401 121.474 93.2144 119.971C95.2214 118.363 96.0984 116.027 96.1975 113.503C96.2546 112.02 96.081 110.545 95.8324 109.086Z" fill="#263238"/>
<path d="M108.263 69.1988C111.461 79.0335 120.116 95.7836 123.208 97.8024C125.946 99.5905 138.833 97.5941 144.468 96.2344C146.577 95.726 141.836 79.6741 139.593 80.2632C136.901 80.97 128.874 82.776 128.29 82.333C127.649 81.8469 119.618 71.9142 113.881 66.0482C108.681 60.7304 107.053 65.4787 108.263 69.1988Z" fill="#D3766A"/>
<path d="M143.248 96.3594C144.329 96.2222 153.474 95.8083 157.67 93.5185C159.892 92.3061 165.623 88.2836 165.055 86.8399C164.536 85.5217 162.694 86.2379 162.694 86.2379C162.694 86.2379 165.223 84.4073 164.48 82.5834C163.737 80.7594 160.693 82.1286 160.693 82.1286C160.693 82.1286 163.153 80.0595 162.282 78.2932C161.411 76.527 158.58 78.4164 158.58 78.4164C158.58 78.4164 160.917 76.6295 159.587 75.4764C157.987 74.0893 154.05 77.871 151.392 78.7586C150.788 78.9602 138.867 81.9724 138.867 81.9724L143.248 96.3594Z" fill="#D3766A"/>
<path d="M158.478 78.3641C155.575 81.1384 153.826 81.8501 149.952 82.6341C149.876 82.6492 149.882 82.7657 149.963 82.7568C153.826 82.334 156.149 81.7577 158.62 78.4974C158.74 78.3384 158.616 78.2325 158.478 78.3641Z" fill="#263238"/>
<path d="M160.593 82.0625C157.327 84.6805 155.436 85.4695 151.44 86.589C151.383 86.6047 151.404 86.7021 151.463 86.6909C155.475 85.9203 157.78 85.292 160.7 82.2479C160.832 82.1101 160.743 81.9427 160.593 82.0625Z" fill="#263238"/>
<path d="M162.498 86.2878C159.153 88.5944 157.117 89.5487 153.097 90.1378C153.002 90.1518 153.013 90.2912 153.11 90.2867C157.267 90.0846 159.816 88.9131 162.557 86.3975C162.743 86.2251 162.708 86.1422 162.498 86.2878Z" fill="#263238"/>
<path d="M135.742 82.4883C135.742 82.4883 139.073 78.7184 140.901 77.3844C142.73 76.0511 151.373 73.5893 152.011 75.4261C152.834 77.7977 148.125 80.2018 145.664 81.0776C145.664 81.0776 147.574 86.5612 144.567 89.0179C141.559 91.4746 135.742 82.4883 135.742 82.4883Z" fill="#D3766A"/>
<path d="M152.025 76.1523C151.216 78.8566 147.912 79.7979 145.589 80.8261C145.412 80.9045 145.413 81.0736 145.499 81.1973C146.146 83.5493 146.374 87.0555 144.726 89.034C144.678 89.0917 144.754 89.1684 144.81 89.1169C146.865 87.2342 146.923 83.7717 146.049 81.241C148.448 80.2241 151.721 79.1343 152.052 76.159C152.053 76.1422 152.03 76.1355 152.025 76.1523Z" fill="#263238"/>
<path d="M143.242 99.1272L139.016 79.8962L128.568 81.7924C124.45 77.0721 116.21 67.6361 112.871 64.8008C108.954 61.4739 106.388 63.9765 107.826 69.0109C111.113 80.5262 120.659 97.4136 123.177 99.0342C126.783 101.355 143.242 99.1272 143.242 99.1272Z" fill="#347B72"/>
<path opacity="0.1" d="M128.319 87.6394C128.802 87.8085 129.389 87.7547 129.893 87.8242C130.998 87.9759 131.505 89.6262 130.489 90.2523C129.395 90.9249 128.082 91.0307 126.877 90.5614C125.753 90.1235 124.812 89.0382 125.052 87.7738C125.263 86.665 126.409 86.348 127.289 86.9091C127.648 87.1382 127.911 87.4966 128.319 87.6394ZM125.43 83.0625C125.027 84.9698 127.969 86.6011 129.477 85.587C130.018 85.2241 129.999 84.3947 129.515 84.001C129.076 83.6438 128.705 83.5883 128.313 83.2635C128.121 83.105 128.161 83.137 127.956 82.8878C127.701 82.5775 127.483 82.3429 127.12 82.1413C126.392 81.7364 125.579 82.358 125.43 83.0625ZM120.729 83.1638C120.123 83.9518 120.581 85.1412 121.112 85.8569C121.637 86.5642 122.417 87.0217 123.314 86.9265C123.989 86.8548 124.29 85.9146 123.729 85.4946C123.378 85.2319 123.106 84.8786 122.945 84.5162C122.682 83.9254 122.504 83.1588 121.842 82.8984C121.461 82.7483 120.99 82.8262 120.729 83.1638ZM133.134 95.6171C132.346 97.2154 134.748 99.0286 136.206 98.7139C136.692 98.6086 137.163 97.9686 136.729 97.5105C136.381 97.1437 135.967 96.8486 135.643 96.4582C135.247 95.9822 135.03 95.3696 134.407 95.1316C133.907 94.9406 133.375 95.1282 133.134 95.6171ZM110.578 76.0462C110.443 75.7942 110.259 75.5478 110.029 75.3686C110.343 76.1694 110.673 76.9758 111.02 77.7822C111.087 77.1942 110.824 76.5278 110.578 76.0462ZM113.694 74.359C113.655 72.9774 112.984 71.6738 112.151 70.6014C111.479 69.7373 110.317 68.3474 109.084 68.6576C108.793 68.731 108.659 69.0031 108.637 69.2747C108.558 70.2211 109.645 71.2381 110.111 71.9913C110.702 72.945 111.117 73.9983 111.721 74.9408C112.288 75.8278 113.725 75.4414 113.694 74.359ZM113.331 80.3823C113.776 80.3493 114.168 80.0547 114.274 79.6101C114.381 79.1643 114.314 78.7393 114.19 78.3047C114.088 77.948 113.906 77.4759 113.605 77.2362C113.148 76.8745 112.446 76.9988 112.296 77.6226C112.221 77.9385 112.277 78.2874 112.285 78.6099C112.288 78.7522 112.281 78.8933 112.273 79.0355C112.262 79.2506 112.305 79.4544 112.341 79.6661C112.411 80.081 112.928 80.4126 113.331 80.3823Z" fill="#030402"/>
<path d="M139.588 97.4398C139.107 96.3035 137.924 91.3453 137.643 90.1071C137.368 88.8942 136.403 83.8642 136.119 82.5914C136.103 82.5219 136.198 82.4794 136.215 82.5499C136.518 83.8049 137.87 88.7413 138.163 89.9761C138.456 91.2148 139.576 96.173 139.652 97.4224C139.654 97.465 139.603 97.4762 139.588 97.4398Z" fill="#263238"/>
<path opacity="0.1" d="M129.888 100.083C126.95 100.067 124.37 99.8004 123.178 99.0327C120.659 97.4109 111.114 80.5247 107.827 69.01C107 66.1204 107.495 64.0635 108.806 63.4648L129.888 100.083Z" fill="black"/>
<path d="M82.4899 103.998C82.5605 104.102 117.505 108.585 117.879 108.261C118.017 108.141 118.302 105.312 118.302 105.312C118.302 105.312 115.099 67.2664 113.441 65.0353C111.99 63.0837 107.591 61.6759 104.594 62.9465C98.3043 65.6121 83.2459 99.6047 83.4083 101.006C83.4083 101.005 82.4009 103.864 82.4899 103.998Z" fill="#347B72"/>
<path opacity="0.1" d="M95.0835 99.3662C95.5657 99.6821 96.222 99.7829 96.7529 99.9945C97.9188 100.46 98.0257 102.4 96.7456 102.809C95.3691 103.248 93.9058 103.007 92.7164 102.168C91.6065 101.384 90.8734 99.9441 91.4782 98.6281C92.0085 97.474 93.3469 97.4381 94.1561 98.2899C94.4865 98.6371 94.6775 99.1002 95.0835 99.3662ZM93.1683 93.5831C92.2113 95.5577 94.9838 98.137 96.9057 97.4381C97.5945 97.1878 97.7984 96.2773 97.3773 95.7161C96.9942 95.2065 96.6033 95.0458 96.2634 94.5844C96.0971 94.3593 96.1318 94.4052 95.9756 94.077C95.7813 93.6693 95.6054 93.3535 95.2649 93.0354C94.5789 92.3953 93.5217 92.8534 93.1683 93.5831ZM89.9343 91.4775C88.886 91.8689 88.6155 93.2779 88.6973 94.2786C88.7773 95.2665 89.2505 96.1681 90.1639 96.611C90.8516 96.9442 91.6983 96.2252 91.4127 95.4899C91.2341 95.0307 91.1848 94.5306 91.2458 94.0888C91.3461 93.3675 91.6322 92.5292 91.1545 91.8863C90.8807 91.5156 90.3845 91.3089 89.9343 91.4775ZM101.414 98.1409C100.862 98.0693 100.345 98.4797 100.269 99.028C100.188 99.6188 100.592 100.139 101.139 100.322C101.549 100.459 101.902 100.444 102.313 100.328C102.507 100.273 102.67 100.088 102.767 99.9229C102.87 99.7453 102.934 99.5258 102.897 99.3175C102.828 98.9345 102.532 98.5705 102.131 98.5083C102.095 98.4669 102.056 98.426 102.006 98.3868C101.834 98.249 101.633 98.1695 101.414 98.1409ZM92.8261 84.627C91.8898 85.5913 92.2902 87.7804 93.3419 88.5168C93.9501 88.9424 94.8371 88.6417 94.9357 87.8616C94.9687 87.6029 94.953 87.4489 94.948 87.198C94.9429 86.9577 94.9194 86.8026 94.9273 86.6626C94.9536 86.1939 95.0846 85.6709 94.9771 85.2117C94.7279 84.151 93.5732 83.8576 92.8261 84.627ZM86.7574 98.5374C85.4633 100.07 87.5963 102.702 89.2741 102.753C89.8341 102.77 90.5217 102.198 90.1717 101.58C89.8912 101.085 89.5182 100.651 89.2701 100.137C88.9672 99.5096 88.8955 98.781 88.2795 98.3526C87.785 98.0077 87.1533 98.0687 86.7574 98.5374ZM117.653 98.0502C117.267 98.1118 116.903 98.3694 116.768 98.8566C116.589 99.4782 116.567 100.033 116.102 100.52C115.632 101.007 115.077 101.309 114.73 101.909C114.428 102.418 114.876 103.174 115.48 103.107C116.449 103.006 117.351 102.485 117.984 101.741C117.894 100.688 117.782 99.439 117.653 98.0502ZM114.838 93.4313C114.522 94.1929 114.579 95.0553 114.318 95.8517C114.083 96.5668 113.807 97.3093 113.49 97.9909C113.257 98.4909 113.727 99.2901 114.339 99.0185C115.358 98.566 116.114 97.9685 116.613 96.9409C117.039 96.0622 117.509 94.5861 117.099 93.6464C116.723 92.7851 115.296 92.3293 114.838 93.4313ZM111.645 101.062C111.149 101.616 110.603 102.203 109.902 102.493C109.239 102.767 108.844 103.428 109.165 104.133C109.49 104.85 110.229 104.957 110.884 104.658C112.056 104.122 112.954 103.184 113.314 101.938C113.588 100.989 112.276 100.36 111.645 101.062ZM106.524 73.6236C107.184 73.7322 107.807 73.3884 107.983 72.7175C108.298 71.5107 107.22 70.2725 106.369 69.521C105.491 68.7465 104.317 68.088 103.128 68.4761C102.375 68.7219 102.285 69.5378 102.731 70.0967C103.251 70.7463 103.972 71.2229 104.527 71.8529C105.126 72.5338 105.549 73.4634 106.524 73.6236ZM110.806 78.3707C111.275 77.6925 110.912 76.698 110.574 76.0484C110.394 75.704 110.12 75.3881 109.776 75.1977C109.313 74.9413 108.607 74.9737 108.34 75.5057C108.167 75.8507 108.182 76.1637 108.273 76.5249C108.319 76.7058 108.386 76.8576 108.461 77.0312C108.472 77.0553 108.479 77.0709 108.485 77.0827C108.488 77.095 108.493 77.1096 108.498 77.1281C108.658 77.6477 108.76 78.2257 109.156 78.6244C109.68 79.1513 110.433 78.9105 110.806 78.3707ZM113.691 74.3605C113.652 72.979 112.981 71.6753 112.148 70.6029C111.476 69.7389 110.314 68.3489 109.081 68.6592C108.79 68.7325 108.656 69.0047 108.634 69.2763C108.555 70.2227 109.642 71.2397 110.108 71.9929C110.699 72.9465 111.114 73.9999 111.718 74.9424C112.285 75.8294 113.722 75.443 113.691 74.3605ZM109.463 83.9472C109.672 83.9864 109.883 83.9802 110.09 83.9287C110.407 83.8497 110.652 83.6033 110.82 83.3385C110.995 83.0629 111.023 82.6838 111.037 82.3685C111.052 82.0398 110.922 81.7542 110.785 81.4658C110.724 81.3891 110.663 81.3129 110.602 81.2362C110.52 81.1763 110.438 81.1164 110.356 81.0565C110.135 80.9361 109.883 80.9025 109.637 80.9422C109.19 81.0139 108.818 81.3477 108.711 81.7945C108.631 82.1249 108.534 82.4486 108.515 82.7902C108.532 82.8933 108.548 82.9969 108.565 83.0999C108.605 83.2584 108.68 83.3956 108.791 83.5115C108.956 83.7176 109.196 83.8968 109.463 83.9472ZM113.328 80.3839C113.773 80.3509 114.165 80.0563 114.271 79.6117C114.378 79.1659 114.311 78.7409 114.187 78.3063C114.085 77.9496 113.903 77.4775 113.602 77.2378C113.145 76.8761 112.443 77.0004 112.293 77.6242C112.218 77.9401 112.274 78.2889 112.282 78.6115C112.285 78.7537 112.278 78.8949 112.27 79.0371C112.259 79.2521 112.302 79.456 112.338 79.6677C112.408 80.0826 112.925 80.4141 113.328 80.3839Z" fill="#030402"/>
<path d="M111.403 70.9964C109.268 70.8004 106.536 66.2437 106.017 63.344C105.982 63.1452 106.833 61.4613 107.771 59.3663C108.334 58.0929 108.932 56.6615 109.383 55.3164L117.134 60.1962C117.134 60.1962 115.359 62.7381 114.587 65.089C114.525 65.2861 114.483 65.4748 114.46 65.6607C114.454 65.687 114.451 65.7201 114.441 65.7565C114.26 66.8625 113.466 71.184 111.403 70.9964Z" fill="#D3766A"/>
<path d="M114.459 65.6624C114.453 65.6864 114.45 65.7184 114.441 65.7542C114.164 65.7066 113.871 65.6232 113.558 65.5151C108.711 63.7673 109.566 57.4052 109.907 55.6484L111.844 56.867L117.134 60.199C117.134 60.199 115.358 62.7408 114.589 65.0923C114.525 65.2872 114.482 65.4753 114.459 65.6624Z" fill="#263238"/>
<path d="M110.182 46.3374C108.581 49.222 108.303 58.4855 110.074 60.9428C112.64 64.505 117.79 65.8943 121.056 62.5931C124.223 59.3927 124.369 47.3141 122.304 44.9834C119.262 41.5511 112.548 42.0764 110.182 46.3374Z" fill="#D3766A"/>
<path d="M117.625 53.8284C117.621 53.8043 117.574 53.857 117.574 53.8833C117.573 54.5211 117.463 55.2508 116.88 55.4429C116.862 55.4485 116.863 55.481 116.884 55.4787C117.591 55.4037 117.726 54.4332 117.625 53.8284Z" fill="#263238"/>
<path d="M117.076 53.1431C116.055 53.0306 115.904 55.0824 116.851 55.1866C117.783 55.2896 117.933 53.2378 117.076 53.1431Z" fill="#263238"/>
<path d="M121.298 54.0426C121.305 54.0191 121.346 54.0768 121.342 54.1025C121.271 54.7365 121.297 55.474 121.855 55.731C121.872 55.7389 121.868 55.7708 121.846 55.7663C121.153 55.6117 121.13 54.6317 121.298 54.0426Z" fill="#263238"/>
<path d="M121.922 53.4258C122.95 53.4297 122.866 55.4855 121.913 55.4821C120.976 55.4782 121.06 53.4224 121.922 53.4258Z" fill="#263238"/>
<path d="M117.908 52.7288C117.625 52.7893 117.355 52.7977 117.069 52.8285C116.747 52.8632 116.494 52.9243 116.194 52.7669C116.033 52.6829 115.957 52.427 116.024 52.2635C116.181 51.8821 116.565 51.7415 116.951 51.6839C117.37 51.6211 117.709 51.6799 118.073 51.8961C118.426 52.1055 118.281 52.6493 117.908 52.7288Z" fill="#263238"/>
<path d="M122.836 51.5178C122.555 51.4506 122.307 51.3414 122.036 51.2462C121.73 51.1387 121.475 51.0844 121.273 50.8139C121.165 50.6689 121.206 50.4057 121.337 50.2864C121.642 50.0098 122.05 50.0484 122.423 50.1627C122.828 50.287 123.109 50.4863 123.344 50.838C123.572 51.1785 123.207 51.6063 122.836 51.5178Z" fill="#263238"/>
<path d="M117.159 58.8751C117.986 58.6097 119.016 58.7822 119.666 58.9076C119.74 58.9015 119.816 58.7615 119.833 58.6931V58.6887C119.834 58.6657 119.881 57.343 119.881 57.343C120.052 57.4432 120.926 57.9086 120.929 57.6549C120.943 55.5549 120.959 53.2191 120.53 51.1264C120.519 51.0564 120.413 51.0654 120.414 51.1348C120.32 53.1531 120.582 55.1735 120.52 57.2019C120.239 57.0736 119.784 56.8401 119.531 56.8283C119.461 56.8435 119.552 58.2558 119.515 58.4714C119.515 58.4714 118.257 58.0015 117.166 58.5985C116.884 58.7525 116.764 59.0017 117.159 58.8751Z" fill="#263238"/>
<path d="M115.5 60.2113C115.642 60.3681 115.78 60.5803 116.008 60.6134C116.226 60.6453 116.489 60.5619 116.695 60.4963C116.715 60.4902 116.734 60.512 116.72 60.5305C116.542 60.7623 116.188 60.8928 115.9 60.8234C115.618 60.7562 115.492 60.5008 115.438 60.2359C115.43 60.199 115.48 60.1883 115.5 60.2113Z" fill="#263238"/>
<path opacity="0.2" d="M112.886 43.3984C112.805 44.8416 112.462 49.2992 111.769 50.2097C111.108 51.0822 109.608 53.227 108.859 53.5563C108.963 50.5821 109.42 47.7547 110.19 46.2925C110.826 45.0751 111.771 44.104 112.886 43.3984Z" fill="#263238"/>
<path d="M120.867 47.7634C120.068 48.5631 118.912 48.9203 117.805 48.6594C116.726 48.4051 115.696 47.5741 115.38 46.4888C115.37 46.4563 115.32 46.4715 115.329 46.5034C115.668 47.6637 116.518 48.6605 117.74 48.9175C118.886 49.1589 120.169 48.7143 120.924 47.8199C120.958 47.7807 120.904 47.7264 120.867 47.7634Z" fill="#263238"/>
<path d="M118.059 39.4596C116.163 39.3666 114.351 40.2912 113.568 41.5321C113.092 42.2859 112.972 43.0766 113.042 43.8948C113.045 43.9278 113.113 43.9261 113.112 43.8925C113.094 42.6028 113.831 41.1877 115.268 40.3903C116.648 39.6242 118.418 39.4825 119.894 40.1646C120.665 40.5208 121.27 41.0684 121.556 41.704C121.587 41.7752 121.733 41.7404 121.707 41.6688C121.278 40.4508 119.776 39.5436 118.059 39.4596Z" fill="#263238"/>
<path d="M128.761 44.3425C128.528 43.3894 127.934 42.5438 127.141 41.9721C126.031 41.1707 124.71 41.1836 123.398 41.2233C123.362 41.2245 123.363 41.2799 123.399 41.2788C124.516 41.2485 125.651 41.2833 126.634 41.8774C127.436 42.3618 128.081 43.1212 128.391 44.0093C129.032 45.8523 128.149 48.0195 126.381 48.8595C125.381 49.3349 124.181 49.3725 123.154 48.9586C123.114 48.9424 123.079 49.0012 123.12 49.0191C124.993 49.8322 127.317 49.1171 128.322 47.3139C128.818 46.4235 129.004 45.3377 128.761 44.3425Z" fill="#263238"/>
<path d="M109.623 48.1463C109.623 48.1463 108.081 44.6267 109.731 42.7798C110.666 41.7332 113.48 42.0927 113.48 42.0927C113.48 42.0927 114.513 40.537 116.893 40.1786C119.299 39.8163 122.004 41.4095 122.004 41.4095C122.004 41.4095 124.347 40.294 126.359 41.6548C129.165 43.5526 128.46 47.9912 125.4 49.2041C123.252 50.0559 120.576 48.0085 120.576 48.0085C120.303 48.0248 117.405 49.4858 115.497 46.8549C115.497 46.8549 113.68 48.2398 112.232 47.0632C112.231 47.0616 111.341 48.5388 109.623 48.1463Z" fill="#263238"/>
<path d="M110.537 54.011C110.537 54.011 109.071 50.7255 107.618 51.1942C106.165 51.6629 106.878 56.1525 108.309 57.0238C109.74 57.8952 110.573 56.5865 110.573 56.5865L110.537 54.011Z" fill="#D3766A"/>
<path d="M107.854 52.4755C107.83 52.4688 107.818 52.5024 107.838 52.5152C108.835 53.162 109.211 54.2742 109.409 55.3908C109.165 54.9288 108.769 54.6248 108.159 54.9042C108.127 54.9188 108.145 54.9686 108.177 54.9675C108.639 54.958 108.943 55.0963 109.174 55.509C109.338 55.8008 109.421 56.1468 109.517 56.466C109.549 56.5724 109.734 56.5545 109.718 56.4358C109.717 56.4268 109.715 56.4179 109.714 56.4089C110.007 55.0358 109.307 52.9 107.854 52.4755Z" fill="#263238"/>
<path d="M188.169 60.5328L127.875 79.002L138.746 114.491L199.04 96.0218L188.169 60.5328Z" fill="#347B72"/>
<path opacity="0.2" d="M188.169 60.5328L127.875 79.002L138.746 114.491L199.04 96.0218L188.169 60.5328Z" fill="black"/>
<path opacity="0.2" d="M188.169 60.5336L167.906 66.7402L178.777 102.23L199.04 96.0236L188.169 60.5336Z" fill="black"/>
<path d="M187.182 62.3438C186.502 65.4831 185.838 68.6264 185.192 71.7747L183.278 81.2264L181.432 90.696C180.825 93.855 180.237 97.019 179.664 100.187C180.344 97.0481 181.009 93.9048 181.655 90.7565L183.567 81.3048L185.413 71.8352C186.021 68.6751 186.609 65.5117 187.182 62.3438Z" fill="#347B72"/>
<path d="M197.133 94.8357C194.884 92.5324 192.625 90.2403 190.353 87.9634L183.52 81.1521L176.642 74.3929C174.343 72.1467 172.032 69.9152 169.711 67.6953C171.959 69.9992 174.219 72.2912 176.491 74.5676L183.323 81.3789L190.202 88.1376C192.501 90.3843 194.812 92.6159 197.133 94.8357Z" fill="#347B72"/>
<path d="M139.451 83.5621L139.781 83.4609L138.354 78.7997L138.024 78.9008L139.451 83.5621Z" fill="#263238"/>
<path d="M138.67 83.816L139 83.7148L137.572 79.054L137.242 79.1552L138.67 83.816Z" fill="#263238"/>
<path d="M137.865 84.0543L138.195 83.9531L136.768 79.2918L136.438 79.393L137.865 84.0543Z" fill="#263238"/>
<path d="M137.068 84.3043L137.398 84.2031L135.971 79.5418L135.641 79.643L137.068 84.3043Z" fill="#263238"/>
<path d="M136.287 84.5446L136.617 84.4434L135.189 79.7826L134.859 79.8838L136.287 84.5446Z" fill="#263238"/>
<path d="M135.498 84.7887L135.828 84.6875L134.4 80.0267L134.07 80.1279L135.498 84.7887Z" fill="#263238"/>
<path d="M134.693 85.027L135.023 84.9258L133.596 80.2645L133.266 80.3657L134.693 85.027Z" fill="#263238"/>
<path d="M133.904 85.2731L134.234 85.1719L132.806 80.5111L132.476 80.6123L133.904 85.2731Z" fill="#263238"/>
<path d="M133.107 85.5113L133.438 85.4102L132.01 80.7489L131.68 80.85L133.107 85.5113Z" fill="#263238"/>
<path d="M141.709 78.1697L140.328 78.2055L143.313 77.291L142.151 78.0386L142.676 79.7522C143.623 79.5926 144.259 80.38 144.74 81.9502L141.755 82.8647C141.275 81.2984 141.361 80.2853 142.234 79.8872L141.709 78.1697Z" fill="#263238"/>
<path d="M144.711 79.36L145.49 79.1215L144.792 76.8395L146.787 76.2285L147.486 78.51L148.269 78.2703L147.216 81.1929L144.711 79.36Z" fill="#263238"/>
<path opacity="0.1" d="M127.867 79.002L128.759 81.9129L170.436 75.0411L167.895 66.7441L127.867 79.002Z" fill="black"/>
<path d="M206.842 100.046L186.578 106.254L178.766 102.23L199.03 96.0234L206.842 100.046Z" fill="#347B72"/>
<path opacity="0.2" d="M206.842 100.046L186.578 106.254L178.766 102.23L199.03 96.0234L206.842 100.046Z" fill="black"/>
<path d="M134.516 122.199L154.78 115.992L158.999 108.283L138.734 114.49L134.516 122.199Z" fill="#347B72"/>
<path opacity="0.1" d="M134.516 122.199L154.78 115.992L158.999 108.283L138.734 114.49L134.516 122.199Z" fill="black"/>
<path d="M101.162 73.5284C104.123 83.4365 112.375 100.39 115.418 102.482C118.112 104.335 131.043 102.648 136.709 101.424C138.829 100.966 134.475 84.8051 132.218 85.3399C129.51 85.9817 121.442 87.595 120.869 87.1386C120.239 86.6374 112.449 76.5149 106.854 70.5134C101.782 65.0724 100.041 69.7803 101.162 73.5284Z" fill="#D3766A"/>
<path d="M131.055 86.6542C131.055 86.6542 135.337 81.8247 138.373 79.984C142.437 77.5189 146.961 77.0642 148.868 76.988C152.85 76.829 162.586 79.1978 162.393 82.121C162.218 84.767 152.388 81.8432 152.388 81.8432C152.388 81.8432 162.902 83.1704 162.107 86.3182C161.31 89.4654 150.092 85.4222 150.092 85.4222C150.092 85.4222 160.865 87.0283 159.531 90.1441C158.522 92.4989 148.156 89.4094 148.156 89.4094C148.156 89.4094 157.405 90.8536 156.473 93.3199C155.442 96.0454 145.695 93.7936 145.695 93.7936C142.269 99.6636 138.236 101.057 135.249 101.706C134.526 101.864 131.055 86.6542 131.055 86.6542Z" fill="#D3766A"/>
<path d="M148.786 81.1505C150.027 81.262 151.284 81.3661 152.51 81.5873C153.736 81.8085 154.957 82.0723 156.157 82.4066C159.101 83.2264 160.817 84.2003 160.704 84.1521C158.043 83.0024 153.664 82.1428 152.437 81.9216C151.213 81.701 150 81.4188 148.776 81.197C148.745 81.1914 148.757 81.1477 148.786 81.1505Z" fill="#263238"/>
<path d="M147.905 85.5646C149.484 85.7752 151.058 85.9264 152.627 86.2064C154.189 86.4852 155.646 86.8868 157.185 87.2726C157.303 87.3023 157.249 87.356 157.128 87.3308C155.576 87.0066 154.115 86.8268 152.559 86.5211C151.008 86.2164 149.458 85.8491 147.898 85.601C147.873 85.5982 147.881 85.5618 147.905 85.5646Z" fill="#263238"/>
<path d="M146.469 89.2189C148.897 89.4172 151.286 90.0634 153.614 90.7533C153.73 90.7875 153.652 90.8496 153.531 90.8211C151.166 90.2661 149.314 89.8142 146.462 89.3035C146.417 89.2956 146.418 89.2144 146.469 89.2189Z" fill="#263238"/>
<path d="M135.419 104.286L131.655 84.9598L121.165 86.6056C117.16 81.7879 109.149 72.1576 105.879 69.2428C102.043 65.8235 99.4182 68.2634 100.734 73.3308C103.745 84.9217 112.884 102.033 115.361 103.713C118.911 106.119 135.419 104.286 135.419 104.286Z" fill="#347B72"/>
<path opacity="0.1" d="M128.315 87.6409C128.799 87.8101 129.386 87.7563 129.89 87.8257C130.995 87.9775 131.502 89.6278 130.485 90.2539C129.392 90.9265 128.079 91.0323 126.874 90.563C125.75 90.1251 124.809 89.0398 125.049 87.7753C125.26 86.6665 126.406 86.3496 127.286 86.9107C127.645 87.1397 127.908 87.4981 128.315 87.6409ZM127.212 85.6574C127.985 85.9766 128.853 86.0102 129.475 85.5902C129.603 85.5006 129.704 85.3886 129.766 85.2542L127.212 85.6574ZM121.763 86.5086C122.206 86.8222 122.732 86.9902 123.309 86.9286C123.718 86.8838 123.992 86.5254 124.015 86.1558L121.763 86.5086ZM133.635 95.1382C133.428 95.2222 133.249 95.3846 133.131 95.6198C132.661 96.5662 133.316 97.5854 134.229 98.1958L133.635 95.1382ZM116.768 98.8555C116.591 99.476 116.566 100.031 116.1 100.518C115.633 101.005 115.08 101.31 114.729 101.906C114.429 102.417 114.878 103.172 115.483 103.108C117.41 102.901 119.086 101.034 118.916 99.0644C118.809 97.8268 117.112 97.6515 116.768 98.8555ZM114.838 93.4313C114.522 94.1929 114.579 95.0553 114.318 95.8517C114.083 96.5668 113.806 97.3093 113.489 97.9909C113.257 98.4909 113.727 99.2901 114.338 99.0185C115.358 98.566 116.114 97.9685 116.613 96.9409C117.039 96.0622 117.509 94.5861 117.099 93.6464C116.723 92.7851 115.296 92.3293 114.838 93.4313ZM106.524 73.6236C107.184 73.7322 107.807 73.3884 107.982 72.7175C108.298 71.5107 107.22 70.2725 106.369 69.521C105.49 68.7465 104.317 68.088 103.128 68.4761C102.375 68.7219 102.284 69.5378 102.731 70.0967C103.25 70.7463 103.972 71.2229 104.527 71.8529C105.126 72.5338 105.549 73.4634 106.524 73.6236ZM110.805 78.3707C111.275 77.6925 110.912 76.698 110.574 76.0484C110.394 75.704 110.12 75.3881 109.776 75.1977C109.313 74.9413 108.607 74.9737 108.34 75.5057C108.167 75.8507 108.182 76.1637 108.273 76.5249C108.318 76.7058 108.386 76.8576 108.461 77.0312C108.472 77.0553 108.479 77.0709 108.485 77.0827C108.488 77.095 108.493 77.1096 108.498 77.1281C108.658 77.6477 108.76 78.2257 109.156 78.6244C109.68 79.1513 110.432 78.9105 110.805 78.3707ZM109.463 83.9472C109.672 83.9864 109.883 83.9802 110.09 83.9287C110.407 83.8497 110.651 83.6033 110.82 83.3385C110.995 83.0629 111.023 82.6838 111.037 82.3685C111.052 82.0398 110.922 81.7542 110.785 81.4658C110.724 81.3891 110.663 81.3129 110.602 81.2362C110.52 81.1763 110.438 81.1164 110.356 81.0565C110.135 80.9361 109.883 80.9025 109.637 80.9422C109.19 81.0139 108.818 81.3477 108.71 81.7945C108.631 82.1249 108.534 82.4486 108.515 82.7902C108.532 82.8933 108.548 82.9969 108.565 83.0999C108.605 83.2584 108.68 83.3956 108.791 83.5115C108.956 83.7176 109.196 83.8968 109.463 83.9472ZM114.192 78.3158C114.187 78.3102 114.187 78.3102 114.187 78.3046C113.823 77.8846 113.453 77.459 113.095 77.0446C112.742 77.0166 112.395 77.207 112.294 77.627C112.215 77.9406 112.271 78.2878 112.283 78.6126C112.283 78.7526 112.277 78.8926 112.271 79.0382C112.26 79.251 112.299 79.4582 112.339 79.6654C112.406 80.0854 112.927 80.4158 113.33 80.3822C113.772 80.3486 114.164 80.0574 114.271 79.6094C114.377 79.1726 114.31 78.747 114.192 78.3158Z" fill="#030402"/>
<path d="M131.801 102.512C131.347 101.365 130.284 96.3795 130.033 95.1347C129.787 93.9155 128.943 88.8638 128.689 87.5842C128.675 87.5147 128.77 87.4739 128.786 87.545C129.059 88.8067 130.293 93.7744 130.555 95.0159C130.819 96.2614 131.82 101.245 131.865 102.496C131.867 102.539 131.815 102.549 131.801 102.512Z" fill="#263238"/>
<path d="M128.337 104.833C126.62 104.931 124.899 104.97 123.178 104.959C121.457 104.938 119.731 104.901 118.014 104.664C117.16 104.531 116.293 104.407 115.475 103.99C114.685 103.495 114.153 102.797 113.614 102.114C112.563 100.726 111.709 99.2204 110.864 97.7174C109.183 94.7029 107.741 91.5708 106.328 88.432C104.951 85.277 103.637 82.0945 102.461 78.8594C103.887 81.9909 105.301 85.1247 106.764 88.2338C108.203 91.3535 109.717 94.4375 111.32 97.4676C112.132 98.9763 112.995 100.46 113.964 101.857C114.457 102.536 114.98 103.252 115.646 103.689C116.359 104.072 117.226 104.225 118.059 104.366C121.445 104.853 124.903 104.861 128.337 104.833Z" fill="#263238"/>
<path d="M103.562 81.5914C103.324 81.3635 103.133 81.0997 102.943 80.8348C102.773 80.5599 102.583 80.2849 102.508 79.959C102.591 80.1001 102.691 80.2261 102.782 80.3594L103.059 80.757C103.234 81.0286 103.417 81.2951 103.562 81.5914Z" fill="#263238"/>
<path d="M112.391 76.3984C113.811 77.8236 115.079 79.3855 116.394 80.9008C117.703 82.4218 118.973 83.9792 120.309 85.4676L120.812 86.0187C120.897 86.1066 120.982 86.1979 121.068 86.278C121.112 86.3228 121.152 86.3541 121.192 86.3877C121.222 86.4146 121.202 86.3905 121.202 86.4034C121.206 86.4084 121.243 86.4023 121.262 86.4028C121.688 86.3849 122.228 86.3082 122.71 86.2432L125.686 85.8036C127.671 85.513 129.656 85.2095 131.647 84.939L131.668 84.9362L131.67 84.9552L131.745 85.448L131.63 84.9631L131.654 84.9793C129.689 85.4021 127.716 85.7762 125.74 86.1363C124.752 86.3155 123.76 86.4728 122.765 86.6257C122.254 86.6968 121.799 86.7825 121.224 86.8066C121.18 86.8027 121.151 86.8122 121.098 86.796C121.044 86.7764 120.963 86.7327 120.948 86.7148C120.891 86.6694 120.833 86.6224 120.788 86.5781C120.689 86.488 120.602 86.3961 120.511 86.3048C120.335 86.1206 120.163 85.9352 119.998 85.7448C118.678 84.2211 117.402 82.6727 116.149 81.103L114.276 78.7448C113.655 77.9569 113.052 77.1522 112.391 76.3984Z" fill="#263238"/>
<path d="M113.125 76.5723C113.336 76.8276 113.495 77.1127 113.652 77.3988C113.789 77.6928 113.947 77.9891 113.984 78.3223C113.917 78.1722 113.833 78.0344 113.757 77.8911L113.528 77.4627C113.386 77.1709 113.235 76.8836 113.125 76.5723Z" fill="#263238"/>
<path d="M45.9599 223.003C45.7465 217.764 45.8322 212.514 46.1755 207.283C46.8833 196.492 48.6602 185.784 51.1001 175.255C52.4732 169.329 54.1644 163.501 55.9268 157.681C55.98 157.505 56.2605 157.555 56.2118 157.738C50.7624 178.256 46.292 199.43 46.6 220.759C46.6862 226.728 47.3772 232.591 47.944 238.522C47.9591 238.681 47.6981 238.744 47.6617 238.581C46.5367 233.505 46.171 228.187 45.9599 223.003Z" fill="#347B72"/>
<path d="M56.2117 157.738C56.2117 157.738 64.4661 178.691 62.6181 183.615C60.7701 188.54 56.9598 189.591 56.9598 189.591C56.9598 189.591 62.0105 196.801 58.4808 203.564C54.9511 210.327 47.11 210.008 46.5886 217.676C46.5886 217.676 46.1518 185.613 56.2117 157.738Z" fill="#347B72"/>
<path d="M47.4847 204.436C47.4746 204.401 47.4768 204.364 47.4931 204.326C48.6523 190.079 51.1795 175.877 55.4999 162.177C55.5128 162.136 55.5794 162.149 55.5682 162.191C53.933 168.321 52.4776 174.482 51.2339 180.678C52.3057 179.574 53.7079 178.939 55.174 178.481C55.2014 178.473 55.2154 178.512 55.1891 178.523C53.6626 179.183 52.1998 179.948 51.1207 181.241C50.8799 182.456 50.6436 183.671 50.4196 184.887C52.2642 182.825 54.8229 181.803 57.3826 180.83C57.4185 180.816 57.4381 180.872 57.4028 180.886C54.7366 181.971 52.0811 183.369 50.2746 185.667C49.6451 189.144 49.0941 192.634 48.617 196.134C49.9654 194.725 51.6298 193.778 53.5394 193.312C53.5965 193.298 53.629 193.383 53.5707 193.4C51.609 193.965 49.9218 195.063 48.5783 196.598C48.5688 196.608 48.5582 196.614 48.5475 196.621C48.3823 197.852 48.2266 199.085 48.0805 200.319C49.1193 199.433 50.2667 198.759 51.5307 198.238C51.5643 198.224 51.5822 198.277 51.5491 198.291C50.2656 198.837 49.1103 199.625 48.0934 200.578C48.0788 200.591 48.0642 200.59 48.0491 200.595C47.9119 201.768 47.7747 202.942 47.656 204.118C49.5488 201.837 51.8885 200.187 54.6571 199.119C54.7115 199.098 54.7395 199.18 54.6874 199.203C51.9955 200.373 49.6222 202.228 47.7876 204.512C47.7372 204.575 47.6717 204.585 47.6134 204.567C47.4348 206.37 47.2752 208.175 47.1425 209.985C47.1408 210.009 47.0999 210.012 47.1016 209.986C47.2058 208.138 47.3351 206.286 47.4847 204.436Z" fill="#263238"/>
<path d="M54.1214 176.4C55.5533 175.416 57.3722 174.996 59.0807 174.854C59.1216 174.85 59.125 174.911 59.0852 174.917C57.3078 175.181 55.8142 175.824 54.1813 176.519C54.1107 176.548 54.0598 176.442 54.1214 176.4Z" fill="#263238"/>
<path d="M53.1148 198.583C54.2477 197.903 55.5396 197.519 56.8377 197.309C56.8831 197.302 56.887 197.372 56.8428 197.38C55.5251 197.618 54.3575 198.088 53.1602 198.671C53.1092 198.696 53.0667 198.612 53.1148 198.583Z" fill="#263238"/>
<path d="M24.262 183.957C27.7043 186.377 31.0083 189.169 33.8161 192.309C36.8093 195.656 38.9922 199.456 40.5171 203.673C43.6402 212.311 45.3527 221.67 45.5089 230.851C45.5963 235.998 45.1388 241.104 44.0373 246.135C43.9969 246.317 43.7237 246.266 43.7517 246.081C45.0973 237.23 45.0486 228.199 43.6021 219.365C42.1831 210.697 39.956 201.267 34.4467 194.223C31.4468 190.387 27.706 187.37 24.0083 184.251C23.8134 184.086 24.0615 183.816 24.262 183.957Z" fill="#347B72"/>
<path d="M44.2954 224.61C44.2954 224.61 41.4601 219.836 37.3306 215.707C33.2012 211.579 29.723 208.645 29.1866 205.914C28.6495 203.183 33.3233 201.173 33.3233 201.173C33.3233 201.173 27.6085 202.199 26.045 199.8C24.4814 197.403 23.7266 183.512 23.7266 183.512C23.7266 183.512 34.123 190.934 38.9664 201.339C43.8104 211.743 44.2954 224.61 44.2954 224.61Z" fill="#347B72"/>
<path d="M27.3225 187.072C31.6966 191.368 36.0994 195.947 38.6754 201.591C39.5585 203.526 40.31 205.533 40.9719 207.578C40.9736 207.581 40.9736 207.584 40.9753 207.587C41.108 207.998 41.2424 208.407 41.3678 208.821C41.3802 208.842 41.3869 208.865 41.3891 208.888C42.6626 213.103 43.563 217.463 44.3426 221.721C44.3476 221.749 44.3062 221.763 44.3 221.735C43.852 219.568 43.3581 217.379 42.8059 215.197C42.7863 215.198 42.7656 215.194 42.7438 215.185C41.8595 214.813 40.9702 214.581 40.0154 214.492C39.9533 214.487 39.9583 214.379 40.021 214.381C40.9422 214.426 41.8444 214.587 42.7197 214.874C42.2162 212.906 41.6686 210.944 41.0531 209.01C39.0461 208.519 36.9511 208.254 34.887 208.205C34.8657 208.204 34.8623 208.172 34.8842 208.171C36.9651 208.074 38.9201 208.253 40.9467 208.686C40.8398 208.354 40.7278 208.024 40.6174 207.693C39.2622 207.385 37.9009 207.125 36.5143 206.998C36.4897 206.996 36.4914 206.954 36.5166 206.954C37.8746 206.99 39.2124 207.133 40.534 207.442C39.9684 205.769 39.3569 204.119 38.6787 202.511C38.1176 201.182 37.4506 199.919 36.7159 198.7C35.6043 198.449 34.5269 198.209 33.3878 198.107C33.3559 198.104 33.3598 198.053 33.3906 198.051C34.4244 197.984 35.5018 198.061 36.502 198.359C35.9554 197.476 35.3803 196.61 34.766 195.773C32.4347 195.256 30.071 194.777 27.6865 195.225C27.645 195.233 27.6299 195.163 27.6708 195.153C29.941 194.556 32.1945 194.9 34.4535 195.347C34.2071 195.019 33.9551 194.695 33.7003 194.373C32.2695 193.931 30.846 193.716 29.3446 193.689C29.3138 193.688 29.3088 193.643 29.3407 193.641C30.711 193.51 32.078 193.642 33.4018 194.001C31.4743 191.607 29.3458 189.358 27.2407 187.133C27.1427 187.03 27.2189 186.97 27.3225 187.072Z" fill="#263238"/>
<path d="M27.4422 196.542C28.1265 196.469 28.8226 196.392 29.5097 196.47C29.5931 196.48 29.5858 196.615 29.5018 196.617C28.8175 196.638 28.1332 196.587 27.4483 196.624C27.3968 196.626 27.3901 196.547 27.4422 196.542Z" fill="#263238"/>
<path d="M34.9226 210.016C36.0152 210.003 37.1061 210.297 38.1269 210.66C38.1527 210.668 38.1381 210.711 38.1118 210.705C37.0534 210.453 35.9833 210.35 34.9142 210.175C34.8274 210.16 34.8313 210.017 34.9226 210.016Z" fill="#263238"/>
<path d="M37.1645 205.362C37.608 205.339 38.0874 205.416 38.5247 205.485C38.5695 205.492 38.5673 205.565 38.5202 205.566C38.0784 205.574 37.5923 205.586 37.1572 205.502C37.0805 205.486 37.0833 205.365 37.1645 205.362Z" fill="#263238"/>
<path d="M74.7737 198.698C71.4283 199.861 68.1097 201.356 65.1115 203.249C61.9156 205.266 59.2707 207.836 57.062 210.896C52.5378 217.165 48.9891 224.343 46.7407 231.736C45.4801 235.882 44.6704 240.12 44.3988 244.446C44.3887 244.603 44.6222 244.624 44.6424 244.468C45.5988 236.994 47.7263 229.696 50.9384 222.881C54.0907 216.195 58.0723 209.078 64.1589 204.65C67.4736 202.24 71.1981 200.662 74.9115 198.993C75.1069 198.906 74.968 198.63 74.7737 198.698Z" fill="#347B72"/>
<path d="M49.1641 226.967C49.1641 226.967 52.5621 223.758 56.8579 221.372C61.1542 218.985 64.6469 217.414 65.7126 215.329C66.7783 213.243 63.4609 210.536 63.4609 210.536C63.4609 210.536 67.8485 212.687 69.6679 211.107C71.4873 209.528 75.3088 198.461 75.3088 198.461C75.3088 198.461 65.1801 202.065 58.8549 209.366C52.5308 216.666 49.1641 226.967 49.1641 226.967Z" fill="#347B72"/>
<path d="M49.6938 224.684C54.7601 215.176 61.5199 206.573 70.7823 200.895C70.7862 200.893 70.7907 200.898 70.7867 200.901C68.3479 202.455 66.1012 204.247 64.0068 206.207C65.8817 206.155 67.7907 206.454 69.4528 207.356C69.4898 207.377 69.4629 207.426 69.4254 207.413C67.5729 206.787 65.7927 206.375 63.822 206.466C63.7946 206.468 63.7778 206.454 63.7587 206.443C63.43 206.754 63.1058 207.071 62.7843 207.391C63.7593 207.433 64.7449 207.571 65.6947 207.777C65.7204 207.783 65.7131 207.823 65.6868 207.818C64.6592 207.619 63.6563 207.55 62.613 207.564C60.9156 209.27 59.3342 211.094 57.8356 212.989C58.5121 212.89 59.2216 212.947 59.8707 213.137C59.9188 213.151 59.9065 213.22 59.8555 213.213C59.1175 213.12 58.4163 213.132 57.6833 213.184C57.4061 213.536 57.1255 213.888 56.8539 214.245C58.9371 214.12 60.9772 214.32 63.0016 214.843C63.0313 214.851 63.0235 214.897 62.9927 214.891C60.905 214.481 58.7999 214.35 56.6787 214.481C56.4205 214.823 56.1752 215.176 55.9221 215.523C57.1647 215.485 58.3699 215.64 59.5817 215.942C59.6276 215.953 59.6147 216.026 59.5677 216.015C58.3211 215.731 57.0539 215.659 55.7799 215.72C54.6901 217.222 53.6463 218.756 52.6427 220.31C53.1742 220.2 53.7319 220.26 54.2488 220.407C54.2763 220.414 54.269 220.454 54.2404 220.45C53.644 220.381 53.0879 220.458 52.5022 220.533C51.6 221.937 50.7281 223.356 49.892 224.782C49.8209 224.901 49.626 224.811 49.6938 224.684Z" fill="#263238"/>
<path d="M57.578 216.797C58.5687 216.712 59.575 216.867 60.5208 217.157C60.5477 217.165 60.5415 217.206 60.5124 217.2C59.5386 217.021 58.5731 216.953 57.5859 216.901C57.5209 216.897 57.5086 216.802 57.578 216.797Z" fill="#263238"/>
<path d="M66.4106 205.209C66.8586 205.158 67.3256 205.216 67.768 205.288C67.8207 205.296 67.8044 205.374 67.7524 205.368C67.306 205.321 66.8659 205.338 66.4196 205.324C66.3468 205.322 66.3356 205.218 66.4106 205.209Z" fill="#263238"/>
<path d="M36.1016 258.412H58.9652L55.7055 234.531L54.8722 228.408H40.1946L39.3619 234.531L36.1016 258.412Z" fill="#455A64"/>
<path d="M39.3594 234.531H55.703L54.8697 228.408H40.1921L39.3594 234.531Z" fill="#263238"/>
<path d="M38.0934 231.469H56.9688V226.283H38.0934V231.469Z" fill="#455A64"/>
<path d="M157.873 34.0291C157.873 40.8998 152.301 46.4723 145.43 46.4723C142.654 46.4723 140.09 45.5618 138.017 44.0184L131.922 45.5747L134.46 39.8985C133.517 38.1485 132.988 36.1471 132.988 34.0291C132.988 27.1585 138.56 21.5859 145.431 21.5859C152.301 21.5859 157.873 27.1585 157.873 34.0291Z" fill="white"/>
<path d="M157.875 34.0288C157.854 36.3153 157.26 38.6163 156.036 40.564C155.761 41.0697 155.384 41.507 155.05 41.9729C154.659 42.3929 154.301 42.846 153.86 43.2161C153.028 44.0085 152.068 44.6626 151.049 45.1935C150.038 45.7507 148.921 46.0839 147.799 46.3404C147.23 46.4317 146.661 46.5442 146.082 46.5549C145.506 46.6025 144.927 46.6013 144.35 46.5577C142.04 46.3863 139.78 45.5519 137.9 44.1782L138.069 44.2118L131.985 45.8129L131.492 45.9422L131.699 45.4741L134.215 39.7884L134.224 40.0264C132.348 36.6445 132.25 32.3925 133.834 28.8941C134.623 27.1425 135.815 25.5801 137.288 24.3559C138.758 23.1284 140.522 22.2716 142.371 21.823C144.223 21.3795 146.173 21.3504 148.027 21.7603C149.879 22.1775 151.625 23.0214 153.105 24.1935C156.109 26.5069 157.888 30.2611 157.875 34.0288ZM157.875 34.0288C157.859 30.26 156.053 26.5354 153.052 24.2618C151.56 23.1239 149.816 22.3276 147.986 21.9518C146.154 21.5839 144.242 21.6522 142.445 22.1204C140.65 22.593 138.955 23.4593 137.556 24.6751C136.161 25.8925 135.036 27.4096 134.285 29.0946C133.516 30.778 133.223 32.645 133.267 34.4835C133.344 36.3248 133.836 38.1437 134.698 39.771L134.761 39.8897L134.707 40.0096L132.148 45.6757L131.863 45.3369L137.97 43.8254L138.064 43.8019L138.138 43.8585C139.933 45.2243 142.114 46.0822 144.372 46.2939C144.936 46.3482 145.503 46.36 146.07 46.3241C146.64 46.3253 147.199 46.225 147.762 46.1466C148.87 45.9153 149.979 45.609 150.99 45.077C152.007 44.5708 152.977 43.9453 153.807 43.159C154.248 42.7945 154.607 42.347 154.999 41.9321C155.335 41.4712 155.714 41.0383 155.992 40.5371C157.225 38.6062 157.836 36.3153 157.875 34.0288Z" fill="#263238"/>
<path d="M146.299 35.3769V36.7478C146.299 37.3374 145.856 37.7804 145.266 37.7804C144.718 37.7804 144.233 37.3374 144.233 36.7478V34.5548C144.233 34.5341 144.255 34.5341 144.255 34.5128C144.233 34.4921 144.233 34.4921 144.233 34.4708C144.233 33.9226 144.718 33.4376 145.266 33.4376C146.595 33.4376 147.67 32.3837 147.67 31.0766C147.67 29.7489 146.594 28.7157 145.266 28.7157C144.402 28.7157 143.643 29.1799 143.242 29.8754C142.948 30.3817 142.315 30.5502 141.809 30.2551C141.324 29.9606 141.156 29.3485 141.451 28.8434C142.21 27.5363 143.643 26.6504 145.266 26.6504C147.712 26.6504 149.715 28.6322 149.715 31.0778C149.715 33.1638 148.26 34.9138 146.299 35.3769ZM146.299 39.9941V40.3732C146.299 40.964 145.856 41.4064 145.266 41.4064C144.718 41.4064 144.233 40.9634 144.233 40.3732V39.9941C144.233 39.4251 144.718 38.9614 145.266 38.9614C145.856 38.9614 146.299 39.4251 146.299 39.9941Z" fill="#347B72"/>
</svg>
