<svg width="280" height="280" viewBox="0 0 280 280" fill="none" xmlns="http://www.w3.org/2000/svg">
<path d="M228.147 204.823L235.626 204.667L239.31 204.604C240.536 204.578 241.754 204.583 242.976 204.573L242.726 204.823L242.696 198.557L242.976 198.836L235.561 198.801C233.09 198.798 230.618 198.737 228.147 198.709L228.3 198.556C228.289 199.581 228.251 200.613 228.226 201.656L228.147 204.823ZM228.147 204.823L228.067 201.723C228.042 200.677 228.005 199.62 227.994 198.557L227.992 198.405L228.147 198.404C230.618 198.375 233.09 198.315 235.561 198.312L242.976 198.277L243.257 198.275L243.256 198.557L243.225 204.823L243.224 205.074L242.976 205.072C241.726 205.062 240.473 205.068 239.226 205.041L235.496 204.979L228.147 204.823Z" fill="#EBEBEB"/>
<path d="M236.421 212.723H251.25V206.456H236.421V212.723Z" fill="#EBEBEB"/>
<path d="M191.998 127.862L199.478 127.706L203.162 127.643C204.387 127.617 205.606 127.622 206.828 127.612L206.578 127.862L206.548 121.596L206.827 121.875L199.413 121.84C196.941 121.837 194.47 121.776 191.998 121.748L192.151 121.595C192.141 122.62 192.103 123.652 192.078 124.695L191.998 127.862ZM191.998 127.862L191.919 124.762C191.894 123.716 191.856 122.659 191.845 121.596L191.844 121.444L191.998 121.443C194.47 121.414 196.941 121.354 199.413 121.351L206.827 121.316L207.108 121.314L207.107 121.596L207.077 127.862L207.076 128.113L206.827 128.112C205.577 128.102 204.324 128.107 203.078 128.081L199.348 128.018L191.998 127.862Z" fill="#EBEBEB"/>
<path d="M200.272 135.764L207.751 135.608L211.435 135.545C212.661 135.519 213.879 135.525 215.101 135.515L214.851 135.764L214.821 129.498L215.101 129.777L207.686 129.742C205.215 129.739 202.743 129.679 200.272 129.65L200.425 129.497C200.414 130.523 200.376 131.554 200.351 132.598L200.272 135.764ZM200.272 135.764L200.192 132.664C200.167 131.619 200.13 130.561 200.119 129.498L200.117 129.347L200.272 129.345C202.743 129.316 205.215 129.256 207.686 129.253L215.101 129.218L215.382 129.217L215.381 129.498L215.35 135.764L215.349 136.016L215.101 136.014C213.851 136.004 212.598 136.01 211.351 135.983L207.621 135.921L200.272 135.764Z" fill="#EBEBEB"/>
<path d="M208.514 127.863H223.344V121.597H208.514V127.863Z" fill="#EBEBEB"/>
<path d="M28.7488 212.723H43.5781V206.456H28.7488V212.723Z" fill="#EBEBEB"/>
<path d="M37.0217 37.7936L44.5011 37.6374L48.1853 37.5747C49.4106 37.5483 50.6292 37.5539 51.8511 37.5439L51.6013 37.7936L51.5711 31.5272L51.8505 31.8067L44.4361 31.7714C41.9649 31.7686 39.493 31.7081 37.0217 31.6795L37.1746 31.5267C37.164 32.552 37.1265 33.5835 37.1013 34.6268L37.0217 37.7936ZM37.0217 37.7936L36.9422 34.6935C36.917 33.6479 36.8795 32.5907 36.8689 31.5272L36.8672 31.376L37.0217 31.3743C39.493 31.3458 41.9649 31.2853 44.4361 31.2825L51.8505 31.2472L52.1317 31.2461L52.1306 31.5272L52.1003 37.7936L52.0992 38.0451L51.8505 38.0428C50.6006 38.0327 49.3479 38.0383 48.1013 38.012L44.3712 37.9493L37.0217 37.7936Z" fill="#EBEBEB"/>
<path d="M28.7488 45.6953H43.5781V39.4289H28.7488V45.6953Z" fill="#EBEBEB"/>
<path d="M228.147 37.7949H242.977V31.5285H228.147V37.7949Z" fill="#EBEBEB"/>
<path d="M177.236 142.92H253.43L253.43 26.693L177.236 26.693V142.92Z" fill="#EBEBEB"/>
<path d="M217.091 83.0469H249.297V31.3499L217.091 31.3499V83.0469Z" fill="white"/>
<path d="M181.365 83.0469H213.57V31.3499L181.365 31.3499V83.0469Z" fill="white"/>
<path d="M217.091 138.266H249.297V86.5687H217.091V138.266Z" fill="white"/>
<path d="M181.365 138.266H213.57V86.5687H181.365V138.266Z" fill="white"/>
<path d="M206.628 26.6934H177.234V192.974H194.247L182.372 108.362L206.628 26.6934Z" fill="#DBDBDB"/>
<path d="M201.531 31.1875L196.872 50.5137L192.13 69.8191L182.638 108.429L182.644 108.331L187.035 148.681L189.227 168.856L191.33 189.041L188.953 168.886L186.663 148.722L182.092 108.392L182.086 108.343L182.098 108.295L191.77 69.7301L196.61 50.4487L201.531 31.1875Z" fill="#EBEBEB"/>
<path d="M178.983 34.5996L179.119 51.2753L179.197 67.9515L179.263 101.303L179.198 134.655L179.12 151.332L178.983 168.007L178.845 151.332L178.768 134.655L178.703 101.303L178.768 67.9515L178.846 51.2753L178.983 34.5996Z" fill="#EBEBEB"/>
<path d="M184.474 37.7246L183.561 55.4497L182.572 73.1704L180.578 108.611L180.579 108.589C180.777 115.169 180.901 121.752 181.066 128.334L181.531 148.079L181.996 167.825L182.37 187.573L181.713 167.832L181.148 148.089L180.583 128.347C180.405 121.765 180.186 115.185 180.04 108.603L180.039 108.59L180.04 108.58L182.21 73.1497L183.303 55.4352L184.474 37.7246Z" fill="#EBEBEB"/>
<path d="M188.305 185.014L186.381 165.882L184.518 146.744C183.324 133.982 182.084 121.223 180.933 108.457L180.93 108.42L180.936 108.384L186.386 78.5863L189.15 63.6948L191.957 48.8105L189.384 63.7368L186.769 78.6557L181.461 108.479L181.464 108.407C182.682 121.168 183.811 133.937 184.986 146.701L186.676 165.855L188.305 185.014Z" fill="#EBEBEB"/>
<path d="M177.237 110.844H183.875V106.969H177.237V110.844Z" fill="#DBDBDB"/>
<path d="M224.039 26.6934H253.432V192.974H236.42L248.295 108.362L224.039 26.6934Z" fill="#DBDBDB"/>
<path d="M229.133 31.1875L234.055 50.4487L238.894 69.7301L248.566 108.295L248.578 108.343L248.573 108.392L244.001 148.722L241.712 168.886L239.334 189.041L241.438 168.856L243.63 148.681L248.02 108.331L248.026 108.429L238.535 69.8191L233.792 50.5137L229.133 31.1875Z" fill="#EBEBEB"/>
<path d="M251.686 34.5996L251.822 51.2753L251.9 67.9515L251.965 101.303L251.901 134.655L251.823 151.332L251.686 168.007L251.548 151.332L251.47 134.655L251.406 101.303L251.471 67.9515L251.55 51.2753L251.686 34.5996Z" fill="#EBEBEB"/>
<path d="M246.195 37.7246L247.365 55.4346L248.458 73.1491L250.628 108.579L250.629 108.59L250.628 108.602C250.483 115.184 250.264 121.764 250.085 128.346L249.52 148.089L248.955 167.832L248.299 187.572L248.672 167.824L249.138 148.079L249.603 128.333C249.768 121.751 249.892 115.169 250.09 108.588L250.09 108.611L248.097 73.1698L247.107 55.4492L246.195 37.7246Z" fill="#EBEBEB"/>
<path d="M242.362 185.014L243.991 165.855L245.681 146.701C246.857 133.937 247.985 121.168 249.203 108.407L249.206 108.479L243.898 78.6557L241.284 63.7368L238.711 48.8105L241.517 63.6948L244.281 78.5863L249.731 108.384L249.738 108.42L249.735 108.457C248.584 121.224 247.343 133.982 246.15 146.744L244.287 165.882L242.362 185.014Z" fill="#EBEBEB"/>
<path d="M253.435 106.969H246.797V110.843H253.435V106.969Z" fill="#DBDBDB"/>
<path d="M60.0325 48.6641H33.9062V74.7903H60.0325V48.6641Z" fill="white"/>
<path d="M32.5469 47.3047V76.1486H61.3908V47.3047H32.5469ZM60.0322 74.7895H33.906V48.6632H60.0322V74.7895Z" fill="#DBDBDB"/>
<path d="M58.1484 69.7303V60.6992L37.7857 60.6992V69.7303H58.1484Z" fill="#EBEBEB"/>
<path d="M52.1875 66.9431V56.5098H41.7541V66.9431H52.1875Z" fill="#C7C7C7"/>
<path d="M62.5045 47.3047H61.3906V76.1497H62.5045V47.3047Z" fill="#C7C7C7"/>
<path d="M60.0325 85.7617H33.9062V111.888H60.0325V85.7617Z" fill="white"/>
<path d="M45.2204 89.9434H38.3984V109.65H45.2204V89.9434Z" fill="#C7C7C7"/>
<path d="M32.5469 84.4023V113.246H61.3908V84.4023H32.5469ZM60.0322 111.887H33.906V85.7609H60.0322V111.887Z" fill="#DBDBDB"/>
<path d="M52.1822 93.6094H41.75V104.042H52.1822V93.6094Z" fill="#EBEBEB"/>
<path d="M62.5045 84.4023H61.3906V113.247H62.5045V84.4023Z" fill="#C7C7C7"/>
<path d="M60.0325 122.859H33.9062V148.986H60.0325V122.859Z" fill="white"/>
<path d="M51.1401 126.42H36.8047V134.991H51.1401V126.42Z" fill="#EBEBEB"/>
<path d="M32.5469 121.5V150.344H61.3908V121.5H32.5469ZM60.0322 148.985H33.906V122.859H60.0322V148.985Z" fill="#DBDBDB"/>
<path d="M52.1822 130.707H41.75V141.139H52.1822V130.707Z" fill="#C7C7C7"/>
<path d="M62.5045 121.5H61.3906V150.345H62.5045V121.5Z" fill="#C7C7C7"/>
<path d="M220.027 214.793C220.027 214.793 210.251 212.576 204.891 207.639C199.532 202.702 196.539 193.855 196.539 193.855C196.539 193.855 202.294 194.91 207.504 196.736C208.378 197.671 210.045 199.6 210.821 201.426C210.821 201.426 210.985 199.497 210.847 198.073C212.24 198.716 213.454 199.425 214.328 200.187C218.773 204.074 220.027 214.793 220.027 214.793Z" fill="#347B72"/>
<path d="M202.645 198.154C201.312 197.232 199.955 196.343 198.628 195.412C198.548 195.356 198.623 195.23 198.708 195.281C201.228 196.786 203.712 198.395 206.114 200.079C206.952 200.666 207.775 201.277 208.588 201.901C208.531 201.804 208.475 201.707 208.418 201.611C208.124 201.12 207.815 200.638 207.506 200.157C206.884 199.19 206.205 198.237 205.431 197.386C205.402 197.355 205.451 197.308 205.479 197.341C206.239 198.218 206.999 199.087 207.695 200.019C208.025 200.461 208.331 200.92 208.624 201.388C208.776 201.631 208.923 201.877 209.063 202.127C209.11 202.21 209.162 202.294 209.21 202.379C210.475 203.372 211.706 204.407 212.88 205.502C213.605 206.177 214.304 206.878 214.98 207.6C214.603 206.417 214.273 205.221 213.834 204.056C213.819 204.016 213.884 203.999 213.898 204.039C214.324 205.261 214.79 206.489 215.119 207.745C215.869 208.553 216.585 209.392 217.259 210.265C217.247 210.212 217.236 210.158 217.224 210.106C217.113 209.645 216.998 209.185 216.874 208.728C216.636 207.843 216.376 206.964 216.079 206.098C215.466 204.321 214.673 202.583 213.452 201.137C213.425 201.105 213.473 201.058 213.5 201.091C215.41 203.352 216.53 206.064 217.244 208.91C217.349 209.327 217.448 209.745 217.543 210.163C217.593 210.385 217.652 210.611 217.69 210.839C217.985 211.239 218.275 211.642 218.553 212.055C220.25 214.581 221.574 217.342 222.689 220.168C223.946 223.35 224.923 226.638 225.823 229.936C225.84 230.001 225.744 230.023 225.723 229.961C223.811 224.24 221.858 218.437 218.585 213.324C217.894 212.244 217.146 211.204 216.352 210.2C214.744 210.11 213.121 209.76 211.597 209.253C209.913 208.692 208.324 207.913 206.832 206.952C205.972 206.397 205.187 205.748 204.39 205.107C204.353 205.078 204.395 205.024 204.432 205.056C205.754 206.174 207.343 207.05 208.913 207.767C210.49 208.488 212.15 209.052 213.845 209.422C214.567 209.579 215.298 209.695 216.031 209.795C215.127 208.682 214.164 207.617 213.148 206.601C212.818 206.271 212.476 205.956 212.137 205.638C211.014 204.818 209.77 204.17 208.522 203.568C206.921 202.794 205.344 201.973 203.758 201.167C202.864 200.712 201.975 200.246 201.073 199.806C201.035 199.787 201.07 199.731 201.109 199.75C202.715 200.526 204.347 201.251 205.969 201.994C207.496 202.694 209.04 203.395 210.505 204.219C210.569 204.254 210.628 204.292 210.69 204.329C209.366 203.176 207.995 202.077 206.592 201.018C205.295 200.037 203.981 199.079 202.645 198.154Z" fill="#263238"/>
<path d="M203.205 203.194C204 203.543 204.81 203.852 205.596 204.22C206.406 204.598 207.173 205.041 207.941 205.496C207.975 205.516 207.943 205.563 207.91 205.547C207.13 205.174 206.341 204.825 205.568 204.436C204.778 204.039 203.996 203.614 203.186 203.258C203.146 203.241 203.165 203.177 203.205 203.194Z" fill="#263238"/>
<path d="M251.79 165.521C251.79 165.521 249.045 168.665 248.868 173.641C248.836 174.518 248.974 175.74 249.076 177.177C245.43 179.123 242.696 182.629 242.696 182.629C244.766 181.386 247.609 180.883 249.143 181.086C249.091 182.031 248.979 183.013 248.769 184.008C248.092 183.969 246.785 184.059 244.623 184.828C244.623 184.828 246.744 184.774 248.362 185.571C246.619 191.116 241.438 196.812 227.133 199.231C227.133 199.231 224.373 189.519 229.667 179.1C233.953 170.669 251.79 165.521 251.79 165.521Z" fill="#347B72"/>
<path d="M222.179 222.955C222.428 220.586 222.74 218.224 223.106 215.871C223.837 211.162 224.786 206.48 225.99 201.868C226.558 199.693 227.239 197.563 228.055 195.487C228.002 195.111 228.01 194.719 228.002 194.342C227.992 193.884 227.99 193.426 227.995 192.968C228.006 192.051 228.049 191.137 228.126 190.224C228.28 188.421 228.555 186.615 229.006 184.86C229.267 183.842 229.571 182.837 229.87 181.829C229.883 181.789 229.946 181.808 229.934 181.848C229.428 183.592 229.137 185.407 228.878 187.202C228.621 188.98 228.463 190.775 228.398 192.571C228.38 193.062 228.371 193.554 228.37 194.046C228.37 194.255 228.379 194.466 228.387 194.678C229.091 192.976 229.885 191.309 230.797 189.688C232.239 187.126 233.896 184.69 235.694 182.364C235.678 182.098 235.758 181.819 235.811 181.563C235.879 181.244 235.948 180.925 236.019 180.606C236.166 179.953 236.33 179.303 236.507 178.657C236.863 177.361 237.332 176.108 237.737 174.828C237.75 174.787 237.813 174.807 237.801 174.847C237.423 176.115 237.172 177.427 236.882 178.716C236.739 179.354 236.599 179.993 236.458 180.632C236.388 180.951 236.32 181.27 236.254 181.59C236.249 181.613 236.245 181.639 236.241 181.662C236.819 180.933 237.409 180.213 238.012 179.505C240.744 176.302 243.739 173.347 246.753 170.413C247.124 170.052 247.504 169.7 247.879 169.345C247.911 169.316 247.955 169.363 247.925 169.394C245.045 172.399 242.208 175.439 239.521 178.621C238.883 179.377 238.255 180.142 237.637 180.917C237.962 180.696 238.29 180.482 238.613 180.27C239.445 179.726 240.288 179.196 241.156 178.709C242.024 178.223 242.899 177.748 243.791 177.306C244.708 176.851 245.689 176.481 246.573 175.966C246.612 175.944 246.645 176.009 246.605 176.025C245.693 176.399 244.841 176.969 243.995 177.47C243.124 177.987 242.255 178.507 241.4 179.049C240.56 179.582 239.714 180.108 238.879 180.651C238.183 181.103 237.498 181.597 236.777 182.014C235.127 184.152 233.576 186.365 232.194 188.684C231.322 190.146 230.536 191.645 229.825 193.177C229.996 193.102 230.169 193.029 230.338 192.954C230.775 192.761 231.211 192.567 231.648 192.373C232.489 191.999 233.335 191.635 234.178 191.268C235.782 190.57 237.412 189.929 238.986 189.163C239.868 188.734 240.737 188.281 241.554 187.737C241.59 187.713 241.621 187.771 241.586 187.795C238.653 189.817 235.365 191.241 232.119 192.678L230.711 193.301C230.325 193.471 229.937 193.663 229.538 193.812C228.581 195.957 227.771 198.167 227.119 200.442C225.817 204.985 224.824 209.627 224.007 214.28C223.186 218.953 222.632 223.656 222.202 228.379C222.149 228.969 222.096 229.558 222.029 230.146C222.002 230.381 221.653 230.381 221.656 230.137C221.684 227.741 221.93 225.339 222.179 222.955Z" fill="#263238"/>
<path d="M230.885 183.45C231.147 181.995 231.535 180.574 231.927 179.15C231.938 179.109 232.001 179.128 231.991 179.169C231.629 180.566 231.37 181.991 231.107 183.41C230.839 184.855 230.602 186.308 230.399 187.764C230.396 187.789 230.358 187.789 230.359 187.763C230.454 186.315 230.628 184.878 230.885 183.45Z" fill="#263238"/>
<path d="M237.047 187.395C238.016 186.709 239.105 186.188 240.157 185.644C240.679 185.375 241.207 185.119 241.735 184.863C242.279 184.599 242.845 184.379 243.385 184.107C243.424 184.088 243.456 184.146 243.418 184.166C242.895 184.428 242.399 184.746 241.885 185.026C241.355 185.315 240.828 185.609 240.296 185.895C239.25 186.457 238.222 187.08 237.124 187.535C237.028 187.574 236.962 187.455 237.047 187.395Z" fill="#263238"/>
<path opacity="0.1" d="M219.849 197.855C219.849 197.855 210.802 195.694 206.648 189.625C202.681 183.829 201.399 173.949 201.297 173.08C201.46 173.877 203.327 182.512 209.486 186.534C214.202 189.616 218.759 192.149 219.849 197.855Z" fill="#263238"/>
<path d="M211.5 182.224C213.092 183.757 214.286 185.56 214.836 187.718C214.84 187.736 214.813 187.746 214.807 187.727C214.127 185.718 213.006 183.738 211.455 182.273C211.425 182.244 211.469 182.194 211.5 182.224Z" fill="#263238"/>
<path d="M219.851 197.856C219.851 197.856 210.805 195.694 206.65 189.625C202.683 183.829 201.401 173.949 201.299 173.081C201.291 173.04 201.289 173.02 201.289 173.02C201.289 173.02 205.627 179.187 210.188 180.76C214.749 182.333 221.159 187.774 219.851 197.856Z" fill="#347B72"/>
<path d="M202.896 176.422C203.735 178.068 204.614 179.701 205.692 181.205C206.742 182.669 208.006 183.916 209.414 185.034C210.643 186.01 211.942 186.894 213.186 187.851C213.177 187.837 213.168 187.821 213.158 187.807C212.925 187.46 212.675 187.123 212.417 186.794C211.899 186.132 211.333 185.508 210.764 184.889C209.639 183.67 208.492 182.473 207.484 181.153C206.927 180.421 206.436 179.643 206.033 178.816C206.015 178.778 206.078 178.756 206.096 178.794C207.563 181.852 210.494 183.808 212.585 186.391C212.883 186.758 213.164 187.137 213.421 187.534C213.603 187.814 213.825 188.126 213.942 188.454C215.08 189.386 216.132 190.402 217.029 191.574C216.953 190.98 216.824 190.388 216.666 189.817C216.441 189.007 216.147 188.246 215.707 187.527C215.685 187.49 215.741 187.453 215.763 187.49C216.186 188.204 216.572 188.972 216.818 189.766C217.018 190.411 217.111 191.057 217.147 191.72C217.149 191.722 217.15 191.724 217.152 191.726C217.604 192.332 218.004 192.97 218.375 193.627C218.337 193.433 218.301 193.24 218.262 193.047C218.083 192.145 217.884 191.246 217.65 190.357C217.175 188.555 216.534 186.807 215.474 185.26C215.45 185.225 215.505 185.188 215.529 185.223C216.576 186.749 217.369 188.452 217.94 190.21C218.228 191.098 218.46 192.001 218.662 192.911C218.762 193.357 218.851 193.804 218.936 194.251C218.981 194.483 219.03 194.719 219.068 194.958C219.992 196.912 220.642 199.008 221.154 201.091C222.077 204.84 222.653 208.696 223.084 212.53C223.536 216.555 223.773 220.625 223.707 224.676C223.699 225.185 223.669 225.693 223.641 226.201C223.634 226.332 223.438 226.351 223.431 226.213C223.343 224.206 223.291 222.197 223.172 220.191C223.053 218.183 222.878 216.18 222.663 214.18C222.241 210.256 221.632 206.337 220.778 202.484C220.044 199.176 219.093 195.846 217.285 192.949C216.379 191.496 215.296 190.211 214.022 189.067C212.753 187.929 211.366 186.931 210.029 185.876C208.699 184.827 207.42 183.685 206.365 182.354C205.227 180.918 204.331 179.307 203.488 177.685C203.275 177.275 203.056 176.867 202.84 176.459C202.82 176.421 202.877 176.384 202.896 176.422Z" fill="#263238"/>
<path d="M204.457 177.749C205.037 178.973 205.735 180.137 206.472 181.273C206.49 181.3 206.449 181.327 206.431 181.3C205.643 180.189 204.987 178.996 204.394 177.77C204.375 177.732 204.438 177.71 204.457 177.749Z" fill="#263238"/>
<path d="M253.045 193.855C253.045 193.855 253.189 206.713 245.501 210.424C237.815 214.14 233.692 211.044 228.469 212.287C228.469 212.287 228.474 212.287 228.478 212.281C228.681 211.974 232.409 206.616 238.338 205.14C244.437 203.619 251.196 199.212 253.045 193.855Z" fill="#347B72"/>
<path opacity="0.1" d="M253.045 193.855C253.045 193.855 253.189 206.713 245.501 210.424C237.815 214.14 233.692 211.044 228.469 212.287C228.469 212.287 228.474 212.287 228.478 212.281C228.695 212.175 232.509 210.267 237.218 209.702C242.065 209.119 251.325 205.96 253.045 193.855Z" fill="black"/>
<path d="M227.964 212.515C228.882 211.689 229.908 210.979 231.022 210.445C231.187 210.366 231.356 210.302 231.524 210.231C231.605 210.129 231.691 210.031 231.782 209.936C232.012 209.695 232.253 209.466 232.505 209.248C232.988 208.834 233.503 208.455 234.052 208.133C235.325 207.384 236.721 206.861 238.023 206.164C238.061 206.144 238.093 206.203 238.056 206.223C237.412 206.557 236.789 206.926 236.162 207.291C235.553 207.647 234.93 207.986 234.337 208.369C233.805 208.712 233.293 209.092 232.816 209.509C232.681 209.627 232.551 209.756 232.421 209.886C233.269 209.596 234.141 209.374 235.019 209.196C236.426 208.912 237.85 208.711 239.254 208.411C239.944 208.264 240.625 208.08 241.294 207.861C241.932 207.347 242.569 206.836 243.173 206.28C243.902 205.607 244.572 204.876 245.16 204.076C245.185 204.042 245.243 204.078 245.216 204.112C244.268 205.336 243.251 206.569 242.065 207.589C242.396 207.463 242.724 207.329 243.047 207.181C245.659 205.995 247.983 204.11 249.598 201.732C249.622 201.696 249.679 201.731 249.654 201.767C248.247 203.804 246.461 205.548 244.355 206.854C243.299 207.508 242.186 208.044 241.007 208.439C239.652 208.892 238.248 209.16 236.846 209.422C235.474 209.679 234.096 209.941 232.772 210.391C231.546 210.808 230.392 211.412 229.355 212.188C227.377 213.671 225.846 215.698 224.749 217.9C223.294 220.819 222.598 224.082 222.212 227.301C222.196 227.438 221.983 227.438 221.992 227.296C222.354 221.892 223.798 216.268 227.964 212.515Z" fill="#263238"/>
<path d="M236.887 208.324C237.272 207.711 237.847 207.25 238.468 206.892C239.194 206.472 239.845 206.02 240.348 205.336C240.373 205.302 240.431 205.338 240.404 205.371C239.94 205.968 239.383 206.457 238.744 206.857C238.074 207.278 237.397 207.691 236.936 208.353C236.915 208.383 236.868 208.355 236.887 208.324Z" fill="#263238"/>
<path d="M232.814 222.004L232.465 229.074L231.392 250.674H215.266L214.194 229.074L213.844 222.004H232.814Z" fill="#37474F"/>
<path d="M232.814 222.004L232.465 229.074H214.194L213.844 222.004H232.814Z" fill="#263238"/>
<path d="M233.942 219.053H212.711V225.797H233.942V219.053Z" fill="#37474F"/>
<path d="M26.5703 250.676L54.9282 250.54L83.286 250.49L140.002 250.396L196.718 250.49L225.076 250.539L253.434 250.676L225.076 250.813L196.718 250.862L140.002 250.955L83.286 250.861L54.9282 250.812L26.5703 250.676Z" fill="#263238"/>
<path d="M188.228 32.2148H91.7653C86.3786 32.2148 82.0078 36.6601 82.0078 42.1548V240.734C82.0078 246.217 86.3786 250.674 91.7653 250.674H188.228C193.62 250.674 197.997 246.217 197.997 240.734V42.1554C197.996 36.6601 193.62 32.2148 188.228 32.2148ZM191.896 234.594C191.896 239.821 187.982 244.049 183.154 244.049H96.8551C92.0161 244.049 88.1017 239.821 88.1017 234.594V49.6818C88.1017 39.0345 92.0161 38.5148 96.8551 38.5148H114.139C115.144 38.5148 115.965 39.6561 115.965 41.0712V41.6816C115.965 44.9968 117.779 45.008 120.011 45.008H159.988C162.236 45.008 164.033 44.9968 164.033 41.6816V41.0712C164.033 39.6561 164.844 38.5148 165.865 38.5148H183.154C187.982 38.5148 191.896 39.93 191.896 49.6818V234.594Z" fill="#263238"/>
<path d="M145.453 40.8669H134.549C134.177 40.8669 133.875 40.5656 133.875 40.1932C133.875 39.8214 134.176 39.5195 134.549 39.5195H145.454C145.825 39.5195 146.127 39.8208 146.127 40.1932C146.127 40.5656 145.825 40.8669 145.453 40.8669Z" fill="#37474F"/>
<path d="M191.896 49.6826V234.595C191.896 239.822 187.981 244.05 183.154 244.05H96.8549C92.016 244.05 88.1016 239.822 88.1016 234.595V49.6826C88.1016 39.0353 92.016 38.5156 96.8549 38.5156H114.139C115.143 38.5156 115.965 39.6569 115.965 41.072V41.6824C115.965 44.9976 117.779 45.0088 120.01 45.0088H159.988C162.235 45.0088 164.033 44.9976 164.033 41.6824V41.072C164.033 39.6569 164.843 38.5156 165.865 38.5156H183.154C187.981 38.5156 191.896 39.9307 191.896 49.6826Z" fill="white"/>
<path d="M191.897 49.6843V59.1399H88.1016V49.6843C88.1016 39.0319 92.0199 38.5156 96.8594 38.5156H114.14C115.143 38.5156 115.964 39.6535 115.964 41.0731V41.683C115.964 44.9971 117.783 45.0088 120.012 45.0088H159.988C162.24 45.0088 164.035 44.9971 164.035 41.683V41.0731C164.035 39.6535 164.845 38.5156 165.865 38.5156H183.157C187.985 38.5156 191.897 39.9296 191.897 49.6843Z" fill="#347B72"/>
<path d="M111.155 42.6692C111.1 42.7246 111.044 42.7795 110.989 42.8349C110.957 42.8663 110.925 42.8982 110.894 42.9301C110.445 42.4944 109.911 42.2626 109.286 42.262C108.66 42.262 108.126 42.4933 107.674 42.9318C107.644 42.901 107.615 42.8691 107.584 42.8377C107.529 42.7823 107.474 42.7268 107.419 42.672C107.418 42.6708 107.416 42.6703 107.414 42.6692C107.414 42.668 107.414 42.6664 107.414 42.6652C107.418 42.6619 107.422 42.6585 107.426 42.6552C107.497 42.5924 107.565 42.528 107.638 42.4681C107.788 42.3444 107.952 42.2424 108.126 42.1568C108.332 42.0554 108.548 41.9804 108.773 41.9389C108.88 41.9193 108.989 41.9092 109.096 41.8958C109.133 41.8913 109.372 41.8902 109.38 41.8908C109.453 41.8964 109.527 41.8997 109.6 41.9076C109.804 41.9294 110.002 41.9787 110.194 42.0492C110.333 42.1002 110.467 42.1635 110.595 42.2374C110.732 42.3152 110.86 42.4043 110.979 42.5056C111.039 42.5572 111.097 42.6115 111.155 42.6641C111.155 42.6664 111.155 42.668 111.155 42.6692Z" fill="white"/>
<path d="M108.201 43.4552C108.113 43.3679 108.027 43.2816 107.938 43.1937C108.238 42.8986 108.593 42.711 109.012 42.6544C109.636 42.5699 110.172 42.7597 110.627 43.1898C110.537 43.2794 110.45 43.3656 110.362 43.4536C110.063 43.1635 109.704 43.0072 109.282 43.0072C108.862 43.0078 108.502 43.164 108.201 43.4552Z" fill="white"/>
<path d="M110.1 43.719C110.013 43.8058 109.926 43.8932 109.837 43.9811C109.686 43.8333 109.501 43.7515 109.284 43.7521C109.068 43.7526 108.884 43.8333 108.731 43.9828C108.643 43.8949 108.556 43.8075 108.469 43.7207C108.886 43.2828 109.637 43.2481 110.1 43.719Z" fill="white"/>
<path d="M109.521 44.2193C109.521 44.3503 109.415 44.4567 109.284 44.4567C109.153 44.4567 109.047 44.3509 109.047 44.2193C109.047 44.0883 109.153 43.9824 109.284 43.9824C109.415 43.9824 109.521 44.0883 109.521 44.2193Z" fill="white"/>
<path d="M94.8672 43.174C94.8672 42.7943 95.1752 42.4863 95.5549 42.4863C95.9345 42.4863 96.2425 42.7943 96.2425 43.174C96.2425 43.5537 95.9345 43.8617 95.5549 43.8617C95.1752 43.8617 94.8672 43.5537 94.8672 43.174Z" fill="white"/>
<path d="M97.0312 43.174C97.0312 42.7943 97.3393 42.4863 97.7195 42.4863C98.0992 42.4863 98.4072 42.7943 98.4072 43.174C98.4072 43.5537 98.0992 43.8617 97.7195 43.8617C97.3393 43.8617 97.0312 43.5537 97.0312 43.174Z" fill="white"/>
<path d="M99.2031 43.174C99.2031 42.7943 99.5111 42.4863 99.8908 42.4863C100.27 42.4863 100.578 42.7943 100.578 43.174C100.578 43.5537 100.27 43.8617 99.8908 43.8617C99.5111 43.8617 99.2031 43.5537 99.2031 43.174Z" fill="white"/>
<path d="M101.367 43.174C101.367 42.7943 101.675 42.4863 102.055 42.4863C102.435 42.4863 102.743 42.7943 102.743 43.174C102.743 43.5537 102.435 43.8617 102.055 43.8617C101.675 43.8617 101.367 43.5537 101.367 43.174Z" fill="white"/>
<path d="M103.531 43.174C103.531 42.7943 103.839 42.4863 104.219 42.4863C104.599 42.4863 104.907 42.7943 104.907 43.174C104.907 43.5537 104.599 43.8617 104.219 43.8617C103.839 43.8617 103.531 43.5537 103.531 43.174Z" fill="white"/>
<path d="M184.107 44.6804H178.5V42.0781H184.107V44.6804ZM178.793 44.387H183.814V42.3716H178.793V44.387Z" fill="white"/>
<path d="M182.579 42.5234H178.969V44.2365H182.579V42.5234Z" fill="white"/>
<path d="M184.607 42.6855H184.109V44.0732H184.607V42.6855Z" fill="white"/>
<path d="M163.204 221.641H116.797V233.356H163.204V221.641Z" fill="#347B72"/>
<path d="M163.171 228.865C163.391 229.293 163.441 229.72 163.451 230.148C163.442 230.576 163.393 231.003 163.171 231.431C162.949 231.003 162.899 230.575 162.891 230.148C162.901 229.72 162.95 229.293 163.171 228.865Z" fill="#263238"/>
<path d="M160 230.203C160.459 230.349 160.796 230.616 161.105 230.912C161.402 231.22 161.669 231.558 161.814 232.017C161.355 231.872 161.017 231.604 160.709 231.308C160.414 230.999 160.146 230.662 160 230.203Z" fill="#263238"/>
<path d="M158.711 233.387C159.139 233.167 159.566 233.117 159.993 233.107C160.421 233.116 160.848 233.165 161.276 233.387C160.848 233.609 160.421 233.659 159.993 233.667C159.566 233.658 159.139 233.608 158.711 233.387Z" fill="#263238"/>
<path d="M160.047 236.552C160.193 236.093 160.46 235.756 160.756 235.447C161.064 235.15 161.402 234.883 161.861 234.738C161.715 235.197 161.448 235.535 161.152 235.843C160.843 236.139 160.506 236.406 160.047 236.552Z" fill="#263238"/>
<path d="M163.233 237.845C163.012 237.417 162.963 236.99 162.953 236.562C162.962 236.134 163.011 235.707 163.233 235.279C163.455 235.707 163.505 236.134 163.513 236.562C163.504 236.99 163.454 237.418 163.233 237.845Z" fill="#263238"/>
<path d="M166.4 236.507C165.941 236.361 165.604 236.094 165.295 235.798C164.998 235.49 164.731 235.153 164.586 234.693C165.045 234.839 165.383 235.106 165.691 235.402C165.986 235.711 166.253 236.049 166.4 236.507Z" fill="#263238"/>
<path d="M167.69 233.323C167.263 233.544 166.835 233.593 166.408 233.603C165.98 233.595 165.553 233.545 165.125 233.323C165.552 233.101 165.98 233.051 166.408 233.043C166.835 233.052 167.263 233.102 167.69 233.323Z" fill="#263238"/>
<path d="M166.353 230.156C166.207 230.615 165.94 230.952 165.644 231.261C165.336 231.558 164.998 231.825 164.539 231.97C164.685 231.511 164.952 231.173 165.248 230.865C165.557 230.57 165.894 230.302 166.353 230.156Z" fill="#263238"/>
<path d="M116.764 217.15C116.985 217.578 117.035 218.006 117.044 218.433C117.036 218.86 116.987 219.288 116.764 219.716C116.543 219.288 116.493 218.861 116.484 218.433C116.494 218.006 116.544 217.578 116.764 217.15Z" fill="#263238"/>
<path d="M113.594 218.488C114.052 218.634 114.39 218.902 114.699 219.197C114.995 219.505 115.263 219.843 115.408 220.302C114.948 220.157 114.611 219.889 114.303 219.593C114.008 219.285 113.74 218.947 113.594 218.488Z" fill="#263238"/>
<path d="M112.305 221.673C112.732 221.452 113.16 221.402 113.588 221.393C114.015 221.401 114.443 221.45 114.87 221.673C114.443 221.895 114.015 221.944 113.588 221.953C113.16 221.943 112.733 221.894 112.305 221.673Z" fill="#263238"/>
<path d="M113.641 224.837C113.787 224.379 114.054 224.042 114.35 223.732C114.658 223.436 114.995 223.168 115.454 223.023C115.309 223.483 115.042 223.82 114.746 224.128C114.437 224.423 114.099 224.691 113.641 224.837Z" fill="#263238"/>
<path d="M116.827 226.13C116.606 225.702 116.556 225.275 116.547 224.847C116.555 224.42 116.605 223.992 116.827 223.564C117.049 223.992 117.098 224.42 117.107 224.847C117.097 225.275 117.048 225.702 116.827 226.13Z" fill="#263238"/>
<path d="M119.994 224.792C119.535 224.646 119.198 224.379 118.889 224.083C118.592 223.775 118.325 223.438 118.18 222.979C118.639 223.124 118.977 223.391 119.285 223.687C119.58 223.997 119.847 224.334 119.994 224.792Z" fill="#263238"/>
<path d="M121.285 221.608C120.857 221.829 120.43 221.879 120.002 221.888C119.574 221.88 119.147 221.83 118.719 221.608C119.146 221.386 119.574 221.337 120.002 221.328C120.43 221.338 120.857 221.387 121.285 221.608Z" fill="#263238"/>
<path d="M119.947 218.441C119.8 218.9 119.533 219.237 119.238 219.546C118.93 219.843 118.592 220.11 118.133 220.255C118.278 219.796 118.546 219.458 118.842 219.15C119.15 218.855 119.488 218.588 119.947 218.441Z" fill="#263238"/>
<path d="M76.0711 193.949C76.0711 193.949 91.0337 211.787 91.0449 211.799C93.9244 215.195 96.3879 218.224 97.5163 219.909C97.5236 219.917 97.5308 219.925 97.5342 219.937C97.9604 220.572 98.1928 221.011 98.1732 221.198C98.1726 221.213 98.176 221.225 98.1715 221.236C97.7414 222.778 71.2719 246.58 70.0696 247.098C68.8667 247.625 67.2925 244.231 67.5826 242.488C67.8811 240.737 73.9358 227.096 73.9358 227.096L59.1484 209.124L76.0711 193.949Z" fill="#EB9481"/>
<path d="M87.972 208.137C87.972 208.137 91.0335 211.786 91.0442 211.799C93.9237 215.195 96.3871 218.223 97.5155 219.909C97.5228 219.917 97.5301 219.925 97.5335 219.936C97.9204 220.593 98.1523 221.048 98.1724 221.198C98.1719 221.213 98.1752 221.225 98.1707 221.236C97.7407 222.778 71.2711 246.58 70.0688 247.098C68.8659 247.625 67.2918 244.231 67.5819 242.488C67.8803 240.737 73.9351 227.096 73.9351 227.096L70.7666 223.422L87.972 208.137Z" fill="#EBEBEB"/>
<path d="M70.068 247.101C71.2726 246.581 97.7398 222.782 98.1705 221.236C98.3446 220.652 95.1017 216.593 91.0423 211.801C90.9991 211.751 90.9566 211.702 90.9134 211.652L73.6666 226.816L73.9337 227.1C73.9337 227.1 67.8773 240.741 67.5816 242.492C67.2927 244.231 68.8668 247.625 70.068 247.101Z" fill="#347B72"/>
<path d="M73.7072 226.781V226.861L73.6641 226.818L73.7072 226.781Z" fill="#020100"/>
<path opacity="0.1" d="M67.5815 242.489C67.8391 240.942 72.607 230.101 73.7051 227.609V244.102C71.6925 245.851 70.3183 246.992 70.0668 247.102C68.8639 247.624 67.2931 244.231 67.5815 242.489Z" fill="#020100"/>
<path d="M69.4437 245.806C73.8067 241.684 91.7933 225.473 96.4195 221.731C96.457 221.7 96.4794 221.724 96.4447 221.759C92.2094 225.938 74.0917 242.003 69.5093 245.879C69.4129 245.96 69.3519 245.892 69.4437 245.806Z" fill="#263238"/>
<path d="M72.5479 228.442C74.0089 226.536 76.3984 224.874 78.8647 224.919C78.9604 224.921 78.9565 225.057 78.8837 225.09C76.6605 226.101 74.728 227.205 72.7545 228.657C72.6151 228.76 72.4432 228.578 72.5479 228.442Z" fill="#263238"/>
<path d="M71.9619 230.345C73.423 228.438 75.8125 226.777 78.2787 226.821C78.3745 226.823 78.3706 226.959 78.2972 226.992C76.074 228.003 74.1415 229.108 72.168 230.56C72.0292 230.662 71.8572 230.481 71.9619 230.345Z" fill="#263238"/>
<path d="M71.3838 232.246C72.8448 230.34 75.2343 228.679 77.7011 228.724C77.7969 228.725 77.793 228.861 77.7196 228.894C75.4964 229.906 73.5638 231.01 71.5904 232.462C71.4515 232.565 71.279 232.383 71.3838 232.246Z" fill="#263238"/>
<path d="M68.84 172.34C70.1224 178.675 91.9468 211.048 91.9468 211.048L72.5607 228.791C72.5607 228.791 40.7628 187.856 42.711 173.859C44.405 161.683 62.6347 112.717 62.6347 112.717H83.666C83.666 112.717 67.5789 166.11 68.84 172.34Z" fill="#37474F"/>
<path d="M70.9086 222.945C73.7192 220.259 72.8747 220.99 75.7156 218.335C77.1055 217.036 86.2487 208.507 87.7579 207.523C87.7909 207.501 87.8357 207.55 87.8116 207.581C86.7 209 77.4102 217.367 75.9956 218.64C73.1043 221.239 73.9063 220.461 70.9859 223.028C70.9304 223.077 70.8559 222.995 70.9086 222.945Z" fill="#263238"/>
<path d="M65.2283 170.254C65.5295 168.673 65.8711 167.098 66.206 165.523C66.8903 162.306 67.6127 159.099 68.3766 155.9C69.8908 149.556 71.5305 143.247 73.3175 136.974C75.1106 130.68 77.005 124.398 79.1874 118.226C79.4573 117.464 79.7356 116.704 80.0134 115.944C80.0347 115.887 80.1237 115.913 80.1052 115.972C78.2152 122.154 76.267 128.318 74.4946 134.536C72.7294 140.728 71.0965 146.953 69.5565 153.205C68.7831 156.344 68.0641 159.496 67.3607 162.651C67.0152 164.201 66.6775 165.753 66.3483 167.307C66.0145 168.882 65.5659 170.493 65.4674 172.105C65.3705 173.688 65.8874 175.092 66.7033 176.427C67.4918 177.716 84.2873 206.397 84.8383 206.916C84.8815 206.957 84.8154 207.018 84.7723 206.979C82.4746 204.917 65.7379 176.037 65.2865 174.685C64.801 173.232 64.9466 171.732 65.2283 170.254Z" fill="#263238"/>
<path d="M73.7323 215.887C73.7323 215.887 69.1923 237.993 69.1929 238.01C69.1324 242.462 68.9997 246.364 68.7427 248.376C68.7427 248.386 68.7432 248.398 68.7382 248.408C68.6419 249.168 68.5288 249.651 68.391 249.779C68.3804 249.79 68.3753 249.801 68.3647 249.806C67.0274 250.686 31.4343 251.238 30.1872 250.84C28.9345 250.447 29.9772 246.854 31.3414 245.73C32.7162 244.606 46.2435 238.301 46.2435 238.301L51.0041 216.208L73.7323 215.887Z" fill="#EB9481"/>
<path d="M30.1865 250.84C31.4341 251.238 67.0294 250.687 68.365 249.809C68.3768 249.803 68.3824 249.791 68.3941 249.78C68.5291 249.651 68.6461 249.17 68.7397 248.409C68.7458 248.398 68.7458 248.386 68.7458 248.374C69.0034 246.365 69.1322 242.464 69.1966 238.012C69.1966 238.007 69.9823 234.164 69.9823 234.164H47.1365L46.2473 238.299C46.2473 238.299 32.7165 244.608 31.3401 245.732C29.9815 246.856 28.9332 250.447 30.1865 250.84Z" fill="#EBEBEB"/>
<path d="M30.1855 250.84C31.4354 251.24 67.0245 250.688 68.3652 249.805C68.8804 249.479 69.1021 244.288 69.1901 238.009C69.1901 237.944 69.1906 237.878 69.1912 237.812L46.2267 237.912L46.2418 238.302C46.2418 238.302 32.7139 244.606 31.3408 245.732C29.9789 246.853 28.935 250.446 30.1855 250.84Z" fill="#347B72"/>
<path d="M30.5631 249.455C36.5602 249.215 60.7706 248.811 66.7173 249.029C66.7654 249.031 66.766 249.064 66.7178 249.067C60.779 249.435 36.5658 249.642 30.5642 249.554C30.4377 249.552 30.4366 249.46 30.5631 249.455Z" fill="#263238"/>
<path d="M44.3086 238.401C46.6623 237.924 49.5558 238.242 51.3853 239.896C51.4565 239.96 51.3641 240.059 51.2873 240.037C48.9465 239.339 46.7642 238.901 44.3221 238.7C44.1501 238.685 44.1401 238.435 44.3086 238.401Z" fill="#263238"/>
<path d="M42.6208 239.454C44.9745 238.977 47.8674 239.294 49.6981 240.948C49.7692 241.012 49.6768 241.112 49.6001 241.089C47.2593 240.391 45.0769 239.954 42.6353 239.752C42.4629 239.738 42.4522 239.488 42.6208 239.454Z" fill="#263238"/>
<path d="M40.9333 240.509C43.2875 240.031 46.1805 240.349 48.0106 242.004C48.0817 242.067 47.9893 242.167 47.9126 242.144C45.5718 241.446 43.3894 241.008 40.9478 240.807C40.7754 240.793 40.7647 240.543 40.9333 240.509Z" fill="#263238"/>
<path d="M63.1079 112.716C63.1325 113.158 64.3068 117.185 64.9144 123.21C65.3529 127.611 65.9028 131.505 66.4897 131.99C67.1544 132.537 70.4775 134.672 71.5975 135.354C71.5975 135.354 61.2336 166.768 58.5601 177.239C54.6838 192.42 45.3984 237.962 45.3984 237.962L70.1381 237.958C70.1381 237.958 77.6606 194.601 80.9489 180.149C83.768 167.759 94.5687 130.589 94.5687 130.589C98.4976 120.927 93.6945 112.716 93.6945 112.716C93.6945 112.716 63.1051 112.7 63.1079 112.716Z" fill="#37474F"/>
<path d="M47.5838 233.169C51.2524 233.144 50.199 233.096 53.8676 233.116C55.663 233.125 67.4594 233.199 69.1315 233.52C69.1685 233.527 69.1674 233.593 69.1304 233.599C67.4487 233.867 55.6557 233.575 53.8609 233.529C50.1934 233.435 51.2473 233.419 47.5816 233.281C47.5133 233.279 47.515 233.169 47.5838 233.169Z" fill="#263238"/>
<path d="M64.7373 130.749C67.1487 132.021 69.4139 133.647 71.562 135.317C71.646 135.383 71.5631 135.517 71.4702 135.458C69.1574 134.009 66.788 132.598 64.5575 131.024C64.3828 130.9 64.5525 130.651 64.7373 130.749Z" fill="#263238"/>
<path d="M66.6254 113.658C66.645 113.573 66.799 113.578 66.7839 113.67C66.3068 116.609 66.0929 119.227 65.9142 122.015C65.8313 123.31 65.763 130.524 68.0562 130.353C68.4404 130.325 68.6862 129.989 68.8313 129.44C69.0054 128.779 68.8805 127.916 68.8733 127.231C68.857 125.716 68.8895 124.203 68.9942 122.692C69.1897 119.871 69.6102 117.084 70.3802 114.36C70.4054 114.271 70.5359 114.298 70.5213 114.39C69.9199 118.245 69.4232 122.108 69.4069 126.016C69.3991 127.894 69.8941 130.8 67.9313 130.784C65.9316 130.769 65.3856 125.945 65.3436 124.642C65.226 121.006 65.7916 117.189 66.6254 113.658Z" fill="#263238"/>
<path d="M67.9723 130.534C68.0989 131.039 68.1834 131.557 68.2433 132.074C68.2898 132.475 68.3699 132.913 68.2635 133.308C68.2428 133.384 68.1386 133.376 68.105 133.317C67.8967 132.947 67.857 132.48 67.7724 132.068C67.6744 131.589 67.5657 131.112 67.4812 130.632C67.4252 130.313 67.8945 130.224 67.9723 130.534Z" fill="#263238"/>
<path d="M71.9394 226.032C72.0049 225.44 72.0827 224.849 72.1634 224.259C72.3185 223.125 72.5027 221.996 72.6713 220.865C73.0095 218.591 73.3875 216.325 73.7762 214.06C74.5518 209.543 75.4489 205.041 76.3936 200.558C76.9279 198.025 77.5495 195.521 78.2041 193.018C78.2495 192.844 78.4875 192.928 78.4583 193.098C78.0602 195.389 77.6771 197.681 77.2235 199.961C76.7716 202.234 76.3214 204.508 75.884 206.785C75.0199 211.285 74.2147 215.797 73.3539 220.297C73.1109 221.567 72.8903 222.842 72.6506 224.113C72.5307 224.747 72.407 225.381 72.2754 226.012C72.1443 226.642 71.9539 227.261 71.8537 227.896C71.8442 227.956 71.7568 227.928 71.7663 227.869C71.8615 227.263 71.8716 226.643 71.9394 226.032Z" fill="#263238"/>
<path d="M55.9571 186.647C56.7809 182.542 57.8919 178.49 59.0086 174.457C61.2564 166.339 63.9035 158.339 66.5439 150.342C67.3044 148.038 68.0638 145.733 68.8265 143.429C69.2073 142.278 71.0721 136.066 71.3039 135.475C71.3275 135.415 71.4165 135.441 71.4003 135.504C70.866 137.621 70.1319 140.706 69.5147 142.801C68.9043 144.871 68.2379 146.926 67.595 148.987C66.3317 153.037 65.0459 157.081 63.819 161.142C61.3936 169.17 58.9851 177.194 57.0167 185.349C56.4656 187.633 55.9163 189.915 55.4128 192.209C54.9105 194.5 53.4131 200.182 52.9326 202.478C52.9197 202.54 52.8144 202.524 52.8206 202.46C53.2344 198.276 55.1311 190.765 55.9571 186.647Z" fill="#263238"/>
<path d="M71.3319 208.121C72.6938 200.29 74.3251 192.501 76.1322 184.761C77.9483 176.983 79.9705 169.254 82.1981 161.584C84.4258 153.915 86.8949 146.313 89.547 138.78C90.8037 135.209 92.0821 131.632 92.907 127.931C93.7224 124.273 94.1368 120.316 93.285 116.627C93.0683 115.689 92.7956 114.773 92.4394 113.878C92.4148 113.817 92.5044 113.765 92.5318 113.827C95.5071 120.759 93.5762 128.343 91.311 135.178C90.0701 138.923 88.7457 142.639 87.5221 146.389C86.266 150.239 85.062 154.106 83.9101 157.988C81.627 165.682 79.5073 173.421 77.6084 181.219C75.71 189.015 74.0188 196.862 72.5303 204.747C71.0368 212.659 69.7818 220.605 68.5084 228.555C68.3426 229.589 68.2116 230.629 68.0761 231.667C68.0688 231.725 67.9775 231.724 67.9848 231.665C68.9373 223.787 69.9722 215.94 71.3319 208.121Z" fill="#263238"/>
<path d="M47.5621 59.301L51.7391 76.5484C51.9183 77.0547 51.6607 77.4629 51.1646 77.4584L42.2852 77.3767C41.7896 77.3722 41.2408 76.9567 41.0622 76.4504L36.8851 59.203C36.7059 58.6956 36.9635 58.2885 37.4591 58.293L46.3385 58.3748C46.8346 58.3787 47.3823 58.7931 47.5621 59.301Z" fill="#37474F"/>
<path d="M46.5079 59.2815L50.685 76.5289C50.8642 77.0357 50.6066 77.4434 50.1104 77.4389L41.2311 77.3572C40.7355 77.3527 40.1867 76.9372 40.0075 76.4309L35.8304 59.1835C35.6512 58.6761 35.9088 58.269 36.4044 58.2735L45.2838 58.3552C45.7805 58.3597 46.3287 58.7736 46.5079 59.2815Z" fill="#455A64"/>
<path d="M44.0626 60.0457C44.0676 60.4623 44.4098 60.7955 44.8264 60.7905C45.243 60.7849 45.5762 60.4427 45.5712 60.0261C45.5656 59.6095 45.224 59.2763 44.8068 59.2813C44.3907 59.2869 44.057 59.6291 44.0626 60.0457Z" fill="#263238"/>
<path d="M71.7208 81.1064C67.8036 91.1136 58.4018 104.395 54.1721 104.729C52.1594 104.889 48.5939 105.608 45.7978 103.468C39.6961 98.7974 35.1478 91.542 33.7825 87.2899C33.1704 85.3837 44.1352 79.1822 45.6024 80.7413C48.7731 84.1091 51.8531 88.6765 52.4355 88.5936C54.5915 88.2862 61.8519 81.2934 67.4385 75.9337C74.2218 69.4265 73.2821 77.1181 71.7208 81.1064Z" fill="#EB9481"/>
<path d="M32.8516 74.7478C33.9699 70.3456 34.9325 69.3869 33.9032 65.1706C33.2279 62.4037 34.7046 60.7853 36.6652 63.0057C39.8717 66.6378 39.622 72.6203 38.9382 74.6694L32.8516 74.7478Z" fill="#EB9481"/>
<path d="M33.7822 87.2902C33.7822 87.2902 31.6587 81.7081 32.3862 76.8988C32.889 73.573 34.7902 66.4598 44.1025 62.709C46.3111 61.8191 50.0894 62.1182 47.01 64.8812C44.8221 66.844 42.8419 67.4281 41.7774 68.8012C41.7774 68.8012 46.5385 69.7515 47.3432 71.9988C47.7027 73.0034 48.6206 75.7682 49.0282 78.0222C49.0282 78.0222 48.5612 78.2428 47.9295 78.4382C47.9295 78.4382 48.6172 80.5662 47.0386 83.5835L33.7822 87.2902Z" fill="#EB9481"/>
<path d="M33.375 73.8003C34.7201 72.6607 37.6108 70.2925 40.6494 69.1781C44.0245 67.9399 50.8593 66.4649 51.7475 68.9658C52.3988 70.7998 49.8384 71.5922 49.8384 71.5922C49.8384 71.5922 52.7919 71.5782 53.0181 73.3635C53.2242 74.9903 51.2065 75.4848 51.2065 75.4848C51.2065 75.4848 52.9996 75.7844 52.896 77.3893C52.7717 79.3202 49.0337 78.3755 47.2182 80.2224C46.8111 80.6368 33.375 73.8003 33.375 73.8003Z" fill="#EB9481"/>
<path d="M41.36 72.9623C42.8003 72.0977 46.5758 70.9738 49.7802 71.5433C49.853 71.5562 49.8821 71.6178 49.8132 71.62C46.1525 71.7421 42.7818 72.5608 41.3718 72.9943C41.3527 72.9999 41.3438 72.9719 41.36 72.9623Z" fill="#263238"/>
<path d="M42.7125 76.3328C44.0324 75.7145 47.9754 74.73 51.2021 75.4183C51.2743 75.434 51.2995 75.4978 51.2307 75.4972C47.4008 75.4676 44.1556 76.0169 42.7226 76.3652C42.703 76.3697 42.6957 76.3406 42.7125 76.3328Z" fill="#263238"/>
<path d="M59.4922 81.9197L60.993 83.7341L61.301 84.1093L67.2706 91.3333C67.2706 91.3333 72.6802 82.4965 73.7722 77.4733C74.4274 74.4549 73.957 72.6741 72.641 72.3493C72.5458 72.3269 72.445 72.3101 72.3442 72.3045C71.493 72.2317 70.3506 72.6797 68.9842 73.6877C65.137 76.5325 59.4922 81.9197 59.4922 81.9197Z" fill="#347B72"/>
<path d="M72.237 72.9319C72.3882 72.7471 72.5226 72.5511 72.6402 72.3495C72.545 72.3271 72.4442 72.3103 72.3434 72.3047C72.293 72.5063 72.2594 72.7191 72.237 72.9319ZM60.9922 83.7343L61.3002 84.1095C61.4682 83.6447 61.6026 83.1687 61.653 82.6591C61.3786 82.9951 61.1714 83.3591 60.9922 83.7343ZM68.6026 81.5167C68.6642 82.1159 68.849 82.6647 69.0618 83.1967C69.297 83.7231 69.5546 84.2383 69.941 84.7031C69.8794 84.1039 69.6946 83.5551 69.4818 83.0231C69.2466 82.4967 68.989 81.9815 68.6026 81.5167Z" fill="white"/>
<path d="M68.4299 88.3274C68.1068 87.568 64.7854 83.0046 62.019 80.1077C61.977 80.0634 61.9121 80.1206 61.9479 80.1693C62.2111 80.5254 67.6969 87.8553 68.3336 88.4097C68.3862 88.4556 68.4529 88.3817 68.4299 88.3274Z" fill="#263238"/>
<path opacity="0.05" d="M63.4531 86.7154L67.2729 91.3309C67.2729 91.3309 72.6842 82.4975 73.7767 77.4715C74.5305 74.0051 73.7963 72.1644 72.0004 72.3021L63.4531 86.7154Z" fill="black"/>
<path d="M62.3666 113.933C63.1332 114.764 95.4984 118.212 95.6832 117.988C96.1788 117.384 93.2018 84.674 79.9416 72.6911C77.6047 70.5793 73.4781 71.1819 71.5646 72.2672C70.6086 72.8092 68.9471 77.3312 67.3192 82.6087C66.0754 86.6407 61.8844 113.403 62.3666 113.933Z" fill="#347B72"/>
<path d="M72.2404 72.9324C72.5596 72.546 72.7892 72.1204 72.9908 71.6836C72.806 71.734 72.6324 71.7956 72.4644 71.8572C72.358 72.2044 72.274 72.5572 72.2404 72.9324ZM68.3316 95.7692C68.7124 95.3044 68.97 94.7836 69.194 94.2516C69.4012 93.7196 69.5804 93.1708 69.6364 92.5716C69.2556 93.0364 68.998 93.5572 68.774 94.0836C68.5668 94.6212 68.3876 95.17 68.3316 95.7692ZM83.4964 90.0236C83.8772 89.5588 84.1292 89.038 84.3532 88.5116C84.566 87.974 84.7452 87.4252 84.7956 86.826C84.4204 87.2908 84.1628 87.8116 83.9388 88.338C83.726 88.8756 83.5468 89.4244 83.4964 90.0236ZM93.414 103.744C93.5484 103.576 93.6716 103.413 93.778 103.234V103.228C93.7388 103.032 93.694 102.831 93.6492 102.629C93.5372 102.988 93.4476 103.357 93.414 103.744ZM75.6116 114.316C75.9924 113.852 76.25 113.331 76.474 112.804C76.6812 112.267 76.8604 111.718 76.9164 111.119C76.5356 111.584 76.2836 112.104 76.054 112.631C75.8468 113.168 75.6676 113.717 75.6116 114.316ZM76.9892 77.8492C77.4596 78.23 77.9748 78.482 78.5068 78.706C79.0444 78.9132 79.5932 79.0924 80.1924 79.1484C79.722 78.7676 79.2068 78.5156 78.6748 78.2916C78.1372 78.0788 77.5884 77.8996 76.9892 77.8492ZM82.1356 95.8028C82.606 96.1836 83.1212 96.4412 83.6532 96.6652C84.1908 96.8724 84.7396 97.0516 85.3388 97.1076C84.8684 96.7268 84.3532 96.4748 83.8212 96.2452C83.2836 96.038 82.7348 95.8588 82.1356 95.8028ZM63.8516 101.806C64.378 102.008 64.9212 102.181 65.5092 102.237C65.0444 101.856 64.5236 101.599 63.9972 101.375C63.9748 101.364 63.9468 101.358 63.9244 101.347C63.8964 101.504 63.874 101.655 63.8516 101.806ZM92.658 111.214C92.7196 111.813 92.9044 112.356 93.1172 112.888C93.3468 113.42 93.61 113.936 93.9964 114.395C93.9348 113.796 93.75 113.247 93.5316 112.715C93.302 112.188 93.0388 111.673 92.658 111.214ZM68.606 81.5172C68.6676 82.1164 68.8524 82.6652 69.0652 83.1972C69.3004 83.7236 69.558 84.2388 69.9444 84.7036C69.8828 84.1044 69.698 83.5556 69.4852 83.0236C69.25 82.4972 68.9924 81.982 68.606 81.5172ZM74.9228 99.4484C74.9844 100.048 75.1692 100.596 75.3876 101.128C75.6172 101.655 75.8804 102.17 76.2668 102.629C76.2052 102.03 76.0204 101.487 75.802 100.955C75.5724 100.428 75.3092 99.9132 74.9228 99.4484ZM82.8468 108.347C83.446 108.285 83.9892 108.1 84.5268 107.882C85.0532 107.652 85.5684 107.389 86.0276 107.003C85.4284 107.064 84.8852 107.255 84.3532 107.468C83.8212 107.703 83.3116 107.96 82.8468 108.347ZM66.674 109.047C67.2676 108.985 67.8164 108.8 68.3484 108.588C68.8804 108.352 69.39 108.095 69.8548 107.708C69.2556 107.77 68.7068 107.955 68.1748 108.173C67.6484 108.403 67.1332 108.666 66.674 109.047ZM74.0212 89.094C74.6204 89.0324 75.1692 88.8476 75.7012 88.6348C76.2276 88.3996 76.7428 88.142 77.2076 87.7556C76.6084 87.8172 76.0596 88.002 75.5276 88.2204C75.0012 88.45 74.486 88.7132 74.0212 89.094Z" fill="white"/>
<path d="M83.9222 76.5146C92.0282 86.3051 98.742 98.8032 97.8556 102.123C96.88 105.776 88.2448 118.471 82.3178 123.477C80.7537 124.798 71.1228 111.807 72.7362 110.327C75.8414 107.478 82.5547 99.567 83.4647 98.3445C84.2302 97.3164 80.9861 89.8544 78.6901 81.2595C76.9312 74.6739 79.8051 71.5418 83.9222 76.5146Z" fill="#EB9481"/>
<path d="M56.5101 121.449C56.8181 123.117 58.5619 123.331 58.5619 123.331C58.5619 123.331 58.0288 124.576 58.4959 125.791C59.0312 127.182 61.4471 126.952 61.4471 126.952C61.4471 126.952 61.1682 128.324 61.7909 129.558C62.4371 130.838 64.9079 130.954 64.9079 130.954C64.9079 130.954 65.3503 132.375 66.6534 133.055C68.8811 134.217 72.1895 132.273 74.3052 131.058C76.4209 129.844 81.2845 124.417 82.316 123.478L74.6384 109.832C74.6384 109.832 63.6019 112.579 61.3171 114.36C59.3919 115.86 56.164 119.576 56.5101 121.449Z" fill="#EB9481"/>
<path d="M58.529 123.058C60.1928 120.971 62.3824 119.491 64.4846 117.888C64.5317 117.853 64.5865 117.927 64.5395 117.962C62.4305 119.531 60.6604 121.499 58.6181 123.149C58.5615 123.194 58.4842 123.114 58.529 123.058Z" fill="#263238"/>
<path d="M61.3869 126.748C61.7773 126.288 62.3188 125.957 62.8127 125.618C63.3441 125.254 63.8823 124.899 64.4255 124.552C65.513 123.857 66.6168 123.186 67.7396 122.55C67.7894 122.522 67.8449 122.59 67.7939 122.623C66.7114 123.317 65.639 124.028 64.5862 124.767C64.0593 125.137 63.5357 125.512 63.0149 125.889C62.5299 126.241 62.0477 126.653 61.4933 126.89C61.4116 126.925 61.3281 126.818 61.3869 126.748Z" fill="#263238"/>
<path d="M64.9515 130.923C65.2746 130.509 65.8469 130.244 66.2893 129.974C66.7916 129.668 67.2917 129.359 67.7907 129.047C68.788 128.423 69.7848 127.799 70.7598 127.141C70.8085 127.109 70.8634 127.181 70.8147 127.214C69.8274 127.888 68.8496 128.575 67.8562 129.239C67.3684 129.566 66.879 129.889 66.3879 130.21C65.9701 130.484 65.4796 130.872 64.9812 130.973C64.9532 130.98 64.9352 130.943 64.9515 130.923Z" fill="#263238"/>
<path d="M80.1636 90.1056L92.7401 87.7295C92.7401 87.7295 87.3686 78.2929 83.3125 74.7487C79.2564 71.2045 76.756 72.2623 77.4185 77.2295C78.081 82.1967 80.1636 90.1056 80.1636 90.1056Z" fill="#347B72"/>
<path d="M77.4181 77.2317C77.4461 77.4557 77.4797 77.6909 77.5189 77.9261C77.5301 78.0325 77.5469 78.1389 77.5637 78.2453C78.3421 83.2013 80.1621 90.1061 80.1621 90.1061L83.5781 89.4621L83.9197 89.3949L92.7397 87.7317C92.7397 87.7317 90.4605 83.7277 87.7557 79.9589C87.6661 79.8357 87.5765 79.7069 87.4813 79.5837C86.1093 77.7021 84.6421 75.9101 83.3149 74.7509C79.2549 71.2061 76.7573 72.2645 77.4181 77.2317Z" fill="#347B72"/>
<path d="M86.022 80.4402C86.6268 80.3786 87.17 80.1938 87.7076 79.981C87.7244 79.9754 87.7356 79.9698 87.7524 79.9586C87.6628 79.8354 87.5732 79.7066 87.478 79.5834C86.9628 79.8074 86.4756 80.0706 86.022 80.4402ZM77.5156 77.9258C77.5268 78.0322 77.5436 78.1386 77.5604 78.245C77.8628 78.4242 78.1764 78.5698 78.5012 78.7042C79.0388 78.9114 79.5876 79.0906 80.1868 79.1466C79.7164 78.7658 79.2012 78.5138 78.6692 78.2898C78.294 78.1442 77.9132 78.0098 77.5156 77.9258ZM83.5748 89.4618L83.9164 89.3946C84.0844 89.109 84.2188 88.8122 84.3476 88.5098C84.5604 87.9722 84.7396 87.4234 84.79 86.8242C84.4148 87.289 84.1572 87.8098 83.9332 88.3362C83.7876 88.7002 83.6588 89.0754 83.5748 89.4618Z" fill="white"/>
<path d="M90.5737 85.1419C89.7135 85.0539 83.8453 85.7931 79.7875 86.8655C79.7259 86.8818 79.7455 86.9703 79.8077 86.9619C80.268 86.9003 89.7695 85.5753 90.6006 85.2718C90.6694 85.2471 90.6353 85.148 90.5737 85.1419Z" fill="#263238"/>
<path d="M77.8914 82.6424C77.8836 82.6038 77.9379 82.5904 77.9547 82.6228C78.1647 83.0221 78.3164 83.4488 78.4805 83.8683C78.518 83.9652 78.5522 84.0632 78.588 84.1606C78.4178 83.0938 78.2649 82.0259 78.1165 80.9636C78.1092 80.9126 78.1865 80.8992 78.1955 80.9501C78.8703 84.603 79.4756 86.353 80.2456 89.9824C80.6152 89.9415 80.9843 89.9012 81.3539 89.8603C81.4396 89.8508 81.4603 89.9723 81.3768 89.9924C80.9708 90.0876 80.5654 90.1834 80.16 90.2786C80.1028 90.292 80.0267 90.2534 80.006 90.1974C79.1531 87.9171 79.1206 87.3291 78.7129 84.9222C78.5696 84.5924 78.4223 84.2631 78.2974 83.926C78.1417 83.5054 77.9816 83.0832 77.8914 82.6424Z" fill="#263238"/>
<path d="M72.4803 77.7326C74.4123 78.4113 78.1352 75.744 79.739 73.4329C79.8482 73.2739 79.7782 71.4729 79.7973 69.2805C79.8141 67.9499 79.8639 66.4693 80.0067 65.1214C80.0375 64.8448 71.334 66.2778 71.334 66.2778C71.334 66.2778 71.8649 69.1915 71.6011 71.5401C71.577 71.7361 71.5378 71.917 71.4846 72.0872C71.479 72.1124 71.4684 72.1421 71.4628 72.1774C71.18 73.21 70.6138 77.0752 72.4803 77.7326Z" fill="#EB9481"/>
<path d="M79.4851 65.1016C78.8511 67.3388 76.8486 72.6946 72.3266 72.3177C72.0119 72.292 71.7251 72.2455 71.4664 72.1788C71.4681 72.1408 71.4804 72.1144 71.4871 72.0876C71.5387 71.9156 71.5801 71.7376 71.6053 71.5427C71.8691 69.1896 71.3359 66.2759 71.3359 66.2759C71.3359 66.2759 77.6147 65.2421 79.4851 65.1016Z" fill="#263238"/>
<path d="M82.3237 61.5332C82.3237 61.5332 82.163 63.5906 82.3237 64.3114C82.4845 65.0315 84.0665 65.8351 84.0665 65.8351C84.0665 65.8351 82.2129 66.422 81.696 66.2803C81.1791 66.1386 80.385 64.7767 80.385 64.7767C80.385 64.7767 81.0867 66.9378 81.8265 67.075C82.2857 67.1601 80.6902 67.1231 80.6902 67.1231C80.6902 67.1231 79.8396 67.0621 79.3182 66.4298C78.7969 65.7976 82.3237 61.5332 82.3237 61.5332Z" fill="#263238"/>
<path d="M81.5053 54.4731C82.4253 57.4875 80.8344 66.1967 78.6901 68.1387C75.5816 70.9539 70.4929 71.2232 68.1005 67.4869C65.7816 63.8654 68.0569 52.5523 70.4514 50.7877C73.9794 48.1882 80.1461 50.0205 81.5053 54.4731Z" fill="#EB9481"/>
<path d="M72.982 59.7936C72.9915 59.7723 73.0218 59.8311 73.0156 59.8547C72.8706 60.4337 72.8022 61.1208 73.2878 61.4283C73.3029 61.4378 73.2945 61.4669 73.2755 61.4596C72.6522 61.23 72.7524 60.3189 72.982 59.7936Z" fill="#263238"/>
<path d="M73.6366 59.2976C74.5892 59.4298 74.2548 61.3254 73.3723 61.2033C72.5032 61.0824 72.838 59.1868 73.6366 59.2976Z" fill="#263238"/>
<path d="M69.6897 59.2314C69.6892 59.2079 69.6388 59.251 69.6354 59.2751C69.5503 59.8653 69.3537 60.5278 68.7881 60.6292C68.7708 60.6325 68.7669 60.6622 68.787 60.6628C69.4517 60.6857 69.7043 59.8043 69.6897 59.2314Z" fill="#263238"/>
<path d="M69.2716 58.5247C68.3397 58.2867 67.9315 60.1677 68.7944 60.3884C69.6445 60.6062 70.0528 58.7246 69.2716 58.5247Z" fill="#263238"/>
<path d="M74.5282 58.2249C74.2813 58.1157 74.0713 57.9735 73.8377 57.8402C73.5745 57.6896 73.3494 57.5966 73.2083 57.3133C73.1327 57.1615 73.2156 56.9257 73.3561 56.8384C73.6837 56.6351 74.0522 56.7398 74.3764 56.9078C74.7281 57.0904 74.9527 57.3211 75.1101 57.6845C75.2624 58.0368 74.8541 58.3689 74.5282 58.2249Z" fill="#263238"/>
<path d="M68.5538 57.4207C68.8231 57.4448 69.0757 57.4224 69.3439 57.419C69.6475 57.4151 69.8894 57.4431 70.1498 57.2633C70.2898 57.167 70.3312 56.9212 70.2506 56.7767C70.0624 56.4401 69.6895 56.3528 69.3243 56.3427C68.9279 56.3315 68.6199 56.425 68.3063 56.6664C68.0022 56.9005 68.1987 57.3888 68.5538 57.4207Z" fill="#263238"/>
<path d="M73.2253 65.2531C73.1094 65.4155 73.0025 65.63 72.793 65.6855C72.592 65.7392 72.3361 65.6894 72.1356 65.6502C72.116 65.6463 72.1003 65.6692 72.1154 65.6849C72.3081 65.8831 72.6536 65.9671 72.9173 65.8708C73.1749 65.7767 73.2657 65.5236 73.2864 65.2694C73.2897 65.2341 73.2427 65.2291 73.2253 65.2531Z" fill="#263238"/>
<path d="M72.6904 63.5544C72.2721 64.0063 71.7396 64.1995 71.1986 64.2085C70.9573 64.2141 70.7103 64.1788 70.4734 64.1144C70.4264 64.1049 70.3799 64.0914 70.339 64.0746C70.297 64.0618 70.2595 64.05 70.2141 64.0321C70.1475 64.0097 70.1195 63.9464 70.1195 63.8798L70.1206 63.8753C70.1251 63.854 70.1285 63.8366 70.1369 63.8159C70.1369 63.8159 70.1368 63.8159 70.1374 63.8115L70.1475 63.7599C70.2147 63.3058 70.3805 62.6259 70.3805 62.6259C70.2007 62.6797 69.2913 62.9099 69.3461 62.6758C69.8081 60.741 70.3211 58.5894 71.1891 56.7616C71.2148 56.7 71.3106 56.7319 71.2938 56.7958C70.9237 58.6729 70.2259 60.4722 69.8238 62.3521C70.1105 62.2972 70.5826 62.1858 70.8184 62.2323C70.8794 62.2619 70.4757 63.5404 70.4617 63.747C70.4617 63.747 70.46 63.7554 70.4617 63.7694C71.2042 64.0002 71.8174 63.8719 72.6445 63.4923C72.6944 63.4665 72.7341 63.5141 72.6904 63.5544Z" fill="#263238"/>
<path d="M81.004 62.1558C79.445 61.6876 78.7237 56.4281 78.7237 56.4281L78.3832 59.3082C78.3832 59.3082 77.1921 58.3192 76.6444 57.0178C76.2535 56.0888 76.3975 54.7974 76.5554 54.1646C76.5554 54.1646 74.7987 55.9588 72.7911 56.4595C72.053 56.6437 67.1283 55.988 67.1328 55.6514C67.1457 54.6479 68.838 51.6468 70.2145 50.7374C71.7982 49.6908 74.0544 48.6878 77.2755 49.9724C80.4961 51.2576 81.3148 53.3504 81.7723 54.9704C82.2293 56.5905 81.5769 62.3277 81.004 62.1558Z" fill="#263238"/>
<path d="M79.642 61.5705C79.642 61.5705 81.667 58.7941 82.9309 59.5221C84.1948 60.2495 82.6324 64.3017 81.1215 64.8297C79.6106 65.3578 79.0938 63.969 79.0938 63.969L79.642 61.5705Z" fill="#EB9481"/>
<path d="M82.4514 60.6719C82.4755 60.6703 82.4794 60.7039 82.4587 60.7123C81.3986 61.1177 80.8251 62.0815 80.4175 63.085C80.7383 62.7019 81.1684 62.4975 81.6819 62.88C81.7088 62.9002 81.6819 62.9427 81.6523 62.9355C81.2233 62.8347 80.9108 62.903 80.6129 63.2423C80.4018 63.4826 80.2551 63.7883 80.1016 64.0678C80.0501 64.1607 79.8815 64.107 79.9196 63.9995C79.9224 63.9916 79.9258 63.9832 79.9286 63.9754C79.9291 62.6336 81.0088 60.7778 82.4514 60.6719Z" fill="#263238"/>
<path d="M73.1641 49.3772C74.1429 48.9684 75.31 48.5456 76.6601 48.3988C78.0103 48.2521 82.2534 48.6525 83.2581 49.5211C84.2627 50.3896 84.4637 54.3976 84.4811 54.9839C84.499 55.5708 84.1765 59.1055 82.8801 59.9382C81.5837 60.7709 81.5629 54.7554 79.5721 52.7265C77.5819 50.6976 73.1641 49.3772 73.1641 49.3772Z" fill="#347B72"/>
<path opacity="0.1" d="M73.1641 49.3788C73.1641 49.3788 77.5836 50.6987 79.5727 52.7276C81.5646 54.7537 81.5848 60.7709 82.8829 59.9398C83.4541 59.5725 83.7374 59.0181 83.9861 58.0818C83.7475 56.32 83.0828 53.5816 81.6497 51.6681C80.3074 49.8755 77.9621 48.9414 75.441 48.6133C74.5943 48.8104 73.8361 49.0977 73.1641 49.3788Z" fill="black"/>
<path d="M82.4694 63.5022C82.3815 61.8972 80.8247 57.5802 79.157 55.0921C77.4893 52.604 72.488 51.0825 71.7846 51.1111C70.0772 51.1805 69.4903 51.6873 69.2226 51.5305C68.9549 51.3732 70.7329 50.121 71.2179 49.8416C71.7028 49.5627 73.0054 48.9058 73.7468 48.9366C74.4883 48.9668 79.0523 49.4988 80.6813 51.4762C82.3104 53.4541 84.5688 58.9578 84.1147 60.3494C84.0055 60.6832 83.5552 60.892 83.4052 61.3652C83.2075 61.9868 83.0647 62.7076 82.8687 63.141C82.7102 63.4916 82.4767 63.6422 82.4694 63.5022Z" fill="#347B72"/>
<path d="M78.7787 53.9822C79.1763 53.7458 79.5475 53.4877 79.9009 53.1881C80.2492 52.8924 80.5975 52.5626 80.8663 52.1918C80.8859 52.1644 80.9302 52.1879 80.9123 52.2182C80.6664 52.6359 80.3954 53.0167 80.0303 53.3404C79.6797 53.6506 79.2552 53.9054 78.8139 54.065C78.7652 54.0824 78.7355 54.0079 78.7787 53.9822Z" fill="#263238"/>
<path d="M82.5108 61.9008C82.5573 61.786 82.6351 61.6846 82.6922 61.5743C82.7572 61.4483 82.811 61.3173 82.8485 61.1806C82.9196 60.9191 82.9162 60.6514 83.0439 60.4056C83.1447 60.2107 83.2875 60.0449 83.4286 59.8786C83.5894 59.6893 83.7484 59.4911 83.7551 59.2329C83.7562 59.1988 83.8089 59.1982 83.8083 59.2324C83.8022 59.7196 83.4695 60.0595 83.25 60.4633C83.1094 60.722 83.1111 61.0182 83.0165 61.2921C82.9364 61.5245 82.8014 61.8218 82.5819 61.954C82.5483 61.9747 82.4946 61.9411 82.5108 61.9008Z" fill="#263238"/>
<path d="M81.9884 60.161C82.1436 59.9807 82.3093 59.8205 82.4476 59.6245C82.5798 59.4364 82.6963 59.2348 82.8021 59.0309C82.9068 58.8293 82.9948 58.6199 83.095 58.4166C83.2137 58.1758 83.3621 57.9468 83.4691 57.7015C83.4825 57.6701 83.5284 57.697 83.515 57.7284C83.4041 57.9832 83.3375 58.2581 83.235 58.5168C83.1465 58.7397 83.0356 58.9564 82.9186 59.1659C82.806 59.3675 82.6789 59.559 82.53 59.736C82.3883 59.9034 82.2063 60.0888 82.0058 60.1845C81.9912 60.1912 81.9772 60.1739 81.9884 60.161Z" fill="#263238"/>
<path d="M81.4312 58.5849C81.7666 58.3088 82.0785 57.9767 82.3205 57.615C82.559 57.2577 82.7774 56.8847 82.9913 56.5123C83.0059 56.4871 83.0513 56.5039 83.0401 56.5325C82.8805 56.9519 82.7253 57.3686 82.4672 57.7398C82.3451 57.9157 82.2101 58.096 82.05 58.2394C81.8753 58.395 81.6714 58.5194 81.4653 58.6291C81.4385 58.6426 81.4054 58.6062 81.4312 58.5849Z" fill="#263238"/>
<path d="M80.8231 57.0741C81.0062 56.97 81.1261 56.8137 81.2554 56.6525C81.3971 56.4755 81.5349 56.2941 81.667 56.1098C81.7936 55.9323 81.9247 55.7587 82.0512 55.5812C82.1783 55.4025 82.3055 55.2161 82.3486 54.9977C82.3542 54.9685 82.4029 54.9741 82.4006 55.0044C82.3866 55.2278 82.3049 55.4294 82.2058 55.6277C82.0977 55.8449 81.9767 56.0533 81.8328 56.2481C81.6911 56.4402 81.5405 56.625 81.3758 56.7975C81.2319 56.9476 81.0628 57.1016 80.8528 57.1425C80.8125 57.1497 80.7845 57.0965 80.8231 57.0741Z" fill="#263238"/>
<path d="M80.3943 55.1637C80.5455 55.0204 80.695 54.877 80.8344 54.7225C80.9733 54.5685 81.1044 54.4072 81.2332 54.2448C81.3676 54.0751 81.5081 53.9054 81.6313 53.7273C81.6509 53.6993 81.6918 53.7229 81.6778 53.7542C81.586 53.9536 81.4941 54.1479 81.3726 54.3321C81.2533 54.5125 81.12 54.6805 80.9767 54.8423C80.8361 55.0008 80.6883 55.157 80.5281 55.2965C80.3736 55.4309 80.1983 55.5871 80.0012 55.6521C79.972 55.6616 79.9401 55.6246 79.9586 55.5977C80.0745 55.4314 80.2487 55.3021 80.3943 55.1637Z" fill="#263238"/>
<path d="M77.5698 53.0503C77.7311 52.856 77.8884 52.6661 78.0676 52.488C78.2496 52.3072 78.4451 52.1375 78.6455 51.9779C79.0392 51.6654 79.4503 51.3809 79.9033 51.1608C79.9285 51.1485 79.961 51.1821 79.9358 51.2023C79.1669 51.8384 78.3706 52.4432 77.6073 53.0872C77.5815 53.1096 77.5474 53.0766 77.5698 53.0503Z" fill="#263238"/>
<path d="M76.6178 51.6625C76.783 51.4726 76.9667 51.303 77.1705 51.1557C77.5973 50.8471 78.075 50.6226 78.5566 50.4148C78.5874 50.4014 78.6131 50.4417 78.5834 50.4607C78.1634 50.7295 77.7384 50.9922 77.3341 51.285C77.1347 51.4295 76.9354 51.579 76.7534 51.7442C76.5697 51.9111 76.428 52.1122 76.2533 52.2852C76.2398 52.2986 76.2135 52.2858 76.2197 52.2656C76.293 52.041 76.4649 51.8378 76.6178 51.6625Z" fill="#263238"/>
<path d="M75.2954 51.0113C75.4477 50.8237 75.6197 50.6574 75.8067 50.5045C76.1612 50.215 76.5593 49.9949 76.9889 49.8376C77.0174 49.8269 77.0353 49.8712 77.0096 49.8863C76.6165 50.1137 76.2401 50.3769 75.8913 50.6686C75.716 50.8148 75.5491 50.9704 75.38 51.1233C75.2114 51.2756 75.0681 51.4694 74.8849 51.6033C74.8698 51.6145 74.8536 51.5937 74.8614 51.5797C74.9689 51.3742 75.1504 51.19 75.2954 51.0113Z" fill="#263238"/>
<path d="M74.3446 50.1972C74.5154 50.0628 74.6923 49.9385 74.8704 49.8147C75.0463 49.6926 75.226 49.5728 75.4327 49.5112C75.4635 49.5017 75.4758 49.5425 75.4534 49.5599C75.1207 49.8147 74.7931 50.0785 74.4667 50.3405C74.1587 50.5875 73.9498 50.9095 73.7017 51.2108C73.6905 51.2242 73.6675 51.2102 73.6726 51.194C73.8025 50.7997 74.017 50.4548 74.3446 50.1972Z" fill="#263238"/>
<path d="M73.1475 49.9178C73.4583 49.6193 73.8336 49.4306 74.2284 49.2693C74.2558 49.2581 74.2765 49.3051 74.2491 49.318C73.8823 49.4905 73.5597 49.7598 73.264 50.0331C72.9622 50.3114 72.7141 50.6351 72.4806 50.9711C72.4694 50.9868 72.4392 50.9784 72.4464 50.9571C72.587 50.5595 72.8451 50.2078 73.1475 49.9178Z" fill="#263238"/>
<path d="M71.564 50.6087C71.6043 50.5252 71.6541 50.4446 71.7057 50.3673C71.8093 50.2105 71.9369 50.0688 72.0702 49.9372C72.3441 49.6673 72.67 49.4612 72.9909 49.2523C73.0194 49.2339 73.0469 49.2798 73.0177 49.2983C72.7013 49.4954 72.4152 49.7373 72.1548 50.0033C72.0265 50.1344 71.9118 50.2755 71.8042 50.4233C71.7516 50.4956 71.704 50.5712 71.6581 50.6479C71.6149 50.7201 71.578 50.8103 71.522 50.8724C71.5069 50.8892 71.4749 50.8769 71.4766 50.8539C71.4805 50.7722 71.5287 50.682 71.564 50.6087Z" fill="#263238"/>
<path d="M70.5951 50.679C70.6892 50.5546 70.7872 50.437 70.8947 50.3239C71.0022 50.2114 71.1131 50.1072 71.2335 50.0092C71.3562 49.9095 71.4833 49.8143 71.6014 49.709C71.63 49.6833 71.6647 49.727 71.6339 49.7505C71.5079 49.8474 71.3965 49.9638 71.289 50.0809C71.1876 50.1918 71.0846 50.301 70.9826 50.4113C70.8807 50.5216 70.7788 50.6319 70.678 50.7428C70.5761 50.8548 70.4854 50.9853 70.3717 51.085C70.3526 51.1018 70.3286 51.0816 70.3381 51.0592C70.3997 50.922 70.5055 50.7982 70.5951 50.679Z" fill="#263238"/>
<path d="M70.3357 74.1527C70.3509 75.5835 70.24 78.0201 71.4513 78.7246C72.1429 79.1266 72.9106 79.1541 73.6717 79.0768C75.2962 78.9111 76.7948 78.1517 78.122 77.1823C78.5011 76.9057 78.8668 76.6078 79.2291 76.3071C79.5797 76.0159 79.9336 75.7062 80.2449 75.3702C80.2668 75.3467 80.2993 75.3836 80.278 75.4071C79.9705 75.7387 79.6816 76.0842 79.3719 76.414C79.0717 76.7338 78.7531 77.0306 78.4182 77.3095C77.7434 77.8711 77.007 78.3494 76.218 78.7106C75.4368 79.0684 74.6141 79.3103 73.7663 79.4005C72.9644 79.4862 72.0617 79.4694 71.3589 79.0007C69.7634 77.9367 70.1907 75.0291 70.2921 74.1645C70.2954 74.1331 70.3352 74.1225 70.3357 74.1527Z" fill="#263238"/>
<path d="M173.325 158.108C173.022 157.664 172.729 157.199 172.437 156.704C172.174 156.251 171.942 155.796 171.74 155.312C169.52 150.124 170.317 142.735 168.641 124.233C168.581 123.547 168.49 122.891 168.389 122.255C168.328 121.892 168.268 121.549 168.187 121.205C167.884 119.732 167.46 118.389 166.945 117.158C166.794 116.784 166.632 116.421 166.46 116.078C166.288 115.727 166.107 115.389 165.92 115.058C165.855 114.944 165.787 114.834 165.72 114.722C165.594 114.51 165.468 114.3 165.336 114.097C165.253 113.97 165.169 113.845 165.084 113.721C164.962 113.541 164.838 113.364 164.712 113.19C164.619 113.065 164.527 112.94 164.432 112.817C164.306 112.653 164.177 112.493 164.047 112.335C163.949 112.216 163.852 112.096 163.753 111.981C163.617 111.824 163.477 111.672 163.337 111.521C163.24 111.416 163.144 111.307 163.046 111.204C162.82 110.971 162.591 110.745 162.359 110.526C162.236 110.412 162.111 110.304 161.987 110.193C161.861 110.081 161.738 109.969 161.611 109.862C161.472 109.745 161.332 109.632 161.192 109.52C161.078 109.428 160.964 109.336 160.849 109.248C160.7 109.133 160.551 109.023 160.4 108.913C160.293 108.836 160.186 108.759 160.078 108.684C159.919 108.573 159.76 108.463 159.6 108.357C159.506 108.295 159.412 108.236 159.318 108.176C159.143 108.064 158.968 107.952 158.791 107.846C158.749 107.821 158.706 107.798 158.663 107.772C157.988 107.372 157.305 107.015 156.624 106.696C156.581 106.675 156.538 106.655 156.495 106.634C156.286 106.538 156.078 106.446 155.869 106.356C155.815 106.333 155.761 106.309 155.708 106.287C155.499 106.198 155.291 106.114 155.083 106.032C155.04 106.014 154.997 105.998 154.954 105.981C154.733 105.896 154.513 105.813 154.294 105.734C153.42 105.422 152.569 105.165 151.759 104.955C151.804 104.645 151.836 104.329 151.836 104.005C151.836 103.594 151.786 103.197 151.713 102.807C151.693 102.696 151.673 102.585 151.647 102.477C151.617 102.353 151.583 102.232 151.548 102.111C151.507 101.976 151.46 101.844 151.412 101.713C151.376 101.618 151.344 101.522 151.304 101.429C151.209 101.208 151.104 100.993 150.988 100.786C150.966 100.749 150.942 100.713 150.92 100.677C150.809 100.491 150.691 100.311 150.563 100.138C150.531 100.094 150.498 100.052 150.465 100.008C150.321 99.8222 150.169 99.6437 150.007 99.4747C149.997 99.4654 149.989 99.4553 149.98 99.4459C148.795 98.2259 147.141 97.4648 145.306 97.4648C141.733 97.4648 138.836 100.321 138.775 103.874C138.765 103.915 138.765 103.965 138.765 104.005C138.765 104.254 138.781 104.499 138.809 104.74C138.816 104.812 138.831 104.882 138.842 104.954C138.842 104.955 138.842 104.956 138.842 104.958C133.896 106.239 127.375 109.248 124.029 116.329C123.867 116.672 123.706 117.035 123.564 117.409C123.059 118.64 122.656 119.972 122.373 121.436C122.302 121.779 122.242 122.123 122.191 122.476C122.1 123.041 122.019 123.627 121.969 124.232C120.313 142.512 121.07 149.941 118.94 155.119C118.718 155.664 118.466 156.189 118.163 156.704C117.911 157.138 117.659 157.542 117.397 157.935C114.5 162.346 111.411 164.082 111.411 164.082L108.641 164.314L111.411 166.484C112.181 166.642 112.944 166.792 113.705 166.938C113.916 166.979 114.127 167.018 114.339 167.058C114.944 167.172 115.546 167.282 116.146 167.388C116.315 167.418 116.484 167.449 116.653 167.479C117.391 167.608 118.124 167.731 118.854 167.849C119.031 167.877 119.206 167.904 119.383 167.932C119.958 168.023 120.531 168.111 121.101 168.195C121.316 168.227 121.531 168.259 121.746 168.29C122.446 168.392 123.143 168.489 123.835 168.58C123.901 168.589 123.966 168.597 124.031 168.605C124.693 168.692 125.35 168.773 126.004 168.851C126.226 168.878 126.447 168.903 126.667 168.929C127.198 168.99 127.726 169.049 128.251 169.105C128.434 169.124 128.618 169.144 128.799 169.163C129.466 169.231 130.129 169.296 130.787 169.356C130.986 169.374 131.182 169.39 131.38 169.407C131.874 169.451 132.365 169.492 132.853 169.531C133.074 169.549 133.296 169.566 133.516 169.583C134.127 169.629 134.735 169.673 135.338 169.712C135.463 169.72 135.587 169.728 135.711 169.735C136.181 169.764 136.648 169.792 137.112 169.817C137.109 169.905 137.099 169.99 137.099 170.078C137.099 170.401 137.12 170.724 137.16 171.047C137.56 174.486 140.096 177.263 143.397 178.052H143.367C143.408 178.062 143.453 178.065 143.494 178.075C143.709 178.124 143.927 178.163 144.148 178.194C144.233 178.206 144.316 178.22 144.401 178.23C144.698 178.262 144.999 178.283 145.305 178.283C149.474 178.283 152.916 175.174 153.441 171.158C153.491 170.804 153.511 170.441 153.511 170.077C153.511 170.025 153.505 169.974 153.503 169.922C153.577 169.919 153.65 169.915 153.724 169.912C154.81 169.865 155.866 169.807 156.893 169.742C156.994 169.735 157.094 169.729 157.194 169.723C157.68 169.691 158.16 169.657 158.632 169.622C158.656 169.62 158.68 169.618 158.704 169.617C159.235 169.576 159.757 169.535 160.27 169.491C160.286 169.489 160.302 169.488 160.318 169.487C160.823 169.443 161.317 169.398 161.803 169.352C161.818 169.351 161.832 169.349 161.846 169.348C165.965 168.953 169.446 168.449 172.181 167.974C172.251 167.963 172.322 167.953 172.391 167.941C176.789 167.17 179.2 166.484 179.2 166.484V164.213V164.082C179.199 164.084 176.192 162.387 173.325 158.108Z" fill="#70C2B7"/>
<path d="M134.328 167.909C134.328 168.232 134.348 168.555 134.389 168.878C134.863 172.956 138.335 176.115 142.534 176.115C146.703 176.115 150.145 173.006 150.67 168.989C150.721 168.636 150.741 168.273 150.741 167.91C150.741 163.368 147.066 159.693 142.534 159.693C138.003 159.693 134.328 163.367 134.328 167.909Z" fill="#1F4742"/>
<path opacity="0.2" d="M134.389 168.877C134.348 168.554 134.328 168.231 134.328 167.908C134.328 163.366 138.002 159.691 142.534 159.691C142.559 159.691 142.583 159.695 142.595 159.691C142.752 159.693 142.906 159.708 143.062 159.718C143.172 159.725 143.285 159.726 143.395 159.737C143.576 159.755 143.752 159.788 143.93 159.818C144.021 159.834 144.115 159.843 144.205 159.862C144.388 159.9 144.567 159.951 144.746 160.001C144.826 160.024 144.909 160.04 144.988 160.065C145.165 160.121 145.336 160.188 145.507 160.255C145.584 160.286 145.664 160.31 145.741 160.342C145.907 160.413 146.066 160.496 146.225 160.576C146.302 160.615 146.382 160.648 146.456 160.689C146.608 160.772 146.752 160.866 146.898 160.957C146.976 161.006 147.056 161.05 147.132 161.101C147.266 161.193 147.393 161.294 147.522 161.393C147.602 161.454 147.686 161.511 147.763 161.575C147.88 161.671 147.988 161.777 148.099 161.88C148.181 161.955 148.266 162.026 148.345 162.106C148.443 162.204 148.532 162.311 148.625 162.413C148.708 162.505 148.795 162.593 148.874 162.689C148.954 162.786 149.024 162.89 149.1 162.991C149.182 163.101 149.268 163.208 149.345 163.322C149.411 163.419 149.467 163.523 149.528 163.623C149.604 163.748 149.685 163.869 149.755 163.998C149.811 164.103 149.858 164.214 149.91 164.322C149.973 164.453 150.042 164.581 150.098 164.715C150.147 164.83 150.184 164.95 150.227 165.067C150.276 165.201 150.331 165.332 150.373 165.468C150.412 165.594 150.439 165.726 150.472 165.854C150.507 165.987 150.547 166.118 150.575 166.254C150.607 166.414 150.626 166.578 150.649 166.742C150.664 166.851 150.687 166.958 150.698 167.068C150.726 167.344 150.741 167.624 150.741 167.907C150.741 168.27 150.721 168.634 150.67 168.987C150.145 173.004 146.703 176.113 142.534 176.113C141.868 176.113 141.212 176.032 140.597 175.88H140.667C141.807 175.88 142.944 175.643 143.986 175.18C145.861 174.348 147.835 172.37 146.166 170.297C145.02 168.874 143.044 169.122 141.422 169.103C139.077 169.076 136.731 169 134.389 168.877Z" fill="#A2122A"/>
<path d="M135.992 101.835C135.992 105.448 138.919 108.366 142.533 108.366C146.136 108.366 149.063 105.449 149.063 101.835C149.063 101.795 149.063 101.745 149.053 101.704C148.993 98.1515 146.096 95.2949 142.533 95.2949C138.96 95.2949 136.063 98.1515 136.002 101.704C135.992 101.745 135.992 101.795 135.992 101.835Z" fill="#2E6B63"/>
<path opacity="0.2" d="M140.95 108.167C140.881 108.149 140.813 108.133 140.745 108.114C140.507 108.046 140.274 107.969 140.031 107.87C139.782 107.767 139.543 107.648 139.311 107.516C139.288 107.504 139.267 107.49 139.245 107.477C139.034 107.354 138.833 107.22 138.638 107.076C138.617 107.06 138.596 107.045 138.576 107.03C137.009 105.838 135.992 103.96 135.992 101.836C135.992 101.796 135.992 101.746 136.002 101.705C136.041 101.551 137.543 101.343 137.746 101.302C139.176 101.014 140.628 100.796 142.087 100.748C142.826 100.723 143.566 100.753 144.303 100.823C144.676 100.858 145.059 100.888 145.427 100.959C145.734 101.017 146.005 101.096 146.31 100.959C146.836 100.722 146.904 100.192 146.904 99.6775C146.904 98.4258 146.551 97.2547 145.935 96.2656C147.812 97.4058 149.064 99.4753 149.064 101.837C149.064 105.45 146.137 108.368 142.534 108.368C142.266 108.368 142.002 108.347 141.743 108.315C141.668 108.306 141.595 108.293 141.522 108.282C141.328 108.251 141.137 108.213 140.95 108.167Z" fill="#A2122A"/>
<path d="M108.641 161.914V164.316C147.895 172.39 176.43 164.316 176.43 164.316V161.914C176.43 161.914 173.422 160.218 170.556 155.938C170.253 155.494 169.96 155.029 169.667 154.535C169.405 154.081 169.172 153.626 168.971 153.142C166.75 147.954 167.547 140.565 165.872 122.063C165.811 121.377 165.72 120.721 165.619 120.085C165.559 119.722 165.499 119.379 165.417 119.036C165.114 117.562 164.691 116.219 164.176 114.988C164.024 114.614 163.863 114.251 163.691 113.908C157.776 101.836 142.534 101.836 142.534 101.836C142.534 101.836 127.08 101.836 121.257 114.161C121.095 114.504 120.934 114.867 120.792 115.24C120.287 116.472 119.883 117.804 119.601 119.268C119.53 119.611 119.47 119.954 119.419 120.307C119.328 120.873 119.247 121.458 119.196 122.064C117.541 140.344 118.298 147.773 116.168 152.951C115.946 153.496 115.694 154.02 115.391 154.535C115.138 154.969 114.886 155.373 114.624 155.767C111.73 160.177 108.641 161.914 108.641 161.914Z" fill="#347B72"/>
<path d="M114.625 155.765C125.405 157.583 135.226 158.228 143.736 158.228C155.485 158.228 164.751 156.997 170.554 155.937C170.251 155.494 169.959 155.029 169.666 154.534C169.403 154.08 169.171 153.625 168.969 153.141C159.007 154.878 140.041 156.836 116.169 152.949C115.947 153.494 115.695 154.019 115.393 154.534C115.14 154.968 114.888 155.372 114.625 155.765Z" fill="#2E6B63"/>
<path d="M120.789 115.239C139.13 112.756 154.27 113.664 164.172 114.987C164.02 114.613 163.859 114.25 163.687 113.907C153.816 112.635 139.048 111.818 121.253 114.159C121.092 114.502 120.931 114.865 120.789 115.239Z" fill="#2E6B63"/>
<path d="M119.414 120.305C139.299 117.479 155.53 118.63 165.613 120.083C165.553 119.72 165.493 119.377 165.411 119.034C155.287 117.6 139.218 116.5 119.596 119.266C119.525 119.609 119.464 119.952 119.414 120.305Z" fill="#2E6B63"/>
<path opacity="0.2" d="M169.621 165.773C169.494 165.795 169.364 165.818 169.233 165.836C158.387 167.702 136.156 169.976 108.641 164.316V162.045C118.77 164.129 129.084 165.323 139.422 165.582C147.07 165.773 154.737 165.461 162.336 164.56C163.338 164.441 164.34 164.517 164.871 163.491C166.065 161.182 164.417 159.055 163.188 157.231C162.875 156.766 162.572 156.272 162.269 155.747C161.997 155.273 161.764 154.788 161.553 154.283C159.262 148.802 160.089 140.989 158.363 121.448C158.303 120.722 158.201 120.035 158.101 119.359C158.04 118.975 157.98 118.612 157.889 118.249C157.586 116.694 157.142 115.281 156.617 113.979C156.455 113.586 156.294 113.202 156.112 112.838C153.185 106.712 148.057 103.532 143.504 101.877C146.947 102.119 158.675 103.674 163.692 113.909C163.863 114.252 164.025 114.615 164.177 114.988C164.691 116.22 165.116 117.562 165.419 119.036C165.499 119.379 165.56 119.723 165.621 120.086C165.722 120.722 165.813 121.378 165.873 122.064C167.549 140.566 166.752 147.955 168.972 153.143C169.174 153.627 169.406 154.081 169.669 154.535C169.961 155.03 170.254 155.494 170.557 155.939C173.424 160.218 176.431 161.914 176.431 161.914V162.045V164.316C176.431 164.316 174.018 165.002 169.621 165.773Z" fill="#A2122A"/>
<path opacity="0.4" d="M136.028 104.234C133.978 105.217 131.922 105.858 130.002 107.152C128.499 108.166 127.088 109.34 125.852 110.67C119.666 117.33 120.58 127.235 120.142 135.627C119.796 142.241 120.173 149.276 117.051 155.379C116.584 156.291 116.075 157.187 115.483 158.025C114.961 158.764 114.17 159.37 113.734 160.137C119.438 161.353 125.271 161.961 131.104 161.945C129.239 161.571 127.392 161.122 125.562 160.607C123.728 160.092 119.91 159.534 119.662 157.15C119.576 156.326 119.84 155.51 120.111 154.727C120.669 153.109 120.793 151.445 121.051 149.763C121.338 147.889 121.654 145.984 121.654 144.083C121.709 140.98 121.732 137.877 121.81 134.774C121.905 130.155 122.005 125.478 123.013 120.948C123.725 117.753 124.94 114.673 126.837 111.991C129.177 108.682 132.373 105.985 136.028 104.234Z" fill="white"/>
<path d="M129.24 122.755C136.401 122.755 142.206 116.95 142.206 109.788C142.206 102.627 136.401 96.8223 129.24 96.8223C122.079 96.8223 116.273 102.627 116.273 109.788C116.273 116.95 122.079 122.755 129.24 122.755Z" fill="#2E6B63"/>
<path d="M142.206 109.787C142.206 116.955 136.396 122.758 129.235 122.758C124.941 122.758 121.131 120.669 118.773 117.451C120.921 119.031 123.577 119.967 126.451 119.967C133.612 119.967 139.416 114.164 139.416 107.002C139.416 104.135 138.486 101.479 136.905 99.332C140.123 101.689 142.206 105.493 142.206 109.787Z" fill="#1F4742"/>
<path d="M129.249 113.069C128.436 113.069 127.766 112.433 127.723 111.621L127.3 103.511C127.241 102.394 128.131 101.457 129.249 101.457C130.367 101.457 131.257 102.394 131.198 103.511L130.775 111.621C130.732 112.433 130.062 113.069 129.249 113.069Z" fill="white"/>
<path d="M131.309 116.051C131.309 117.195 130.381 118.123 129.236 118.123C128.092 118.123 127.164 117.195 127.164 116.051C127.164 114.906 128.092 113.979 129.236 113.979C130.381 113.979 131.309 114.906 131.309 116.051Z" fill="white"/>
</svg>
