<svg width="25" height="24" viewBox="0 0 25 24" fill="none" xmlns="http://www.w3.org/2000/svg">
<path d="M18 22C18 22 15 21 12.5 21C10 21 7 22 7 22V16H18V22Z" fill="#347B72"/>
<path d="M7.5 14C7.5 15.1045 6.6045 16 5.5 16C4.3955 16 3.5 15.1045 3.5 14C3.5 12.8955 4.3955 12 5.5 12C6.6045 12 7.5 12.8955 7.5 14ZM21.5 14C21.5 15.1045 20.6045 16 19.5 16C18.3955 16 17.5 15.1045 17.5 14C17.5 12.8955 18.3955 12 19.5 12C20.6045 12 21.5 12.8955 21.5 14Z" fill="#FFA726"/>
<path d="M19.5 8.99983C19.5 2.63733 5.5 4.85783 5.5 8.99983V13.4998C5.5 17.6418 8.6345 20.9998 12.5 20.9998C16.3655 20.9998 19.5 17.6418 19.5 13.4998V8.99983Z" fill="#FFB74D"/>
<path d="M16.5 13C16.5 13.5525 16.0525 14 15.5 14C14.9475 14 14.5 13.5525 14.5 13C14.5 12.4475 14.9475 12 15.5 12C16.0525 12 16.5 12.4475 16.5 13ZM10.5 13C10.5 13.5525 10.0525 14 9.5 14C8.9475 14 8.5 13.5525 8.5 13C8.5 12.4475 8.9475 12 9.5 12C10.0525 12 10.5 12.4475 10.5 13Z" fill="#784719"/>
<path d="M12.5 2C8.2475 2 2 4.5 1.9375 18L7 22V12L15.375 7.5L17.9375 11L18 22L23 18C23 12 22.7285 3.5 15.5 3.5L14.5 2H12.5Z" fill="#323434"/>
<path d="M10 17.5H15C15 17.5 14 19 12.5 19C11 19 10 17.5 10 17.5Z" fill="#FB8C00"/>
</svg>
