<svg width="20" height="20" viewBox="0 0 20 20" fill="none" xmlns="http://www.w3.org/2000/svg">
<path fill-rule="evenodd" clip-rule="evenodd" d="M8.28372 2.70801H11.7111C13.2425 2.70799 14.4556 2.70798 15.4049 2.83562C16.3819 2.96698 17.1727 3.24374 17.7964 3.86738C18.42 4.49101 18.6968 5.2818 18.8281 6.25882C18.9558 7.20817 18.9557 8.4212 18.9557 9.95267V10.0467C18.9557 11.5782 18.9558 12.7912 18.8281 13.7405C18.6968 14.7175 18.42 15.5083 17.7964 16.132C17.1727 16.7556 16.3819 17.0324 15.4049 17.1637C14.4556 17.2914 13.2425 17.2914 11.7111 17.2913H8.28372C6.75225 17.2914 5.53922 17.2914 4.58988 17.1637C3.61286 17.0324 2.82207 16.7556 2.19843 16.132C1.5748 15.5083 1.29803 14.7175 1.16668 13.7405C1.03904 12.7912 1.03905 11.5782 1.03906 10.0467V9.95266C1.03905 8.42119 1.03904 7.20817 1.16668 6.25882C1.29803 5.2818 1.5748 4.49101 2.19843 3.86738C2.82207 3.24374 3.61286 2.96698 4.58988 2.83562C5.53922 2.70798 6.75225 2.70799 8.28372 2.70801ZM4.75644 4.07447C3.91803 4.18719 3.43499 4.39859 3.08232 4.75126C2.72964 5.10394 2.51825 5.58697 2.40553 6.42538C2.29039 7.28177 2.28906 8.41066 2.28906 9.99968C2.28906 11.5887 2.29039 12.7176 2.40553 13.574C2.51825 14.4124 2.72964 14.8954 3.08232 15.2481C3.43499 15.6008 3.91803 15.8122 4.75644 15.9249C5.61282 16.04 6.74171 16.0413 8.33073 16.0413H11.6641C13.2531 16.0413 14.382 16.04 15.2384 15.9249C16.0768 15.8122 16.5598 15.6008 16.9125 15.2481C17.2652 14.8954 17.4765 14.4124 17.5893 13.574C17.7044 12.7176 17.7057 11.5887 17.7057 9.99968C17.7057 8.41066 17.7044 7.28177 17.5893 6.42538C17.4765 5.58697 17.2652 5.10394 16.9125 4.75126C16.5598 4.39859 16.0768 4.18719 15.2384 4.07447C14.382 3.95934 13.2531 3.95801 11.6641 3.95801H8.33073C6.74171 3.95801 5.61282 3.95934 4.75644 4.07447ZM4.51726 6.26623C4.73824 6.00105 5.13234 5.96523 5.39751 6.1862L7.19659 7.68544C7.97406 8.33332 8.51384 8.78169 8.96955 9.07478C9.41068 9.3585 9.70984 9.45374 9.9974 9.45374C10.285 9.45374 10.5841 9.3585 11.0252 9.07478C11.481 8.78169 12.0207 8.33332 12.7982 7.68543L14.5973 6.1862C14.8625 5.96523 15.2566 6.00105 15.4775 6.26623C15.6985 6.5314 15.6627 6.9255 15.3975 7.14648L13.5671 8.67182C12.8285 9.28737 12.2298 9.78628 11.7014 10.1261C11.151 10.4801 10.615 10.7037 9.9974 10.7037C9.37983 10.7037 8.84379 10.4801 8.29338 10.1261C7.76499 9.78628 7.16633 9.28737 6.4277 8.67183L4.59728 7.14648C4.33211 6.9255 4.29628 6.5314 4.51726 6.26623Z" fill="#4B4E4E"/>
</svg>
