<svg width="25" height="24" viewBox="0 0 25 24" fill="none" xmlns="http://www.w3.org/2000/svg">
<path d="M7.5 13.5C7.5 14.6045 6.6045 15.5 5.5 15.5C4.3955 15.5 3.5 14.6045 3.5 13.5C3.5 12.3955 4.3955 11.5 5.5 11.5C6.6045 11.5 7.5 12.3955 7.5 13.5ZM21.5 13.5C21.5 14.6045 20.6045 15.5 19.5 15.5C18.3955 15.5 17.5 14.6045 17.5 13.5C17.5 12.3955 18.3955 11.5 19.5 11.5C20.6045 11.5 21.5 12.3955 21.5 13.5Z" fill="#347B72"/>
<path d="M5 9.99983C5 3.63733 20 5.85783 20 9.99983V14.9998C20 19.1418 16.642 22.4998 12.5 22.4998C8.358 22.4998 5 19.1418 5 14.9998V9.99983Z" fill="#FFB74D"/>
<path d="M20.9455 9.669C20.7085 6.6825 19.665 3.741 16 3L15 1.5H12.5C7.886 1.5 4 5.24 4 10.5V12.2L5.5 14V11L16 7.5L19.5 10.5V14L21 12.2V10.5C21 10.218 20.9785 9.9415 20.9455 9.669Z" fill="#424242"/>
<path d="M17 14C17 14.5525 16.5525 15 16 15C15.4475 15 15 14.5525 15 14C15 13.4475 15.4475 13 16 13C16.5525 13 17 13.4475 17 14ZM10 14C10 14.5525 9.5525 15 9 15C8.4475 15 8 14.5525 8 14C8 13.4475 8.4475 13 9 13C9.5525 13 10 13.4475 10 14Z" fill="#784719"/>
<path d="M10 18.5H15C15 18.5 14 20 12.5 20C11 20 10 18.5 10 18.5Z" fill="#FB8C00"/>
</svg>
