<svg width="20" height="20" viewBox="0 0 20 20" fill="none" xmlns="http://www.w3.org/2000/svg">
<path fill-rule="evenodd" clip-rule="evenodd" d="M4.77984 1.70226C5.79428 0.693575 7.46459 0.873121 8.31402 2.00777L9.36485 3.41144C10.056 4.33468 9.99502 5.62502 9.17459 6.44078L8.97562 6.63863C8.96693 6.66387 8.94585 6.74322 8.96925 6.89401C9.02193 7.23359 9.3055 7.95393 10.4959 9.1376C11.6859 10.3209 12.4114 10.6041 12.7558 10.657C12.9119 10.6809 12.9935 10.6586 13.0188 10.6498L13.3588 10.3117C14.0881 9.58651 15.2088 9.45095 16.1118 9.94183L17.7039 10.8073C19.0672 11.5484 19.4117 13.4015 18.2947 14.5121L17.1109 15.6892C16.738 16.06 16.2364 16.3693 15.6242 16.4264C14.1167 16.5669 10.6015 16.3876 6.9081 12.7151C3.45984 9.28642 2.79812 6.29643 2.71439 4.82323L3.33839 4.78777L2.71439 4.82323C2.67206 4.07831 3.02407 3.44806 3.47184 3.00283L4.77984 1.70226ZM7.31336 2.75689C6.89117 2.19294 6.10427 2.1481 5.6612 2.58866L4.3532 3.88923C4.07827 4.1626 3.94599 4.46388 3.96238 4.75231C4.0289 5.92281 4.56332 8.62088 7.78946 11.8287C11.174 15.194 14.3 15.2944 15.5082 15.1818C15.7551 15.1587 16.0005 15.0305 16.2296 14.8028L17.4134 13.6257C17.8946 13.1472 17.7884 12.276 17.1069 11.9055L15.5148 11.0401C15.0752 10.8011 14.5601 10.8799 14.2401 11.1981L13.8606 11.5755L13.4199 11.1323C13.8606 11.5755 13.86 11.5761 13.8594 11.5767L13.8582 11.5779L13.8556 11.5804L13.8502 11.5856L13.838 11.5969C13.8293 11.6049 13.8192 11.6137 13.8079 11.6231C13.7853 11.6418 13.7574 11.663 13.7242 11.6853C13.6574 11.73 13.5693 11.7786 13.4586 11.8199C13.2329 11.904 12.9353 11.9491 12.5663 11.8925C11.8439 11.7817 10.8871 11.2893 9.61457 10.024C8.3425 8.75915 7.84589 7.80671 7.73402 7.08564C7.67682 6.71693 7.72245 6.41918 7.80755 6.1933C7.84926 6.0826 7.89842 5.99458 7.94352 5.928C7.96602 5.8948 7.98743 5.86704 8.00632 5.84449C8.01577 5.83322 8.0246 5.82323 8.03264 5.81451L8.04408 5.80235L8.04932 5.79697L8.05181 5.79445L8.05303 5.79323C8.05362 5.79264 8.05422 5.79204 8.4949 6.23524L8.05422 5.79204L8.29323 5.55439C8.6504 5.19925 8.70043 4.60971 8.36419 4.16056L7.31336 2.75689Z" fill="#4B4E4E"/>
</svg>
