<svg width="119" height="33" viewBox="0 0 119 33" fill="none" xmlns="http://www.w3.org/2000/svg">
<path d="M11.196 26.288C10.452 26.288 9.876 26.084 9.468 25.676C9.084 25.244 8.892 24.656 8.892 23.912V4.472H1.872C1.248 4.472 0.756 4.304 0.396 3.968C0.06 3.608 -0.108 3.128 -0.108 2.528C-0.108 1.904 0.06 1.436 0.396 1.124C0.756 0.787998 1.248 0.619998 1.872 0.619998H20.52C21.144 0.619998 21.624 0.787998 21.96 1.124C22.32 1.436 22.5 1.904 22.5 2.528C22.5 3.128 22.32 3.608 21.96 3.968C21.624 4.304 21.144 4.472 20.52 4.472H13.5V23.912C13.5 24.656 13.308 25.244 12.924 25.676C12.54 26.084 11.964 26.288 11.196 26.288ZM29.9149 26.36C28.0909 26.36 26.5069 25.988 25.1629 25.244C23.8189 24.5 22.7749 23.444 22.0309 22.076C21.2869 20.684 20.9149 19.052 20.9149 17.18C20.9149 15.764 21.1189 14.504 21.5269 13.4C21.9589 12.272 22.5709 11.312 23.3629 10.52C24.1549 9.704 25.1029 9.092 26.2069 8.684C27.3109 8.252 28.5469 8.036 29.9149 8.036C31.7389 8.036 33.3229 8.408 34.6669 9.152C36.0109 9.896 37.0549 10.952 37.7989 12.32C38.5429 13.688 38.9149 15.308 38.9149 17.18C38.9149 18.596 38.6989 19.868 38.2669 20.996C37.8589 22.124 37.2589 23.096 36.4669 23.912C35.6749 24.704 34.7269 25.316 33.6229 25.748C32.5189 26.156 31.2829 26.36 29.9149 26.36ZM29.9149 22.94C30.8029 22.94 31.5829 22.724 32.2549 22.292C32.9269 21.86 33.4429 21.224 33.8029 20.384C34.1869 19.52 34.3789 18.452 34.3789 17.18C34.3789 15.26 33.9709 13.832 33.1549 12.896C32.3389 11.936 31.2589 11.456 29.9149 11.456C29.0269 11.456 28.2469 11.672 27.5749 12.104C26.9029 12.512 26.3749 13.148 25.9909 14.012C25.6309 14.852 25.4509 15.908 25.4509 17.18C25.4509 19.076 25.8589 20.516 26.6749 21.5C27.4909 22.46 28.5709 22.94 29.9149 22.94ZM50.8371 32.84C49.5411 32.84 48.2811 32.72 47.0571 32.48C45.8571 32.24 44.7651 31.868 43.7811 31.364C43.3251 31.124 43.0131 30.836 42.8451 30.5C42.7011 30.164 42.6531 29.816 42.7011 29.456C42.7731 29.12 42.9171 28.82 43.1331 28.556C43.3731 28.292 43.6611 28.112 43.9971 28.016C44.3331 27.92 44.6811 27.968 45.0411 28.16C46.0971 28.688 47.0931 29.024 48.0291 29.168C48.9891 29.336 49.8051 29.42 50.4771 29.42C52.0851 29.42 53.2851 29.024 54.0771 28.232C54.8931 27.464 55.3011 26.312 55.3011 24.776V21.536H55.6251C55.2651 22.76 54.5091 23.744 53.3571 24.488C52.2291 25.208 50.9451 25.568 49.5051 25.568C47.9211 25.568 46.5411 25.208 45.3651 24.488C44.1891 23.744 43.2771 22.712 42.6291 21.392C41.9811 20.072 41.6571 18.536 41.6571 16.784C41.6571 15.464 41.8371 14.276 42.1971 13.22C42.5811 12.14 43.1091 11.216 43.7811 10.448C44.4771 9.68 45.3051 9.092 46.2651 8.684C47.2491 8.252 48.3291 8.036 49.5051 8.036C50.9931 8.036 52.2891 8.408 53.3931 9.152C54.5211 9.872 55.2531 10.832 55.5891 12.032L55.2291 12.932V10.376C55.2291 9.632 55.4211 9.068 55.8051 8.684C56.2131 8.3 56.7651 8.108 57.4611 8.108C58.1811 8.108 58.7331 8.3 59.1171 8.684C59.5011 9.068 59.6931 9.632 59.6931 10.376V24.236C59.6931 27.092 58.9371 29.24 57.4251 30.68C55.9131 32.12 53.7171 32.84 50.8371 32.84ZM50.7291 22.148C51.6651 22.148 52.4691 21.932 53.1411 21.5C53.8131 21.068 54.3291 20.456 54.6891 19.664C55.0731 18.848 55.2651 17.888 55.2651 16.784C55.2651 15.128 54.8571 13.832 54.0411 12.896C53.2251 11.936 52.1211 11.456 50.7291 11.456C49.7931 11.456 48.9891 11.672 48.3171 12.104C47.6451 12.536 47.1171 13.148 46.7331 13.94C46.3731 14.732 46.1931 15.68 46.1931 16.784C46.1931 18.44 46.6011 19.748 47.4171 20.708C48.2331 21.668 49.3371 22.148 50.7291 22.148ZM70.7276 26.36C69.2636 26.36 68.0516 26.096 67.0916 25.568C66.1316 25.016 65.4116 24.2 64.9316 23.12C64.4756 22.04 64.2476 20.696 64.2476 19.088V10.376C64.2476 9.608 64.4396 9.044 64.8236 8.684C65.2076 8.3 65.7596 8.108 66.4796 8.108C67.1996 8.108 67.7516 8.3 68.1356 8.684C68.5436 9.044 68.7476 9.608 68.7476 10.376V19.16C68.7476 20.408 68.9996 21.332 69.5036 21.932C70.0076 22.532 70.8116 22.832 71.9156 22.832C73.1156 22.832 74.0996 22.424 74.8676 21.608C75.6356 20.768 76.0196 19.664 76.0196 18.296V10.376C76.0196 9.608 76.2116 9.044 76.5956 8.684C76.9796 8.3 77.5316 8.108 78.2516 8.108C78.9716 8.108 79.5236 8.3 79.9076 8.684C80.3156 9.044 80.5196 9.608 80.5196 10.376V23.984C80.5196 25.52 79.7876 26.288 78.3236 26.288C77.6276 26.288 77.0876 26.096 76.7036 25.712C76.3196 25.304 76.1276 24.728 76.1276 23.984V21.248L76.6316 22.328C76.1276 23.624 75.3596 24.62 74.3276 25.316C73.3196 26.012 72.1196 26.36 70.7276 26.36ZM86.2833 26C85.8273 26 85.4433 25.892 85.1313 25.676C84.8433 25.436 84.6513 25.136 84.5553 24.776C84.4593 24.416 84.4593 24.032 84.5553 23.624C84.6753 23.192 84.9033 22.784 85.2393 22.4L94.5633 10.7V11.78H86.0673C85.5153 11.78 85.0833 11.636 84.7713 11.348C84.4833 11.036 84.3393 10.616 84.3393 10.088C84.3393 9.536 84.4833 9.116 84.7713 8.828C85.0833 8.54 85.5153 8.396 86.0673 8.396H96.7233C97.2513 8.396 97.6833 8.516 98.0193 8.756C98.3553 8.972 98.5713 9.26 98.6673 9.62C98.7873 9.98 98.7993 10.364 98.7033 10.772C98.6073 11.18 98.3913 11.564 98.0553 11.924L88.5513 23.804V22.616H97.5513C98.7033 22.616 99.2793 23.18 99.2793 24.308C99.2793 24.836 99.1233 25.256 98.8113 25.568C98.5233 25.856 98.1033 26 97.5513 26H86.2833ZM109.931 26.36C108.107 26.36 106.523 25.988 105.179 25.244C103.835 24.5 102.791 23.444 102.047 22.076C101.303 20.684 100.931 19.052 100.931 17.18C100.931 15.764 101.135 14.504 101.543 13.4C101.975 12.272 102.587 11.312 103.379 10.52C104.171 9.704 105.119 9.092 106.223 8.684C107.327 8.252 108.563 8.036 109.931 8.036C111.755 8.036 113.339 8.408 114.683 9.152C116.027 9.896 117.071 10.952 117.815 12.32C118.559 13.688 118.931 15.308 118.931 17.18C118.931 18.596 118.715 19.868 118.283 20.996C117.875 22.124 117.275 23.096 116.483 23.912C115.691 24.704 114.743 25.316 113.639 25.748C112.535 26.156 111.299 26.36 109.931 26.36ZM109.931 22.94C110.819 22.94 111.599 22.724 112.271 22.292C112.943 21.86 113.459 21.224 113.819 20.384C114.203 19.52 114.395 18.452 114.395 17.18C114.395 15.26 113.987 13.832 113.171 12.896C112.355 11.936 111.275 11.456 109.931 11.456C109.043 11.456 108.263 11.672 107.591 12.104C106.919 12.512 106.391 13.148 106.007 14.012C105.647 14.852 105.467 15.908 105.467 17.18C105.467 19.076 105.875 20.516 106.691 21.5C107.507 22.46 108.587 22.94 109.931 22.94Z" fill="white"/>
</svg>
