<svg width="72" height="79" viewBox="0 0 72 79" fill="none" xmlns="http://www.w3.org/2000/svg">
<path fill-rule="evenodd" clip-rule="evenodd" d="M39.5765 0.226261C41.5785 0.402368 43.0604 2.16672 42.8864 4.16706L42.1985 12.0731C42.0493 13.7883 40.7311 15.1201 39.0962 15.3539C38.8863 15.6142 38.6365 15.8497 38.3483 16.0508C36.7066 17.1966 34.442 16.7963 33.2902 15.1565L28.7027 8.62589C27.5509 6.98614 27.9479 4.72796 29.5896 3.58212C31.2313 2.43628 33.4959 2.83667 34.6478 4.47642L35.4541 5.62428L35.6363 3.52931C35.8104 1.52898 37.5744 0.0501529 39.5765 0.226261Z" fill="#347B72"/>
<ellipse cx="36" cy="42.5539" rx="36" ry="36.0461" fill="white"/>
<ellipse cx="12.6447" cy="57.3594" rx="5.44943" ry="5.43362" fill="#FFC6AD" fill-opacity="0.13"/>
<ellipse cx="58.4104" cy="57.3594" rx="5.44943" ry="5.43362" fill="#FFC6AD" fill-opacity="0.13"/>
<ellipse cx="4.72284" cy="4.70914" rx="4.72284" ry="4.70914" transform="matrix(-1 0 0 1 23.9297 41.7891)" fill="#282828"/>
<ellipse cx="1.08989" cy="1.08672" rx="1.08989" ry="1.08672" transform="matrix(-1 0 0 1 22.4688 43.9609)" fill="white"/>
<ellipse cx="4.72284" cy="4.70914" rx="4.72284" ry="4.70914" transform="matrix(-1 0 0 1 56.5938 41.7891)" fill="#282828"/>
<ellipse cx="1.08989" cy="1.08672" rx="1.08989" ry="1.08672" transform="matrix(-1 0 0 1 55.1328 43.9609)" fill="white"/>
<path d="M42.7974 59.3561C42.7974 57.2555 39.707 55.5526 35.8948 55.5526C32.0826 55.5526 28.9922 57.2555 28.9922 59.3561C28.9922 61.4567 32.0826 65.6953 35.8948 65.6953C39.707 65.6953 42.7974 61.4567 42.7974 59.3561Z" fill="#F0C802"/>
<path d="M43.524 57.1862C43.524 55.0855 40.1083 53.3826 35.8948 53.3826C31.6813 53.3826 28.2656 55.0855 28.2656 57.1862C28.2656 59.2868 31.6813 63.5254 35.8948 63.5254C40.1083 63.5254 43.524 59.2868 43.524 57.1862Z" fill="#FED402"/>
<path fill-rule="evenodd" clip-rule="evenodd" d="M36.0234 32.6312C40.2936 29.0184 45.4136 27.1814 50.6372 27.8729C62.3401 29.4221 70.1768 43.0819 68.2936 58.5024C70.6665 53.6943 72 48.28 72 42.5539C72 22.6462 55.8823 6.50781 36 6.50781C16.1177 6.50781 0 22.6462 0 42.5539C0 48.3301 1.35688 53.7889 3.7689 58.6283C1.82745 43.1564 9.67488 29.4263 21.4097 27.8729C26.6333 27.1814 31.7533 29.0184 36.0234 32.6312Z" fill="#347B72"/>
</svg>
